<?xml version="1.0" standalone="no"?>
<!DOCTYPE svg PUBLIC "-//W3C//DTD SVG 1.1//EN" "http://www.w3.org/Graphics/SVG/1.1/DTD/svg11.dtd" >
<svg xmlns="http://www.w3.org/2000/svg">
<metadata></metadata>
<defs>
<font id="axure_handwritingregular" horiz-adv-x="1139" >
<font-face units-per-em="2048" ascent="1638" descent="-410" />
<missing-glyph horiz-adv-x="569" />
<glyph horiz-adv-x="2048" />
<glyph horiz-adv-x="2048" />
<glyph unicode="&#xd;" horiz-adv-x="569" />
<glyph unicode=" "  horiz-adv-x="569" />
<glyph unicode="&#x09;" horiz-adv-x="569" />
<glyph unicode="&#xa0;" horiz-adv-x="569" />
<glyph unicode="!" horiz-adv-x="569" d="M186 1358q-1 10 4 19.5t17 23.5q-6 3 -11 15.5t-2 17.5q5 5 8 15t9 15l18 -6t19 -8l6 4l6 4q5 -6 5.5 -11t0.5 -11q9 -6 24 -7.5t30.5 -2t28 -0.5t15.5 -3q30 -100 33.5 -189t-4.5 -172t-19.5 -163.5t-11.5 -163.5q0 -24 -2.5 -51.5t-2.5 -55t4.5 -54t17.5 -48.5 q-8 -9 -12 -16.5t-6 -15t-3.5 -16.5l-3.5 -21q-17 -16 -31 -21t-14 -14q-6 10 -10.5 15t-9.5 8t-12 4t-19 4q-11 18 -17.5 35.5t-9.5 29.5q4 51 5 104t1.5 103t1.5 94t5 78v4q-3 20 -4.5 42.5t2.5 31.5q0 1 -7.5 11.5t-12.5 24.5t-2.5 28.5t22.5 23.5q-1 2 -6 4.5t-11.5 4.5 t-12.5 3.5t-9 1.5q6 17 9 42.5t-11 45.5q9 2 12.5 -2t9.5 -4q0 2 1 8.5t1 8.5q-20 17 -27.5 38t15.5 39q0 11 -6 21.5t-19 7.5q4 10 10.5 11t8.5 12q-9 19 -14.5 31t-6.5 22zM203 190q11 8 12.5 19.5t3.5 13.5v49q0 -2 7 -4t14.5 -2t13 3t2.5 12q25 6 46.5 0t39 -20t31 -35 t24.5 -46q-2 -60 -17.5 -101.5t-56.5 -76.5q-43 -5 -65.5 11t-33.5 44t-14 63.5t-7 69.5z" />
<glyph unicode="&#x22;" horiz-adv-x="727" d="M134 1261.5q-1 51.5 0.5 103t0.5 97.5q26 3 57 0t59 -12.5t49.5 -27t27.5 -42.5q5 -52 2.5 -100t-6 -94t-4.5 -90.5t8 -89.5q0 -12 -6.5 -17t-14 -9t-13.5 -10t-5 -18q-49 15 -79 46.5t-46.5 72.5t-22.5 90t-7 100.5zM440 1462q30 3 58.5 -1t54.5 -12t49 -18.5t41 -19.5 q5 -11 4 -25.5t-2 -28.5t1.5 -25t15.5 -15q-7 -9 -13.5 -30.5t-12.5 -51t-11.5 -63t-10.5 -66.5t-9.5 -61.5t-8.5 -47.5q-2 -9 -5.5 -13t-7 -7.5t-4.5 -8.5t3 -16q-8 -6 -17.5 -5t-17.5 7t-13.5 15t-5.5 20q-2 -8 -5 -7.5t-6 2t-5.5 2.5t-3.5 -5q-39 39 -52 95.5t-14.5 121 t1.5 133t-3 131.5z" />
<glyph unicode="#" d="M33.5 532.5q1.5 12.5 6.5 22.5t10.5 19t7.5 18q28 18 47.5 18.5t36 -1t32.5 1.5t38 24q23 -10 45.5 -11.5t39 11t24.5 41t4 78.5q0 3 -2.5 7t-4.5 8q-3 4 -6 9q-44 -16 -76 -14t-53 18.5t-31.5 46t-11.5 68.5q6 7 13 23q28 7 47 10t37.5 6t40 7t55.5 13q12 46 22.5 113.5 t19.5 140t17 142.5t17 121q29 17 52.5 14t40.5 -20.5t27.5 -46.5t14.5 -64q-2 -5 -5.5 -21t-7 -38t-6.5 -47t-4.5 -46.5t-0.5 -36.5t5 -18q-17 -20 -27.5 -68t-8.5 -114q21 -1 45 1t49 5l50 6t46 4q9 9 18 17.5t15 19.5q0 6 -2.5 8.5t-5.5 5t-4.5 5.5t0.5 10q6 17 7.5 55.5 t2 85t2 96t9 89.5t23.5 63.5t44 19.5q13 -2 22 -10.5t17.5 -20t18 -23t23.5 -20.5q-3 -33 -6 -81t-6 -97.5t-6.5 -95.5t-7.5 -74q15 6 17.5 2.5t8.5 -18.5q2 6 7.5 6.5l11 1t9 3t1.5 13.5q25 -11 44.5 -8.5t38.5 7t39.5 4.5t47.5 -15q-3 -23 4 -32.5t17 -14t20 -8t14 -14.5 q-8 4 -10 1t-3.5 -7.5t-4 -8t-10.5 1.5q1 -2 0 -8.5t-2.5 -14.5t-2.5 -14.5t1 -7.5q-26 -12 -56 -17.5t-61.5 -9t-64 -7t-62.5 -11.5q4 -13 1.5 -37t-6.5 -50.5t-7 -52t0 -40.5q6 -9 19.5 -5t28 9.5t26.5 8t14 -8.5q25 22 47 19t42.5 -19.5t39.5 -40.5t39 -43 q2 -11 -6.5 -12.5t-16.5 -3.5q15 -13 10.5 -20.5t-15 -14.5t-20.5 -16.5t-8 -26.5q-21 -7 -48.5 -1t-55 12.5t-52.5 6.5t-42 -20q-6 -5 -11 -22.5t-9 -41t-7 -49.5t-4 -47q-2 -14 -3 -39t-1.5 -51.5t-1 -48t-0.5 -27.5q0 -24 -2 -52.5t-8.5 -56t-19 -51t-32.5 -38.5 q-14 -2 -24.5 2.5t-20 9t-19.5 6.5t-24 -4q-26 51 -28 107t5 116t15.5 123t3.5 129q-5 12 -13.5 16.5t-10.5 12.5q-25 -4 -46.5 -5t-41 -2.5t-38.5 -6t-38 -15.5q-4 -31 -7 -70t-6.5 -80.5t-9 -82t-16 -76t-26.5 -62t-40 -39.5q-5 2 -3 7.5t5 7.5q0 7 -4.5 6t-10 -2t-11 1.5 t-6.5 16.5q-3 -5 -2.5 -10.5t-1.5 -11.5q-7 3 -8.5 7.5t-8.5 0.5q-21 14 -28.5 39.5t-7.5 57.5t5 68t9.5 72t6 68.5t-4.5 58.5q-16 -2 -28 -1.5t-21 0t-17 -4.5t-16 -16q-32 -5 -56 -2t-43 13.5t-33.5 27.5t-27.5 41q-8 16 -6.5 28.5zM435 618q32 0 66.5 2t66.5 6t61 10.5 t50 16.5q5 9 10.5 34.5t8.5 54.5t3 56.5t-6 41.5q-26 8 -57 5.5t-61 -9.5t-56.5 -15t-42.5 -10q-8 -10 -16 -37t-14.5 -57.5t-10.5 -58.5t-2 -40z" />
<glyph unicode="$" d="M84 420q12 5 27.5 6t28.5 4.5t20.5 12.5t3.5 30q18 1 27.5 -6t16 -13.5t14 -9t20.5 8.5q25 -39 27.5 -70t-23.5 -49q8 -18 13.5 -32t11.5 -26t14 -22.5t20 -22.5q21 2 33.5 -6t22 -19.5t19.5 -23t26 -16.5q15 6 38 9t46 -9q28 37 33.5 88t3.5 104.5t-5 105t9 91.5 q-6 17 -8 31.5t-1.5 29.5t2 32.5t2.5 41.5q-18 25 -48.5 37.5t-62 24t-57.5 26.5t-36 47q-42 22 -66 61.5t-33 87t-4 97.5t21 92q10 -1 12 3.5t0.5 10.5t-3 12.5t0.5 10.5q6 17 27 37.5t36 40.5q3 4 1.5 7.5t-3 7.5t-2 8t3.5 8q22 20 53.5 29.5t61 18.5t51.5 22t27 40 q14 -2 23 0.5t18 7.5q-2 24 3 45.5t11 41t9.5 38.5t0.5 37q25 13 59.5 12.5t63.5 -20.5q8 -20 11 -42.5t5 -44t4.5 -40.5t11 -32.5t25 -20t44.5 -2.5q32 -23 59.5 -45t53.5 -45.5t51 -49t53 -53.5q0 -11 2.5 -20t5 -17.5t4 -17.5t0.5 -21q-24 -21 -43.5 -24t-37 6t-34 27 t-33.5 38t-36 39.5t-41.5 31.5t-49.5 13.5t-61 -14.5q-10 -65 -5.5 -120.5t12.5 -106t16 -98.5t6 -99q29 -5 44.5 -16.5t27.5 -23.5t26 -22t41 -13q-2 -9 7.5 -15t21 -12t20 -13t4.5 -18q39 -14 64 -40.5t41 -62.5t24.5 -79.5t14.5 -91.5q-10 -8 -14 -21.5t-7.5 -27t-9 -24 t-18.5 -11.5q-1 -51 -24.5 -96t-61 -82t-85 -65.5t-96.5 -47.5q-21 -20 -30 -53.5t-17 -70t-20 -70t-37 -54.5q-18 -5 -29.5 -3.5t-22.5 5t-25 6t-36 -1.5q-3 22 -7 43t-5.5 42.5t1 44.5t11.5 51q-43 -14 -83.5 -3.5t-78.5 30t-74.5 41t-70.5 30.5q-31 28 -56.5 69.5 t-42.5 88t-25.5 94.5t-4.5 90zM362.5 1077q-6.5 -28 3 -57t29.5 -56.5t44.5 -48.5t49 -33t42.5 -10q7 32 9.5 79t1 96t-6 93.5t-11.5 71.5q-23 -1 -39.5 -7.5t-30 -18t-27 -26.5t-30.5 -32q-28 -23 -34.5 -51zM689 593q1 -7 3.5 -13t5.5 -11.5t5 -11.5q-9 -20 -8.5 -39.5 t3.5 -42.5t5.5 -51t-2.5 -64q4 -2 4 -13.5t-1 -24.5t0 -23.5t7 -11.5q-3 -1 -4.5 -7t-3 -14t-2.5 -15.5t-3 -10.5q11 2 20 -2t15 -11q9 13 22 26.5t28 25t32 18.5t33 8q8 28 20 51.5t21 48t10.5 51.5t-10.5 62q-15 3 -30.5 14t-32 25.5t-33.5 28.5t-34 23.5t-34.5 11 t-34.5 -10.5q-2 -10 -1 -17z" />
<glyph unicode="%" horiz-adv-x="1821" d="M119 930q11 12 13.5 28.5t1.5 34t-2 34.5t3 32q10 2 12.5 -2t8.5 -4q-5 5 -5.5 11.5t-6.5 8.5q3 13 7.5 14t10.5 -6q0 15 2.5 23.5t6 14.5t8 13t8.5 19q18 10 25 21.5t9 24t2.5 26t6.5 28.5q9 0 13 -4t13 -4q-7 12 0.5 18t17 11t14.5 13t-5 24q37 5 69 12.5t64 5.5 q-9 9 -25 12q11 2 30 14.5t30 26.5q9 -2 11 -11t5 -17q9 8 15.5 8t12.5 -1.5t14 -1.5t20 9q2 -8 0.5 -12t-5 -7t-6.5 -6t-4 -8q12 -2 19 1t11.5 8t8 11.5t8.5 12.5q5 -2 4.5 -7.5t-0.5 -10.5q36 1 59 -8t41.5 -19.5t36.5 -20t44 -10.5q2 10 15 13t30.5 3t36 -1t33 1.5 t21.5 10t1 24.5q32 -12 58.5 -11.5t50 8t44.5 19t41.5 20t40 12t41.5 -4.5q8 6 9.5 12.5t2.5 10.5t4 3t15 -11q1 12 8.5 16.5t18 7t21.5 5t18 8.5q9 5 16.5 14.5t16.5 19t20.5 16t27.5 5.5q8 0 12 -5t9.5 -10t14 -9.5t24.5 -2.5q5 -5 6.5 -14t4 -17t9 -12.5t21.5 -1.5 q1 -14 0.5 -26.5t-4.5 -22t-13 -15t-24 -5.5q15 -9 11.5 -20.5t-12 -23.5t-15 -24.5t1.5 -24.5q-23 4 -40 -12.5t-32 -38t-29.5 -41.5t-32.5 -22v-33q-32 -15 -52 -41t-36.5 -54t-33.5 -54.5t-43 -42.5q-23 -53 -47 -103t-46.5 -101t-42.5 -104.5t-34 -111.5 q-20 -69 -42 -138.5t-28 -144.5q6 -16 14.5 -24t21 -11.5t29.5 -3.5h41q2 -15 9 -29.5t12 -31.5q4 -8 1.5 -13.5t-5 -10.5t-0.5 -11t14 -14q-32 -16 -51 -36.5t-35.5 -38.5t-37 -30t-54.5 -12q-10 10 -18.5 13t-16 2.5t-13.5 -3t-11 -2.5q0 10 -1.5 15t-3 8.5t-2.5 6.5t0 9 q0 7 -4.5 9t-10 0.5t-10 -4.5t-3.5 -7q-6 8 -7 17t-2 14.5t-5.5 7t-18.5 -5.5q-12 43 -14.5 88.5t1 94t10 100.5t11.5 108q13 24 22 54.5t17.5 64t17 67.5t19 65t25.5 57t36 42q1 7 -0.5 10.5t-3.5 7t-3 8t1 13.5q6 8 9.5 5.5t13.5 -5.5q4 17 10.5 34.5t15 32t19 24 t22.5 9.5q-9 19 -5 38.5t16.5 39.5t30.5 40t35.5 41.5t32 43.5t21.5 45q-14 8 -34.5 7t-44.5 -6t-49.5 -12t-49 -11.5t-43.5 -4.5t-33 9q-18 0 -24 -4t-6 -10.5t4 -14t6.5 -14.5t0.5 -13t-13 -8q2 -9 1 -20.5t-2.5 -23t-1 -22t6.5 -18.5q-3 -40 -14 -78.5t-25 -72.5 q-18 -13 -28.5 -15t-16 1.5t-7.5 9.5t-3 8q-28 -43 -67 -80t-84 -63t-94 -39t-96.5 -8t-91.5 31t-79 77q10 14 8 23.5t-8 19.5t-13 21.5t-8 29.5q6 5 9.5 2.5t11.5 -2.5q-3 6 -8 10t-13 2q1 11 4.5 21.5t5 19.5t-2 14.5t-15.5 6.5zM283 872q3 -8 7.5 -10t9.5 -2.5t9 -1 t7 -4.5q6 11 10.5 9.5t7.5 -7.5t6 -14t6 -11q5 9 10 11t12 1.5t17.5 -2t26.5 0.5q14 9 37 18.5t47.5 20.5t46 24t31.5 29q22 32 32 77t1 85t-40 67t-90 23q-4 -13 -17 -29t-30.5 -27.5t-36.5 -16t-34 6.5q-11 -24 -27.5 -50t-28 -53.5t-12.5 -56.5t20 -59q-3 0 -7 -5 t-8 -10.5t-7.5 -10t-5.5 -3.5zM1047 377q3 14 8 32t10.5 37t11.5 37l11 33q4 2 8 1.5t6.5 0.5t2.5 6t-3 17q18 7 29 10.5t19.5 9t14.5 14.5t13 27q30 10 53 25.5t45 26t45 12.5t53 -15q10 0 28.5 6t31.5 11q5 -3 10 -4.5t16 -1.5q1 -4 -5.5 -5.5t-6.5 -7.5q7 0 12 1.5t9 3 t8.5 2t11.5 -0.5q-2 -8 3 -11t11 -5t10.5 -5.5t2.5 -10.5q28 4 47 -6.5t32 -29t22.5 -41t18.5 -42.5q7 3 14 -2.5t13 -5.5q-3 -3 -2 -7t4 -8.5t6 -9.5t4 -12q-5 -2 -11.5 -5t-8.5 -7t1.5 -6.5t18.5 -2.5q-3 -8 -2.5 -14t1 -10t-1 -6t-9.5 -2q5 -4 10 -11t8.5 -15.5t4 -16 t-3.5 -13.5q-3 2 -5.5 0t-4.5 -5t-4 -6.5t-5 -4.5q9 -3 8.5 -9.5t-3 -13.5t-3.5 -13t8 -7q-11 -6 -14.5 -15.5t-5 -22.5t-4.5 -28t-13 -32q-9 1 -17 -2.5t-12 -9t-2.5 -10t11.5 -5.5q-8 -4 -15.5 -7t-13 -8t-7.5 -12.5t3 -19.5q-25 -19 -43 -35.5t-35 -32.5q-13 3 -19.5 4 t-10.5 0t-8 -4t-11 -8q3 -14 9.5 -17t15.5 -8q4 -17 -4 -21t-19.5 -4.5t-20.5 -3t-7 -16.5q-15 1 -25.5 3t-17 1t-9.5 -6.5t-2 -19.5q-12 9 -29.5 5.5t-34.5 -7t-30.5 -1.5t-17.5 23q-3 0 -4.5 -3t-3.5 -6t-4.5 -5t-8.5 0q1 10 -8.5 16t-21.5 8t-23 -1t-12 -11q-3 6 -7 18 t-9 21.5t-10 12.5t-9 -9q-7 8 -12 17.5t-10 18.5t-12.5 15.5t-20.5 8.5q7 13 2.5 22.5t-11 19t-10.5 20t4 24.5q0 6 -6.5 6t-11.5 2q2 5 2 17v20q-13 23 -9 45.5t10 44.5t7 43t-18 41zM1191 270.5q-1 -40.5 16.5 -77.5t46.5 -68q38 -6 67.5 -0.5t52 20.5t39.5 39t31 56 q25 10 43.5 41.5t26.5 70.5t3 78t-28 64q-14 2 -28.5 1.5t-28 -0.5t-25.5 2t-22 11q-6 -15 -13 -18t-15.5 -0.5t-16.5 7t-15 5.5q-26 -23 -32.5 -35.5t1.5 -32.5q-54 -40 -78 -81.5t-25 -82z" />
<glyph unicode="&#x26;" horiz-adv-x="1366" d="M117.5 359q1.5 39 12 78.5t24.5 78.5q2 5 4.5 6t5.5 0t5.5 -3t4.5 -3q5 47 18 96t42 97q31 -3 42.5 11.5t18.5 35t17.5 40t39.5 25.5q-7 7 -8 17.5t3 18t13 10.5t21 -5q-8 14 -6 26t8.5 23.5t16 21.5t16.5 21q-63 68 -76.5 135.5t4.5 141.5q6 -2 8.5 1t4 7.5t3.5 8.5t7 5 q-11 3 -8 17t15.5 30t31.5 27.5t41 9.5q-8 5 -7 11t3 11t1.5 7.5t-12.5 1.5q10 14 21 20t21 11t18 14t12 29q14 -4 14 -23q9 11 20.5 19.5t24 16.5t24 16t19.5 18q2 -6 10.5 -7t17.5 -1t14.5 -2t2.5 -11q9 0 16.5 1.5t14.5 3.5t15 2.5t20 -0.5q40 -26 79.5 -47t80.5 -39 q7 -20 18 -40.5t21 -42t16.5 -43.5t3.5 -46q-38 -37 -71.5 -77.5t-66.5 -81t-67 -80t-71 -75.5q-2 -13 0.5 -29t8 -29t12 -21t13.5 -5q8 -2 7.5 -11.5t1.5 -19.5q25 -18 41.5 -36.5t30.5 -38.5t28 -41.5t32.5 -46t44.5 -51.5t64 -58q20 0 31 10.5t18.5 25.5t14 33t16.5 33 q5 11 13.5 19.5t18 15.5t18 13.5t14.5 13.5q7 9 13 23.5t11.5 29.5t11 28t11.5 19q2 2 11 3t11 3q4 12 4.5 27.5t1 29.5t5 25.5t16.5 16.5q-2 9 -1 19.5t-5 10.5q8 10 15.5 7.5t14 -10t14 -16.5t15.5 -11q-2 10 4 15t15 5t18 -7t12 -21q-12 1 -13.5 -2.5t1 -9t5 -13 t-0.5 -14.5q9 13 15.5 8.5t12.5 -14.5t13 -19t18 -4q1 -11 3 -18.5t2.5 -15t-0.5 -16t-5 -20.5q-6 15 -10.5 13.5t-9 -7t-10 -10t-13.5 3.5q10 -18 11.5 -28t0 -18t-4 -16.5t-0.5 -23.5q-13 -2 -18 2.5t-11 6.5q15 -28 11 -50t-14.5 -41.5t-21.5 -38t-10 -38.5 q-8 1 -11.5 -1t-6 -3.5t-5 -1t-8.5 5.5q-2 -6 0.5 -9.5t5 -6.5t4 -6t-0.5 -9q-10 4 -15 -7t-11.5 -23.5t-16.5 -21.5t-31 -1q-9 -5 -8.5 -19.5t-1 -29.5t-9.5 -26.5t-32 -10.5q-3 -15 3.5 -27t18 -19t25 -9.5t24.5 1.5q7 -32 21.5 -52t32.5 -35t38.5 -27.5t40.5 -30.5 q-1 -13 -5.5 -21t-9.5 -15t-9 -14.5t-2 -19.5q-43 -1 -78 17t-64 42t-54 48t-47.5 35.5t-44 4.5t-44.5 -46q-11 0 -14 8q-12 -18 -30 -34t-38 -29.5t-40.5 -25t-37.5 -20.5q-11 -6 -35.5 -20t-54 -26t-59 -17.5t-49.5 4.5q-3 -3 -7.5 -3.5t-8 -1.5t-5.5 -4t0 -10 q-5 3 -11.5 3t-13 1.5t-10.5 4.5t-2 12q-6 -5 -8.5 -6t-4 -2.5l-4 -4t-7.5 -8.5q-19 14 -44.5 24t-50.5 7q-12 23 -28.5 29.5t-44.5 9.5q-5 16 -16 27t-29 -2q1 10 -1 15t-5 9.5t-5.5 11t-3.5 21.5q-6 -2 -14 -10t-8 -15q-6 15 -16 26.5t-20 24.5t-17 30t-5 42q0 4 -3 2.5 t-6.5 -5t-6.5 -8.5t-2 -7q-31 35 -42.5 73t-10 77zM345 344.5q-2 -74.5 30 -156.5q32 -29 69 -34.5t75 2.5t76 25t73 34q15 31 38 47.5t47.5 30.5t47 32t35.5 52q-17 18 -35.5 24t-39.5 19.5t-44 46t-49 104.5q-17 -1 -26 5.5t-14.5 16.5t-9.5 23t-10 25q-21 -2 -27.5 12 t-11 33t-12 36t-29.5 21q-48 -59 -90 -122.5t-66.5 -132.5t-26.5 -143.5zM485 1116q3 -1 6.5 -6.5t6.5 -12.5t5.5 -13.5t4.5 -8.5q9 1 15 -2.5t10.5 -7.5t9 -6.5t10.5 0.5q-5 7 4.5 12.5t18.5 12t11.5 15t-14.5 21.5q35 -5 54.5 2t30 20.5t15 31.5t9.5 36q1 3 5.5 3.5t9 0.5 t8.5 1t6 4q4 6 5 15t2.5 18.5t4.5 17t10 10.5q-8 5 -16 22.5t-8 28.5q-18 4 -27 -0.5t-15.5 -10t-14.5 -8.5t-23 3q-23 -20 -48.5 -32t-46.5 -30t-34.5 -49t-14.5 -88z" />
<glyph unicode="'" horiz-adv-x="391" d="M131.5 1201.5q1.5 60.5 6.5 127t-1 135.5q22 3 46 -1t47 -12t46 -18.5t44 -19.5q5 -15 3.5 -31.5t-3 -31.5t1 -26t16.5 -15q-10 -17 -21 -54t-20.5 -81t-18 -89t-14.5 -77q0 -9 -1 -13.5t-1.5 -8.5t0 -10.5t2.5 -19.5q-6 -8 -14.5 -6t-16 9.5t-13 18t-5.5 21.5 q-4 -8 -9 -7.5t-9.5 2.5t-8 2.5t-4.5 -5.5q-35 43 -44.5 96.5t-8 114z" />
<glyph unicode="(" horiz-adv-x="682" d="M126.5 518q-0.5 36 0.5 68q3 40 8.5 75.5t-0.5 77.5q3 11 5 19t3.5 18t2 22.5t1.5 32.5q17 14 27.5 33.5t24.5 34.5q-2 30 2.5 55.5t11.5 50.5t15 51t14 58q5 5 8 5t5 -1t5 -1t8 5q13 9 20 23.5t11.5 31t7.5 32.5t8 28q0 6 4.5 12t11 11.5t12.5 11t9 10.5q3 6 1 17t1 16 q5 6 15.5 6t15.5 8q3 5 4 12.5t2 15.5t2.5 14.5t5.5 10.5q2 3 9.5 8.5t7.5 8.5q14 18 25.5 35t24 29.5t28.5 20t38 7.5q9 -12 20 -20.5t21 -16.5t19 -17.5t14 -23.5q-9 -26 -13 -39t-7.5 -21.5t-9 -15.5t-17.5 -22q-8 -3 -14 2.5t-6 11.5q-20 -16 -34 -39.5t-26.5 -48 t-26.5 -46.5t-32 -36q2 -5 4 -11q1 -5 1 -12.5t-5 -15.5q-15 -16 -28.5 -49t-27 -72t-26.5 -78t-27 -67q-6 -29 -9.5 -57t-7.5 -55t-10 -54t-16 -55q3 -83 9 -156.5t17 -141t27 -131t39 -126.5q9 -42 23 -83.5t30.5 -84t33 -86.5t30.5 -90q10 -2 15.5 -12t8 -23.5t3 -28 t2.5 -26.5q-12 -7 -19.5 -21t-15.5 -26.5t-21.5 -21t-37.5 -3.5q-12 19 -28.5 46t-33 59.5t-29 70t-16.5 78.5q-25 28 -42.5 60t-31 65.5t-24.5 68t-23 66.5q-11 26 -18.5 50.5t-13.5 52t-10 60.5t-7 75q-2 24 -3.5 56t-3 67t-2 71z" />
<glyph unicode=")" horiz-adv-x="682" d="M125 1395q5 13 7.5 28t7 28.5t15 24t31.5 15.5q23 1 39.5 -6t30 -19.5t26.5 -29.5t31 -35q1 -2 3 -11t5 -20t6.5 -22t6.5 -17q2 -4 9 -8t14.5 -7.5t13.5 -7t8 -5.5q2 -5 15.5 -28t32.5 -60.5t41.5 -87t43.5 -106.5t38 -120t25 -127q1 -20 2.5 -33t3.5 -23t4.5 -18.5 t6.5 -19.5q-3 -20 -3.5 -29.5t1 -16.5t3.5 -16.5t3 -29.5q1 -32 2.5 -69t1.5 -68.5t-2.5 -51.5t-9.5 -16q-5 -56 -6.5 -96t-10.5 -74q-2 -9 -5.5 -29.5t-8.5 -41.5t-13 -36.5t-20 -13.5q-5 -18 -10 -41.5t-9.5 -47t-9 -45t-10.5 -36.5q-15 12 -24 3.5t-16 -26.5t-13 -38.5 t-16 -32.5q-1 -41 -13.5 -78.5t-29 -70t-33 -59.5t-25.5 -46q-28 -9 -52.5 2t-37.5 35t-11 57.5t27 69.5q8 26 19.5 53.5t23.5 54.5q5 13 11 25.5t12 26.5q9 46 25.5 91.5t25.5 92.5q9 18 19 28.5t18 28.5q4 13 8 29.5t7 33.5t4.5 33.5t1.5 30.5q0 29 6 64q6 34 13 54.5 t14 39t11.5 42.5t6.5 66q-6 75 -16 167.5t-33 195.5q-21 76 -50 141.5t-59.5 116.5t-58.5 86.5t-47 50.5q0 -4 -9 2t-21 20.5t-25.5 35.5t-22.5 47z" />
<glyph unicode="*" horiz-adv-x="797" d="M63 1104q0 4 3.5 5.5t7.5 3t6 4t-1 7.5q15 -1 32 0.5t32 3.5t27 4l18 3q12 4 26 7.5t29 10.5t30.5 19.5t30.5 33.5q-24 10 -49.5 25t-49.5 30t-45 28.5t-36 21.5q-5 5 -9 16t-9 22t-12 21t-19 14q3 11 3 12.5t-3 10.5q35 -5 67 -15.5t62 -25t59 -32t58 -36.5q7 -1 10 1.5 t4.5 5.5t3 4.5t6.5 -0.5q1 17 6 34t10.5 34t9.5 35t3 36q2 5 6 4t4 -4q-5 6 -2 9.5t8 7.5t9.5 9.5t1.5 14.5q15 2 44 1.5t80 -15.5q7 -26 2 -53.5t-13.5 -53t-16.5 -46.5t-6 -34q37 3 54.5 13.5t22.5 25.5q12 -2 20.5 -0.5t15.5 4.5t15.5 6.5t20.5 5.5q7 -8 18.5 -12.5 t24 -12t24.5 -21.5t21 -40q-55 -20 -127 -52t-147 -66q2 -3 4 -7t2 -10q1 -2 13 -4t27 -3.5t28.5 -2t15.5 -0.5q2 -13 9.5 -27t18 -27t22 -24t22.5 -18q9 -15 13.5 -28t0 -23.5t-19.5 -19t-46 -13.5q-3 5 -2.5 6t2.5 4q-6 -3 -9 -1t-13 1q-20 12 -37.5 25t-32.5 23.5 t-27.5 17.5t-21.5 6q-12 -19 -18 -36.5t-8 -35t-1.5 -34.5t0.5 -36q-18 -15 -37 -26t-36 -6q-1 7 0.5 10.5t3 6.5l2.5 5t0 6q-8 5 -23 7t-47 2q-8 20 -1 46.5t17 51.5t17.5 45.5t1.5 28.5q-23 0 -50.5 -4.5t-54.5 -8t-49.5 -5t-35.5 4.5q-5 11 -8.5 21.5t-7.5 19.5t-9.5 16 t-15.5 11z" />
<glyph unicode="+" horiz-adv-x="1196" d="M115 647q10 26 41 42t67.5 27.5t71.5 20.5t55 21q11 -4 27 -4t34 1.5t35 5t29 7.5q2 13 -1 28t-5.5 29.5t-0.5 26.5t15 20q6 34 5 71t0.5 73.5t9 70.5t30.5 62q-14 7 -13.5 14t5.5 14.5t12 15t7 15.5q15 -1 26.5 -2.5t22 -4.5t22.5 -6t29 -7q25 -39 28.5 -78.5t-1 -78 t-11 -76t-0.5 -74.5q-8 3 -9.5 -3.5t-1.5 -18.5t-0.5 -26.5t-4.5 -27.5q29 -7 64 -6t73 4t76.5 5t76 -3.5t72 -20.5t62.5 -47q-15 -30 -43 -49.5t-63 -29t-72.5 -9.5t-71.5 8q-20 -10 -42.5 -16t-42.5 -10q-23 -4 -46 -6q-19 -17 -21.5 -44t17.5 -69q-11 -16 -13 -34 t1.5 -36.5t11 -36.5t16.5 -34q-5 -8 -9 -25t-9.5 -36.5t-15 -38t-25.5 -29.5q-27 -9 -49 2t-38.5 34t-27 53t-14 60t-0.5 55t14 37q-12 13 -15 29t-5.5 32t-8.5 31t-24 27q-21 -18 -43 -22.5t-43 -7t-39.5 -7t-32.5 -22.5q-15 5 -30 4t-31.5 -4.5t-36 -6.5t-43.5 -1 q-9 10 -16.5 26t-14 33t-12.5 31.5t-10 21.5z" />
<glyph unicode="," horiz-adv-x="569" d="M181 40q0 23 7.5 43.5t22.5 35.5q12 14 14 24t2 19q5 4 20.5 12t32.5 16t31 12.5t17 0.5q22 -5 33.5 -25t16.5 -48.5t5.5 -61t-0.5 -62.5q0 -6 -12.5 -24.5t-18.5 -44.5q-2 -6 -0.5 -13t3 -15t1 -17t-5.5 -19q-8 -17 -9 -29t-1 -26q-13 -11 -20.5 -28t-16.5 -28 q-6 -7 -19 -18.5t-27 -20t-27 -11t-19 8.5q6 23 15 43.5t16 43t10 49.5t-4 63q-16 14 -20.5 22t-16.5 11q-15 18 -22.5 41t-7.5 46z" />
<glyph unicode="-" horiz-adv-x="682" d="M79.5 475.5q1.5 18.5 6 36.5t9 34t3.5 29q18 18 54 24t78.5 7.5t85.5 3.5t75 11q3 -2 13 -6.5t21.5 -7t22 -0.5t15.5 14q15 -4 33.5 -5.5t36 -2t31 -1.5t16.5 -4q3 -12 9.5 -22.5t18.5 -10.5q-2 -9 2 -16.5t9 -14t9.5 -13.5t4.5 -15q0 -34 -24 -47t-57.5 -15.5t-68.5 2.5 t-57 7q-15 -7 -51.5 -11.5t-83.5 -7t-100.5 -3.5t-104.5 -1q-8 17 -6.5 35.5z" />
<glyph unicode="." horiz-adv-x="569" d="M186 98q9 17 14 35.5t10 33t13 22t23 1.5q19 9 36.5 12t33.5 1.5t30.5 -5.5t26.5 -8q18 -18 16.5 -40.5t-9.5 -44t-18 -38.5t-10 -24q-12 -5 -31 -16t-38.5 -18.5t-37.5 -8.5t-28 14q1 11 -1.5 17.5t-7.5 14.5t-11 19.5t-11 32.5z" />
<glyph unicode="/" horiz-adv-x="569" d="M0 53q7 82 23 154.5t35.5 138.5t41.5 128t43 124q0 7 -3 12l-6 10t-5.5 12t-1.5 19q10 -8 16.5 -6t9.5 10t4 20t0.5 22.5t-1 17.5t-0.5 6q5 15 20.5 28t22.5 31q2 9 2.5 21t0.5 24.5t0.5 25t2.5 21.5q3 14 8 24t10 18t9.5 15.5t7.5 16.5q3 14 0 31.5t2 34.5q4 20 12.5 39 t17.5 37t17 35.5t12 35.5q1 13 -0.5 23.5t-1 20t6 19t20.5 21.5q-1 3 0.5 8.5t3 10.5t3 8t1.5 2q-3 1 -1.5 10t5 18.5t8.5 15t10 1.5q-3 28 2.5 49t14 39t17.5 36.5t13 41.5q17 8 33 8t28 -6.5t19.5 -18.5t8.5 -28q3 -63 -13.5 -117t-37.5 -106t-39 -104t-17 -110 q-13 -27 -21 -52.5t-13.5 -53t-8.5 -59t-6 -68.5q-1 -6 -8 -20t-13.5 -29t-8.5 -27t7 -14q0 -19 -20 -19q-2 -38 -10.5 -63.5t-15.5 -45t-8 -37t11 -38.5q-13 -10 -27 -32t-26.5 -50.5t-23.5 -60.5t-18.5 -62.5t-10.5 -57t0 -42.5q-5 0 -7 -5.5t-2 -14.5t1 -21t2 -25 q-15 -13 -23 -35t-16 -43.5t-19 -37t-32 -13.5q-12 9 -18.5 20.5t-12 22t-13.5 20t-24 15.5z" />
<glyph unicode="0" d="M86 653q34 107 61 218t56 223q29 20 42.5 54t16.5 79q15 1 22.5 11.5t14.5 24.5t17.5 27t31.5 19q1 31 18 53.5t41 40t51.5 33.5t49.5 34q15 1 26.5 -1.5t21.5 -5t19 -2t19 8.5q7 -2 6.5 -6t-2.5 -8.5t-1.5 -7.5t11.5 -4q13 5 22.5 9.5t20.5 10.5q15 -5 26.5 -10 t22.5 -7.5t22 -2t24 5.5q24 -31 57 -62t74 -47q48 -94 83.5 -197t67.5 -212q-2 -5 -5 -4t-3 4q1 -54 4.5 -108.5t2 -109.5t-12 -112t-37.5 -115q4 -27 -1.5 -52.5t-15 -48.5t-21.5 -43.5t-19 -37.5q-8 -15 -15 -35t-13.5 -40.5t-14.5 -39.5t-17 -32q-3 -6 -13 -9.5t-15 -9.5 q-3 -4 -2 -9.5t1 -10.5t-4 -8t-16 0q5 -10 0 -22t-15.5 -23t-23 -20t-22.5 -13q-29 -32 -67 -44.5t-82 -12.5t-91 9t-92 21q0 4 -3 6.5t-6.5 4.5t-5.5 5.5t1 10.5q-18 -8 -34 0t-31 22t-30 31t-30 27q-6 4 -21 13.5t-29 23t-22 31t0 38.5q-3 8 -11 10t-18 4q1 28 -6.5 54 t-17.5 51t-20.5 48.5t-16.5 45.5q-7 25 -6 55t1.5 59.5t-4 57.5t-22.5 49zM286 630.5q-2 -51.5 3.5 -100t23.5 -92.5q2 -6 2 -15.5t-0.5 -18t-1 -14.5t-0.5 -5q19 -87 74.5 -154t140.5 -112q16 -2 34.5 1t36.5 10t34 17.5t27 24.5q3 6 2 21t4 26q7 13 15.5 18.5t13.5 9 t4.5 8.5t-11.5 17q16 7 25 20.5t26 18.5q11 74 31 145t37 141t26 138.5t-1 136.5q-11 26 -15 62t-8 74.5t-12.5 76.5t-28.5 70q-11 3 -13 -1.5t-1.5 -11t0 -12t-7.5 -4.5q-16 15 -33.5 25.5t-31.5 22.5t-23.5 29t-10.5 46q0 -3 -3 -6.5t-7 -5.5t-8.5 -2t-7.5 4 q-5 16 -2.5 30t10.5 25q-16 6 -28.5 5t-22.5 -7t-18 -15t-15 -17q-39 -8 -65.5 -30.5t-45 -54.5t-31.5 -70.5t-24.5 -79t-23.5 -80.5t-29 -73q6 -5 4.5 -11t3.5 -21h-21q-10 -53 -17.5 -105.5t-9.5 -104z" />
<glyph unicode="1" d="M223 1165q22 29 35.5 45t24 31t19 36t20.5 60q5 5 7.5 5.5t4.5 -0.5t5 -3t11 -2q6 33 18 52.5t28.5 32.5t36 24t40.5 27q31 -23 64 -39.5t59 -44.5q3 -16 2.5 -39.5t-0.5 -46.5t2 -41.5t10 -24.5q1 -117 -4.5 -244t-10.5 -258.5t-6.5 -264.5t7.5 -261q29 -1 58.5 -4 t53.5 -14.5t38.5 -33.5t13.5 -61q-4 -21 -21.5 -35t-40 -21t-46.5 -6t-40 11q-23 -13 -58.5 -24.5t-75 -16.5t-79 -0.5t-70.5 22t-49 51.5t-14 89q25 -2 36.5 4t21 12t24.5 9t47 -3q8 41 8 78.5t-2 77t-4 82.5t2 94q3 31 3 67.5v76.5t2.5 81t11.5 80q2 10 10 18t10 19 q3 32 3 66t-1 69.5t-2.5 73.5t0.5 78q-21 -9 -32 -21t-21.5 -23.5t-24.5 -20t-40 -9.5q-21 -1 -35.5 4t-25 16.5t-18.5 28.5t-16 41z" />
<glyph unicode="2" d="M59 172q17 23 26.5 48.5t18.5 48t21.5 40t36.5 23.5q-3 4 -4.5 13.5t0 17.5t8 12.5t20.5 -2.5q2 9 -3 14t-3 14q24 20 41 47.5t33.5 55.5t36.5 52.5t49 39.5q12 41 31.5 74.5t42.5 62t48 56t47 57t40 63.5t27 78q23 13 40.5 33t14.5 33q9 3 18.5 7.5t22.5 6.5q-3 22 3 41 t11.5 36t6.5 33t-11 31q0 3 10 10t13 9q-6 13 -19 23t-29.5 18t-35.5 15t-37 15q-6 -13 -14 -14t-17 1t-18.5 2.5t-18.5 -9.5q-20 3 -20 16q-20 -3 -45.5 -11.5t-49.5 -23t-44 -34t-29 -43.5q-8 -18 -20 -37t-25.5 -34t-28.5 -23.5t-29 -6.5q-7 1 -14 -6q-4 -4 -6 -8 q-12 5 -13.5 17t-5.5 18q-8 13 -19 26t-20.5 27t-14 29.5t0.5 34.5q18 22 29 41.5t21.5 35.5t24 27.5t38.5 17.5q6 0 7.5 4t1 10t-1.5 12t1 11q11 -1 27.5 2.5t33 11.5t29.5 22.5t17 35.5q7 0 10 -4.5t4.5 -9.5t4 -9.5t7.5 -5.5q4 19 9.5 23.5t12 3t13 -3.5t12.5 6 q3 -6 5.5 -9t15.5 -11q4 13 12 15.5t15 3.5t12.5 5t5.5 19q12 -6 22 -9t18.5 -5t15.5 -4.5t13 -8.5q3 1 3.5 4.5t2.5 7t7 6t16 2.5q0 -6 5 -10.5t5 -7.5q30 7 60.5 -7.5t60 -36.5t56 -45t49.5 -32q32 -56 37 -109t-7 -103.5t-36 -99t-51.5 -95t-53 -91.5t-39.5 -88 q-30 -16 -48 -44t-34.5 -58t-35.5 -57.5t-50 -42.5q-4 -33 -29 -68.5t-55.5 -72.5t-60 -75.5t-41.5 -76.5q12 -7 41 -0.5t61 20.5t61 33t42 37q9 2 15 -0.5t9.5 -6.5t4 -9t-0.5 -7q40 -2 63.5 3t40.5 9.5t34 3.5t45 -16q37 16 75 22.5t74 0.5t69 -25.5t60 -56.5 q-6 1 -11.5 -3t-9 -10t-3.5 -13.5t6 -14.5q19 -1 17.5 -15.5t-15.5 -31.5t-35 -31.5t-41 -15.5q-17 -1 -34 5t-32 10.5t-27 2.5t-20 -18q-19 10 -55.5 11t-80.5 -4t-90.5 -13.5t-84.5 -16.5q-48 -8 -96.5 -28t-96.5 -37.5t-96 -26.5t-96 4q-10 22 -19 38t-17 32.5t-15 38 t-13 55.5z" />
<glyph unicode="3" d="M102 1333q30 19 58 34t54.5 28.5t52 28t51.5 32.5q37 -12 73 -9t69 10t62.5 13t53.5 0q9 -2 21.5 -2.5t26 -0.5t26.5 -1t22 -4q42 -13 86 -44t71 -76.5t27 -104t-47 -127.5q-8 -29 -31 -54t-50 -50t-54 -50.5t-43 -54.5q21 -1 53.5 -2.5t68.5 -8.5t69.5 -21.5t56.5 -39.5 q18 -21 46.5 -47.5t52.5 -55t36 -57.5t-2 -55q15 -31 15 -64.5t-6 -69.5t-14.5 -73.5t-11.5 -74.5h-24q-10 -59 -45 -115t-88 -102.5t-120.5 -80t-141 -48.5t-150 -8t-147.5 42q-4 21 -20 37t-36 31t-41.5 30.5t-37 35.5t-21.5 46.5t4 63.5q16 1 17.5 7t-1.5 15t-4 19t11 19 q15 13 18 12.5t4.5 -6t7.5 -9.5t27 3q-1 -6 0.5 -9.5t3.5 -6.5t3.5 -6.5t0.5 -8.5q10 1 15 7t9 12.5t7.5 10.5t11.5 3q4 -5 4.5 -11t1 -13t3.5 -14.5t12 -15.5q8 1 12.5 2.5t9 3.5t10 4t15.5 5q9 -25 1.5 -38.5t-24.5 -27.5q0 -15 9 -23.5t14 -21.5q48 -15 88 -14t74.5 10 t64.5 20.5t59 16.5q23 19 44.5 32.5t41 28t37.5 32t33 44.5q15 -5 26 8t19.5 33t15.5 42t13 36q3 -4 7 -6q7 -5 9 -2q10 11 10.5 24t-3.5 26t-11 26t-11.5 25t-4.5 23t10 19q-3 24 -23.5 48.5t-53 44t-73 33t-81.5 16t-80 -9t-68 -40.5q-27 2 -42.5 2t-27.5 -0.5t-25.5 -1.5 t-37.5 0q-2 29 -16.5 47.5t-32.5 32.5q7 1 7 10.5t-3.5 22.5t-7.5 27t-4 26q31 4 54 16t42.5 29.5t37 39t36.5 44.5q40 18 82.5 46.5t78.5 64.5t61.5 77t31.5 82q-24 35 -63 48t-82.5 14.5t-86.5 -3t-74 -3.5q-23 -8 -36.5 -20t-26.5 -24t-31 -22t-49 -14q9 -19 4.5 -37.5 t-12.5 -34.5q-31 9 -58.5 22t-47.5 33t-30.5 48t-7.5 69z" />
<glyph unicode="4" d="M31 698q12 -1 15.5 5t3.5 14.5t-2 16.5t-3 11q2 8 9.5 11.5t17.5 3.5q0 6 -2 10.5t-3.5 9t-2.5 10.5t2 15q22 25 37 59.5t27.5 74t23.5 82t26 83.5q5 -3 10 -5.5t13 -2.5q2 36 7 67t13.5 60.5t20.5 59.5t28 63q11 -2 21 -7t27 -2q-3 -4 10.5 -14.5t29 -21.5t24.5 -21 t-3 -12q-3 -9 0 -12t9 -3.5t13.5 0.5t12.5 0q-6 -46 -17.5 -84.5t-31.5 -72.5q5 -7 7.5 -16t14.5 -11q-25 -27 -41 -64.5t-29.5 -78.5t-28 -81.5t-38.5 -72.5q9 -14 27 -21t41.5 -9.5t50 -3t52 -2t47.5 -5.5t36 -14q9 9 24 9.5t31 -1t31.5 -2t26.5 5.5q28 86 38 178 t11 186.5t-4 188.5t-6 184q14 -8 27 -10t26.5 -2t28 -1t32.5 -7q6 -10 9 -32.5t6.5 -45.5t9 -42t16.5 -23q-2 -59 2.5 -118t7.5 -118.5t0 -120.5t-18 -125q1 -38 6 -67.5t21.5 -51t47.5 -37t85 -26.5q-3 -14 -5.5 -23.5t-5.5 -19t-7 -21.5t-9 -30q-21 0 -36.5 -7.5 t-29.5 -16t-28.5 -13t-34.5 1.5q-8 -45 -13.5 -85.5t-7.5 -79t-1 -77t6 -80.5q-5 -3 -9 -4.5t-12 -1.5q15 -22 17.5 -56.5t-4 -65.5t-20.5 -49t-32 -7q-5 4 -11 3.5t-13 -2t-13.5 -3.5t-11.5 0q-32 37 -46.5 73.5t-19.5 75t-4 81.5t0 94q0 17 3 39t6.5 43.5t5.5 41t0 31.5 q-8 32 -43.5 46t-80 17t-88 -1t-67.5 -8q-8 13 -20 20t-23.5 7.5t-21 -6t-13.5 -21.5q-16 13 -36 9t-42 -13.5t-46 -17.5t-48 -1q-11 25 -23.5 46t-23 42t-17.5 44.5t-5 53.5z" />
<glyph unicode="5" d="M111 732.5q-2 26.5 12 53.5q-11 26 -12 56t4.5 60t15.5 58.5t21 51.5q-1 53 -2 106.5t3.5 102t17 90t38.5 69.5q11 -5 18.5 -14t24.5 -20q12 11 28 14.5t31 6.5t26.5 9t16.5 21q35 -15 67 -9t62.5 14.5t60.5 11.5t62 -17q25 5 43 15t45 13q-2 -5 -5 -7.5t-3 -8.5 q12 -3 22 1.5t18.5 11t16 12.5t15.5 6q3 0 6 -3.5t6 -8t5.5 -8t4.5 -3.5q12 1 23.5 7.5t26.5 11.5t36 7.5t52 -3.5q-5 -6 -5 -8.5t2 -4t5.5 -3t5.5 -7.5q9 11 19 12t20 -3t20.5 -10.5t20.5 -10.5q-6 -6 -6.5 -11t1 -9t2 -8.5t-5.5 -8.5q16 -9 31.5 -17t28.5 -22 q-15 -31 -47 -43t-70 -14.5t-77 0.5t-68 2q-23 -13 -49.5 -19t-53 -8.5t-50.5 -4t-42 -5.5q-8 -3 -11 -11t-3 -18q-24 10 -48 14.5t-44.5 1.5t-36 -14t-23.5 -32q-23 1 -35.5 1.5t-22.5 0t-20.5 -2t-29.5 -3.5q-12 -14 -19 -40.5t-9 -55.5t0.5 -55.5t10.5 -39.5 q-8 -7 -14 -26.5t-7.5 -41.5t2.5 -40.5t17 -22.5q97 50 197 68t213 -2q-3 -7 3.5 -14t18 -12t26.5 -8t30 -1q15 -17 33 -26t39 -15t43 -11t44 -14q2 -8 0 -11.5t-5 -5.5t-6 -4.5t-3 -7.5q25 -5 41.5 -23.5t28.5 -41.5t22.5 -47t24.5 -41q-10 -12 -10.5 -26.5t4 -29t12 -29 t14.5 -26.5q0 -18 -2 -36t-4 -35.5t-3 -35.5t1 -36q-15 -12 -21 -35.5t-8 -52.5q-7 -2 -10.5 -6.5t-7.5 -9.5t-9.5 -9t-15.5 -4q-33 -74 -88 -128t-124 -90t-148 -53.5t-160 -17.5q-12 18 -32.5 26.5t-41 16.5t-35 18.5t-14.5 33.5q-15 -3 -24 1t-15.5 9.5t-13.5 11t-18 6.5 l4 10t2 13q-14 12 -32 25t-31 27t-17.5 30t8.5 33q-2 5 -13.5 6.5t-21 7t-11.5 19.5t15 46q10 -2 16.5 -6.5t12.5 -7.5q4 9 2.5 13t-4 6.5t-4 5.5t1.5 12q2 2 7.5 3.5t12 0t12.5 -5.5t9 -12q5 1 4.5 4t-2 7t-2 8.5t5.5 8.5q19 -17 47 -20t49 12q5 -14 13.5 -22.5t29.5 -6.5 q-2 -15 2 -25t7 -18t2 -15t-13 -15q26 -56 69.5 -73t90.5 -6.5t91 41t71 68.5q8 3 12 -8q6 9 18 18.5t26.5 19.5t28.5 22.5t23 27.5q5 9 6.5 22t3.5 26.5t5.5 27t11.5 25.5q23 31 18 65t-34 80q-14 15 -22.5 25.5t-16 20.5t-15.5 21.5t-20 28.5q-32 2 -53.5 12.5t-38.5 24.5 q-45 9 -81.5 13t-70 2t-65.5 -11.5t-66 -27.5q-24 -14 -45 -29t-44 -29t-50 -26t-62 -19q-16 14 -33 34t-28.5 44t-13.5 50.5z" />
<glyph unicode="6" d="M106 644q-1 88 10.5 175.5t31.5 171.5q22 17 35.5 45t25 57.5t24 55t33.5 37.5q-5 19 4 32t21.5 25t24 26.5t10.5 37.5q31 11 48.5 32t31.5 47q14 2 24 5.5t27 5.5q34 43 81 60.5t97.5 15t100 -23t88.5 -53t63 -75t24 -88.5q1 -5 5 -7t8.5 -4t7 -5.5t0.5 -12.5 q-15 -7 -16 -9.5t2.5 -6.5t7 -11.5t-1.5 -23.5q-10 2 -27.5 -2.5t-36 -11t-36.5 -11t-29 -2.5q-2 10 2 13.5t4 9.5q-26 8 -39 23t-20 33.5t-11 39.5t-10.5 40.5t-18.5 35.5t-36 25q-24 -12 -48 -22.5t-44.5 -24t-36 -31.5t-23.5 -45q-31 -12 -50 -36t-33.5 -52.5t-28 -57.5 t-33.5 -51q3 -5 5.5 -8.5t8.5 -5.5q-41 -34 -57.5 -84.5t-22.5 -104t-10 -103.5t-19 -83q7 -14 17 -24t12 -25q12 14 21.5 30.5t21 31.5t27 25.5t41.5 12.5q0 11 -5 15.5t-3 13.5q7 7 17.5 8t20 1t14 2t-0.5 11q2 1 11 2.5t17 4.5t11.5 10t-4.5 20q17 -8 26.5 -5.5 t15.5 10.5t10.5 19t12.5 19q12 -5 25.5 -4t26 6t22 13.5t14.5 19.5q31 4 55 6t44.5 2.5t39 1.5t39.5 4q10 -2 15.5 -8.5t13.5 -11.5q5 3 7 9.5t13 4.5q6 -9 15.5 -15t20 -11t20 -10.5t16.5 -14.5q6 5 9 10.5t14 5.5q29 -35 58.5 -69.5t49.5 -77.5q4 -84 -8 -164t-39.5 -151 t-72.5 -131t-107 -105v-35q-30 -18 -60.5 -40.5t-61.5 -41.5t-62.5 -30t-63.5 -5q-4 1 -8.5 4t-9.5 4.5t-11.5 0t-13.5 -8.5q-68 16 -120.5 48t-95 74.5t-77 93t-65.5 104.5q-2 6 -9 6h-12q-38 81 -54.5 167t-17.5 174zM420 369q8 -33 25 -46.5t39.5 -16.5t49 0.5t52.5 4.5 q-2 -11 -3 -18t-1 -12t2.5 -10t9.5 -11q-21 -3 -33.5 -15t-24 -25.5t-26.5 -23.5t-41 -8q1 -21 8 -32t17.5 -15.5t24 -6t26.5 -3.5q8 4 11 7.5t5 7.5t5 7t12 5q7 -3 8 -7t1.5 -7.5t4 -6t14.5 -2.5q9 -4 12 1t4.5 11.5t3.5 13t9 5.5q0 -5 7.5 -8.5t12.5 -3.5q62 31 100 92.5 t60 150.5q9 -1 14.5 3t9 9.5t7.5 11t12 7.5q7 20 18 47.5t20.5 57t15 58t1.5 52t-20 38t-49 15.5q2 11 -5 13.5t-12 7.5q-83 -3 -151.5 -36.5t-120.5 -84t-86 -110.5t-49 -117z" />
<glyph unicode="7" d="M101.5 1348.5q-3.5 36.5 1.5 68.5q27 -13 46 -18t36.5 -8.5t35 -8.5t41.5 -18q7 3 5 6.5t-6 7t-5.5 7.5t6.5 8q27 -21 72 -21q6 2 6 9t2 12q9 -14 13 -10t14 18q12 -2 15 -3.5t4 -4.5t2.5 -8t9.5 -13q4 2 8.5 3.5t8.5 4.5t5.5 7.5t-0.5 13.5q10 2 16.5 1t12.5 -3.5 t12 -4.5t16 -1q0 -8 -5 -13.5t-3 -15.5q19 5 29.5 15.5l21.5 21.5q11 -6 24.5 -7.5t27.5 -4.5q9 16 28 27.5t42.5 16.5t48.5 1.5t46 -17.5q6 12 18.5 13.5t26 0.5t27.5 0t23 13q5 0 6.5 -3.5t2 -8.5t1 -9.5t4.5 -5.5q11 12 23.5 12.5t26 -2.5t26.5 -6t24 2q5 -22 17 -42 t26 -37.5t26.5 -32t18.5 -25.5q-2 -23 -15 -44t-32.5 -40t-42 -36.5t-41.5 -32.5q-44 -83 -100.5 -163t-109 -160.5t-94 -163.5t-56.5 -171q-28 -21 -40 -49t-21 -57.5t-21.5 -57t-40.5 -47.5q2 -6 5 -16t6 -21t5.5 -22t4.5 -19q-3 -5 -5.5 -6t-5 0.5t-5 3.5t-5.5 2 q2 -32 4.5 -62t0 -55.5t-11.5 -43.5t-30 -25q-3 5 -10 3.5t-10 4.5q-7 -6 -11.5 -6.5t-7.5 1t-5.5 4.5t-4.5 5q-8 8 -14.5 5.5t-8.5 -7.5q-2 -3 -5.5 -6.5t-12.5 -3.5q-14 5 -16 11t-2 14l-15 -7.5t-16 2.5q1 6 2.5 17.5t0 24t-8 23t-21.5 13.5q8 100 37.5 195t67.5 192 q11 28 22 64t22 71.5t22.5 67.5t23.5 53q3 6 10 15t14.5 18t13.5 16.5t7 10.5q12 36 35 70t45.5 66t37.5 61.5t11 56.5q28 4 54.5 27t50.5 52.5t44.5 58.5t38.5 44q-2 3 -13 2.5t-24 -1.5t-24 -1.5t-12 2.5q-9 -3 -17 -8t-13 -7.5t-8 0.5t-3 15q-22 -11 -48.5 -15t-53.5 -7 t-52 -8t-43 -17q-18 14 -35 16.5t-36 1t-41 -4t-48 0.5q-8 -3 -7 -6.5t3 -7t3 -7t-5 -7.5q-18 -6 -37.5 -8.5t-39 -2.5t-37 2t-31.5 5q10 16 7.5 26.5t-7.5 20t-8 21.5t6 30q-6 0 -11 -6t-9.5 -11t-9.5 -4.5t-11 13.5q-6 48 -9.5 84.5z" />
<glyph unicode="8" d="M106 1035.5q0 47.5 12 91.5t32 81q9 13 30 13q4 8 5 12.5t0.5 9t-1.5 10.5t0 17q15 13 29 29.5t26 32.5t22 29t16 19q3 7 5.5 6t5.5 -4.5t6.5 -6.5t8.5 -1q56 48 128.5 73.5t160.5 25.5q92 -3 151.5 -23t95 -54t50.5 -81t18 -105q11 -17 15 -15t6.5 12.5t7 24.5t16.5 21 q4 13 3.5 22t-3 16.5l-5 15t-1.5 18.5q1 9 4.5 12.5t8 3t10 -3.5t10.5 -6q10 25 -10 25q4 10 10 11.5t13 -1t15 -6t17 -2.5q11 -50 14.5 -97t-4.5 -79q-16 -61 -36 -99.5t-42.5 -69.5t-46.5 -60t-49 -70q-20 -7 -40.5 -19t-37.5 -27t-28.5 -32.5t-14.5 -36.5q-8 -5 -11.5 -7 t-5.5 -4t-3.5 -5.5t-3.5 -10.5q1 -7 9 -13t17.5 -10.5t17.5 -6t9 1.5q15 -25 37.5 -49.5t46.5 -50.5t46 -54.5t36 -62t16 -72.5t-14 -86q2 -21 2 -44t-5.5 -42.5t-17 -33.5t-32.5 -17q-89 -198 -338 -226q-46 0 -90.5 3t-84.5 14t-73 32t-57 58q-8 2 -14.5 2t-14.5 2 q1 20 -14 47t-29 53t-19.5 46t13.5 26q-5 53 3 102t24 94t37.5 85.5t45.5 76.5q11 -8 23.5 -7t23 9t17.5 21.5t6 28.5q8 -2 13.5 0t10 7t9.5 11.5t12 13.5q-5 9 -18.5 22.5t-32.5 24t-40 15.5t-40 -2q3 14 -5.5 26t-22.5 23t-32 21t-34 20q-29 43 -42.5 90.5t-13.5 95z M261.5 1014q4.5 -36 20 -64t41.5 -45t62 -14q51 -34 88 -47.5t78 -5.5q9 4 22 17t28 25.5t32 20.5t35 2q-5 0 -2.5 10.5t2.5 16.5q14 -2 24 5.5t18 19t15.5 24t15 22t17 13t22.5 -3.5q6 5 2.5 13.5t-10 17t-12.5 17t-6 13.5q13 -4 18.5 1.5t8.5 13t7 14.5t15 6q1 20 -3.5 35 t-11 26.5t-13.5 19.5t-11 13q1 30 -10.5 53.5t-30 39.5t-41.5 24.5t-47 9.5q-3 -10 -3.5 -13t0 -4.5t2 -4t3.5 -11.5q-9 -6 -15.5 -3.5t-11 9t-7 15t-3.5 14.5q-16 1 -25 -0.5t-15.5 -2.5t-12.5 -0.5t-16 5.5q-10 -17 -19.5 -25t-9.5 -14q-8 -1 -12.5 1.5t-7.5 6t-6 6.5 t-7 5q-19 -13 -39.5 -24.5t-39.5 -24.5t-34 -29t-22 -37q-29 -17 -47 -46.5t-24 -64.5t-1.5 -71zM313 285q-7 -36 12 -65.5t53.5 -50.5t78.5 -31.5t88 -8.5q11 6 25.5 13.5t30.5 12.5t33 7t32 -2q12 26 33.5 48t44.5 43.5t42 45.5t27 53q13 36 9.5 74t-21 71t-48 58 t-71.5 35q0 9 -6.5 17t-15.5 11q-6 -6 -11.5 -4.5t-12 4t-13 3.5t-13.5 -5q-4 16 -17.5 22t-31.5 4.5t-37.5 -9t-36 -18.5t-27.5 -24t-11 -26q-6 -7 -10 -11l-8 -8l-8.5 -8.5t-10.5 -11.5q-6 -14 -10.5 -30.5t-10.5 -31t-13.5 -23.5t-19.5 -7q-8 -20 -11 -40.5t-6.5 -40 t-9.5 -36.5t-18 -30z" />
<glyph unicode="9" d="M136.5 925q-3.5 31 1.5 58t24 47q-9 50 6 100t45.5 96t74 86t91.5 71t96.5 50.5t91.5 24.5q31 9 65 12.5t67 -1t62.5 -18t51.5 -38.5q11 -2 16.5 3t16.5 3q3 -23 27.5 -48.5t57 -49t66.5 -43t56 -31.5q1 -11 -1.5 -21.5t-3.5 -20t3.5 -16t19.5 -7.5q-15 -32 -14.5 -69.5 t8 -78.5t17.5 -83t14 -81q1 -14 -2 -27.5t-7 -27.5t-7 -27.5t-3 -25.5q0 -18 4.5 -35.5t6.5 -34t-2.5 -30.5t-22.5 -23q2 -51 -6.5 -96t-24.5 -85.5t-38 -76.5t-46 -68q-5 -40 -22.5 -70t-42 -56t-54 -49.5t-59.5 -49.5q2 -27 -10 -44.5t-30 -29.5t-36 -21t-28 -18 q-35 4 -62 10.5t-47 19t-32.5 34.5t-16.5 57q133 94 220.5 211.5t141.5 251.5q-6 5 -7 13t-9 10q38 27 45.5 66t5.5 93q-8 -2 -23.5 -1.5t-17.5 5.5q-12 -19 -28 -41.5t-34.5 -42.5t-39 -34.5t-41.5 -16.5q-5 -5 -6 -7.5t0.5 -5t3.5 -6.5t2 -11q-10 -2 -29 -7.5t-38.5 -13.5 t-36.5 -19t-23 -24q-9 -2 -13.5 3t-17.5 3q-7 -18 -25 -20.5t-40 2t-44 11.5t-36 7l-33 -22q-32 5 -58.5 23.5t-50.5 42t-47.5 47.5t-50.5 40q5 32 0.5 66.5t-13 70t-17 70t-12 65.5zM295.5 924q0.5 -46 10.5 -91t32.5 -81t58 -59.5t86.5 -26.5q69 8 123 37.5t99 69.5 t84.5 84.5t80.5 82.5q9 25 11 60.5t-3 74.5t-16.5 79t-30 74t-43.5 59t-57 34q-29 3 -53 1t-44.5 -7.5t-38.5 -13.5t-36 -17q-12 -6 -28.5 -14t-33 -16.5t-31 -17t-21.5 -15.5q-16 -15 -31 -34t-30 -37.5t-29 -34.5t-29 -23q-15 -34 -23 -78t-7.5 -90z" />
<glyph unicode=":" horiz-adv-x="569" d="M184 125q9 17 14 39.5t11 41.5t16 30t29 6q34 18 65.5 13.5t59.5 -13.5q15 -27 13.5 -54.5t-10 -52.5t-18 -46t-10.5 -34q-12 -9 -30.5 -22t-38 -22t-38.5 -9.5t-32 16.5q1 13 -1.5 24.5t-7.5 23.5t-11 26.5t-11 32.5zM186 881q0 33 12.5 64.5t31.5 56t42.5 41t47 19 t43.5 -10t32 -45.5q-5 -31 -5 -49.5t-1.5 -30.5t-8.5 -20t-26 -17q-2 -8 -3 -19.5t-2.5 -22.5t-2 -19.5t-0.5 -10.5q-3 -5 -5 -4.5t-3.5 4t-3 8.5t-4.5 9q-32 -15 -50 -16.5t-31.5 7t-27 23.5t-35.5 33z" />
<glyph unicode=";" horiz-adv-x="569" d="M181 40q0 23 7.5 43.5t22.5 35.5q12 14 14 24t2 19q5 4 20.5 12t32.5 16t31 12.5t17 0.5q22 -5 33.5 -25t16.5 -48.5t5.5 -61t-0.5 -62.5q0 -6 -12.5 -24.5t-18.5 -44.5q-3 -13 -3 -27.5t-11 -34.5q-8 -17 -9 -29t-1 -26q-6 -6 -9 -13.5t-5 -15.5t-4.5 -15.5t-6.5 -13.5 q-6 -7 -19 -18.5t-27 -20t-27 -11t-19 8.5q12 47 19 96.5t18 102.5q-16 14 -20.5 22t-16.5 11q-15 18 -22.5 41t-7.5 46zM182 881q0 33 12.5 64.5t31.5 56t42.5 41t47 19t43.5 -10t32 -45.5q-5 -31 -5 -49.5t-1.5 -30.5t-8.5 -20t-26 -17q-2 -8 -3 -19.5t-2.5 -22.5 t-2 -19.5t-0.5 -10.5q-3 -5 -5 -4.5t-3.5 4t-3 8.5t-4.5 9q-32 -15 -50 -16.5t-31.5 7t-27 23.5t-35.5 33z" />
<glyph unicode="&#x3c;" horiz-adv-x="1196" d="M113 682q4 44 21 72.5t42.5 48t56.5 32.5t62 25t60 25.5t51 34.5q87 21 164 54t153 70t153 72.5t164 61.5q3 -16 9.5 -27.5t13.5 -23t11 -26t1 -36.5q-29 -17 -64 -32.5t-69.5 -32t-65 -33.5t-49.5 -37q-57 -22 -105.5 -44.5t-95.5 -46t-96.5 -48.5t-109.5 -50 q2 -3 2.5 -8.5t-3.5 -11t-14 -10.5t-28 -6q22 -22 52.5 -40t64 -34t68 -31.5t65.5 -32.5q13 -9 26.5 -20t27.5 -20.5t29.5 -15.5t32.5 -5q19 -19 46 -27t49 -14q-2 -8 2 -12t2 -15q45 -5 78.5 -32.5t64.5 -61.5q-3 -22 -20 -8q5 -13 11.5 -21.5t8.5 -23.5 q-17 -7 -28.5 -11.5t-21 -10t-18 -12.5t-18.5 -19q-18 13 -38 22.5t-38 20t-33 23.5t-24 32q-45 12 -82 29.5t-72.5 35.5l-71 36t-75.5 32q-35 28 -71.5 47t-74.5 35t-75.5 32.5t-73.5 39.5q-5 19 -7 26.5t-16 7.5h-16q-7 0 -5 7t4.5 14t0 10t-17.5 -6z" />
<glyph unicode="=" horiz-adv-x="1196" d="M137 885q-3 38 0.5 62.5t5.5 51.5q43 -9 80.5 -4t73.5 13.5t72 15t77 0.5q21 7 37.5 8.5t32 -1t32 -7t38.5 -8.5q34 6 65 8t61.5 0.5t62.5 -5t69 -7.5q10 8 23.5 10.5t27.5 1t28 -6t25 -9.5q6 0 5 6.5t1 11.5q11 0 16 -5t9.5 -10t11 -8t19.5 1q1 -7 -2.5 -14t-8 -14 t-8.5 -14.5t-2 -15.5q4 -7 12 -4.5t15.5 4.5t13 -0.5t6.5 -19.5q-5 -6 -11.5 -10.5t-13 -10.5t-11 -15.5t-5.5 -25.5q-94 -7 -169.5 -1.5t-143 12t-132 10.5t-136.5 -6q-1 -6 -7 -10t-13 -6t-11 -2.5t0 -0.5q-20 9 -47 7t-59 -4t-67.5 1t-72.5 21zM137.5 524q4.5 23 14.5 37 t23.5 20t24.5 9t17.5 6t3.5 10q13 10 33.5 10.5t42.5 -2.5t44 -5t38 3q-1 -4 5.5 -8t14.5 -7q9 -4 21 -7q72 5 157 5h173t173.5 2.5t159.5 12.5q5 -22 11 -42t8.5 -38.5t-0.5 -36.5t-15 -36q-68 -14 -150 -18t-167.5 -4t-170 1t-157.5 -2q-32 -2 -54.5 -7t-38.5 -7.5 t-26.5 0t-19.5 16.5q-12 3 -30 1.5t-39.5 -1t-45.5 5.5t-49 21q-6 38 -1.5 61z" />
<glyph unicode="&#x3e;" horiz-adv-x="1196" d="M154.5 307q-3.5 14 1.5 34t16 39t27.5 33t36.5 17q23 30 45 52t45.5 39.5t49.5 33t56 33.5q0 5 -2.5 5.5t-5.5 0.5q40 12 78 32t76 41.5t78.5 40.5t86.5 29q-9 6 -3.5 14.5t18 15.5t28 11.5t25.5 3.5q-60 12 -114 28t-107 32.5t-106.5 32t-112.5 24.5q-18 23 -46 36.5 t-58.5 24.5t-60 23t-50.5 33q19 12 20 30.5t-2.5 38t-3.5 36.5t18 24q10 3 27 -2t34.5 -13t32.5 -17.5t21 -16.5q11 6 24.5 4.5t26 -8t22.5 -17t15 -22.5q13 1 30 -2t33.5 -8t30.5 -11.5t21 -13.5q10 9 20.5 5t22.5 -12t26.5 -14.5t32.5 -1.5q6 -8 15 -10.5t21 -2t26.5 2 t31.5 0.5q6 -11 10 -13.5t8 -4t9.5 -4t13.5 -13.5q10 10 29.5 8t43 -6.5t47.5 -6t42 10.5q1 -13 5 -19.5t10.5 -9t15 -2t18.5 2.5q6 -13 17 -20t25 -11t29.5 -6t29.5 -6q3 -27 13.5 -44t22 -29t19.5 -22.5t6 -25.5q-22 19 -22 -39q-81 -38 -156 -74t-146 -73.5t-139.5 -77.5 t-136.5 -86q0 -2 -2.5 -4l-5 -4t-3.5 -4t3 -3q-3 -7 -12 -12t-19.5 -8.5t-20 -5.5t-12.5 -2q-15 -8 -22.5 -25.5t4.5 -28.5q-23 -25 -42.5 -34t-40 -12t-44.5 -6t-55 -17q0 2 -6 9t-13.5 14.5t-13.5 14.5t-6 9q-23 -12 -35 -7t-15.5 19z" />
<glyph unicode="?" d="M90 1145q4 43 22 91t48 90.5t70 74.5t88 43q16 2 32 2.5t32.5 1t32.5 3t32 9.5q6 0 6 6t2 11q18 -6 50 -1.5t62.5 9.5t53 6t22.5 -14q52 -1 101.5 -16.5t94 -42.5t81 -63.5t63 -78.5t40 -88.5t11.5 -93.5q-5 2 -11.5 7t-12.5 5q-2 -18 2.5 -39.5t8 -44.5t3.5 -46t-10 -44 q-23 -42 -53.5 -77.5t-66 -66.5t-75 -57.5t-78.5 -50.5q-34 5 -67.5 -10.5t-55.5 -44t-26.5 -67t20.5 -79.5q0 -3 -4.5 -2.5t-9.5 -1.5q4 -6 10.5 -12t11.5 -14t8 -19t1 -27q-8 -5 -18.5 -7t-12.5 -13q-3 14 -12.5 13t-9.5 -21q-10 4 -21.5 3t-22.5 -4t-21.5 -5.5t-18.5 0.5 q-6 1 -8 5l-4 8t-5.5 6.5t-11.5 0.5q0 29 -4.5 49.5t-20.5 32.5q-9 58 -8.5 103.5t14 84.5t41.5 74.5t74 73.5q8 7 24 20t33.5 25.5t33.5 22.5t24 12q26 21 51.5 43.5t61.5 36.5q30 37 48 87t16.5 98.5t-25 87.5t-76.5 54q-9 9 -9 29q-11 -2 -28 0t-33.5 1.5t-30.5 -5 t-20 -19.5q-56 12 -113 4t-106 -31.5t-84.5 -61.5t-46.5 -87q-3 0 -3.5 5t-0.5 10q-2 -16 -5 -38t-8 -36q-10 1 -14.5 -0.5t-7.5 -4.5t-7.5 -5.5t-13.5 -1.5q-11 6 -30 13t-35.5 16.5t-27 23t-5.5 33.5q-1 5 -4.5 4t-8 -3t-9.5 -2t-9 7zM425 119q6 25 20.5 46.5t35.5 37 t45 22.5q37 -3 61 -21t39 -41.5t23 -48.5t13 -42q-9 1 -11 -6.5t-2.5 -16t-4 -14t-15.5 -0.5q-13 0 -15 -8.5t-2 -22.5q-23 -4 -52 -2.5t-56.5 9t-49 21.5t-28.5 36q-7 26 -1 51z" />
<glyph unicode="@" horiz-adv-x="2079" d="M152 381q4 17 5 30t1.5 24.5t2.5 22.5t7 23q-21 74 -13 139.5t28.5 127t44 120.5t32.5 121q30 12 53.5 35t44 50.5t39.5 57t40.5 54t47 41t58.5 18.5q3 14 3 19.5t-1.5 8.5t-4 6.5t-5.5 14.5q31 6 60.5 23t60 35t63.5 31.5t70 13.5q12 5 17 16t7 25q18 4 36.5 2.5t36 -1 t31 6.5t21.5 24q22 -5 33 -8.5t17.5 -4t12 3t17.5 12.5q12 -15 29.5 -16t33.5 2t26 5t9 -8q1 8 12 18.5t23.5 16.5t22.5 3t10 -21q1 -8 8.5 -8.5t17.5 3.5t19 11.5t12 15.5q18 -5 31 -5.5t25 -0.5t26 0.5t35 -0.5q-2 -16 3 -25.5t22 -7.5q4 3 4.5 5.5t0 6t-0.5 8.5t4 13 q18 -9 41 -13t44.5 -9t39 -14.5t24.5 -29.5q14 0 19 9q9 -1 15.5 -4t14.5 -5t19.5 -3t30.5 3q2 -9 3 -13t1 -7t-1 -7.5l-3 -13.5q7 0 12.5 2t10.5 4.5t11.5 3.5t16.5 -1q49 -41 87.5 -78.5t70 -77.5t59 -85.5t55.5 -102.5q1 -11 -1.5 -14.5t-7 -3t-9 3.5t-6.5 5 q3 -18 16.5 -28t24.5 -21q-3 -4 -7 -4.5t-7.5 -2t-6.5 -5.5t-4 -14q-3 -16 6.5 -21.5t26.5 -3.5q-6 -16 -25 -16q25 -26 30.5 -61.5t3.5 -72.5t-5.5 -72.5t4.5 -60.5q0 -15 -4 -11.5t-12 3.5q7 -19 4 -36t-10 -29t-13.5 -19t-5.5 -6q-4 -10 -4.5 -19.5t0 -16.5t2 -11t2.5 -2 q-2 -6 -5 -7t-6 0.5t-4.5 3.5t-0.5 3q-6 -5 -6.5 -15t1.5 -22.5t4 -26.5t1 -28q-28 -12 -33.5 -21t-4 -19t3 -23t-13.5 -31q1 -3 -2.5 -12t-6.5 -18.5t-5 -17t2 -8.5q-4 -12 -7.5 -13.5t-8 2t-10.5 8t-15 3.5q-18 -15 -30.5 -36t-20.5 -46q-49 0 -57 -34q-14 -2 -19.5 2 t-13.5 6q-21 -27 -44 -43.5t-50 -25.5t-60 -10.5t-75 1.5q-8 -2 -13 -6.5t-9 -10t-8 -10t-11 -6.5q-42 4 -65.5 23.5t-41.5 43.5t-37 47.5t-53 35.5q-24 -37 -63 -62.5t-80.5 -45.5t-79 -37.5t-58.5 -39.5q-27 3 -51.5 5.5t-49.5 6t-50.5 9.5t-54.5 16q-10 16 -21 35 t-23.5 37t-26.5 33.5t-30 25.5q-11 45 -14.5 98t-11.5 107q-5 35 -12 70.5t-5 70.5q0 13 11.5 41t26 58.5t27.5 58.5t17 41q5 19 16 35.5t25 21.5q4 49 22.5 74t43 42t52 34t50.5 49q34 -3 60 13.5t48.5 35t44 30t46.5 -2.5q46 16 82.5 14.5t66 -13t53 -29.5t43.5 -36 q0 -4 10.5 -5.5t27 -5t36.5 -9.5t38.5 -18t34 -31.5t23.5 -49.5q-7 -18 -9.5 -30t-5 -20t-7 -12.5t-14.5 -6.5q13 -8 15 -21.5t-2.5 -32.5t-12 -42.5t-11.5 -51.5q-2 1 -5.5 -2.5t-7 -8t-7 -8.5t-6.5 -5q-9 -23 -2 -40.5t13 -31.5t3.5 -24.5t-29.5 -18.5q0 -3 3 -12.5 t6.5 -19.5t6.5 -17.5t3 -5.5q-2 -14 -9 -30.5t-17 -34t-20 -34t-16 -30.5q3 -28 13 -41.5t25.5 -17t35 0.5t40.5 11t43 15t42 13q-2 7 3 10t11 7t10 11.5t1 23.5q5 0 9 -1.5t7 -3.5t7 -3.5t9 -0.5q28 24 46.5 44.5t32.5 42.5t26 47t28 57q2 2 -4 9t-4 15q3 5 14 8.5t13 8.5 q20 61 25.5 117t2.5 103.5t-13 84.5t-21 61q-23 44 -55.5 96.5t-79.5 100.5t-110.5 84.5t-148.5 48.5q-8 1 -23 4t-31 5t-30.5 1.5t-21.5 -6.5q-19 7 -44 10t-49.5 2t-45.5 -6.5t-33 -15.5q-51 4 -78.5 -1t-49 -14t-45.5 -19t-67 -15q-38 -34 -84.5 -56.5t-91.5 -45.5 t-83.5 -53.5t-59.5 -80.5q-32 -21 -54.5 -59t-40.5 -81t-35.5 -86t-39.5 -75q-18 -57 -21.5 -111t-0.5 -107.5t9.5 -106.5t8.5 -107q8 -5 22 -23t26 -39.5t19 -42t2 -30.5q25 -36 60 -75t75 -76.5t82.5 -71t82 -59t74.5 -40.5t59 -14q21 -10 51 -14t61 -5.5t60 -1.5t49 -1 q39 -3 97.5 1t119.5 13t114.5 24t83.5 35q48 5 86 24.5t70 45t61 54t59 53t62 40t72 15.5q-4 12 2.5 18t16 10.5t18 9t8.5 13.5q25 -6 47 -14.5t27 -34.5q-16 1 -16 -4.5t6 -14t11.5 -18t0.5 -16.5q-8 5 -18 7.5t-25 0.5q0 -10 3 -16t5 -1q8 -2 9 -7t-2.5 -9.5t-9.5 -7.5 t-13 0q10 -11 7 -18.5t-13 -13.5t-23 -11.5t-22 -12.5q-8 4 -3.5 7.5t3.5 9.5q-12 1 -16.5 -5.5t-6 -16.5l-3 -20t-7.5 -15q-8 6 -14.5 6t-13 -1.5t-14 -2t-16.5 5.5q-6 -5 -9.5 -11t-6.5 -14q1 -3 0 -13t-5.5 -16.5t-13 -5.5t-22.5 19q-7 -18 -17.5 -25.5t-20 -12.5 t-14 -12.5t0.5 -25.5q-8 -2 -16.5 -2.5t-16 -2.5t-12 -6.5t-4.5 -13.5q-24 6 -43 -3t-34 -24t-26.5 -32t-21.5 -29q-8 9 -23.5 10.5t-30.5 -3t-24 -13t-4 -18.5q-17 -4 -34 -9.5t-32 -12t-26 -13.5t-17 -14q-11 5 -32.5 8t-47 4.5t-52.5 1t-50 -3t-39.5 -8t-19.5 -13.5 q-14 15 -21.5 14t-14.5 -8t-17 -15.5t-29 -8.5v35q-4 -4 -11.5 -5.5t-13.5 -4t-9.5 -8t1.5 -17.5q-30 4 -55.5 8.5t-50 9t-51.5 9t-60 8.5q-1 16 -8.5 24t-16 13t-16 9.5t-8.5 12.5q-6 -3 -10 -7t-9.5 -7t-12.5 -4.5t-17 0.5q-3 18 -11 27.5t-18.5 14t-22.5 6t-24 3.5 q6 6 6 9.5t-2.5 6.5t-6.5 7t-5 10q-15 -12 -22.5 -7t-13 14t-13.5 15t-25 -6q-10 25 -23 31t-24.5 10.5t-19.5 15t-9 43.5q-6 5 -8.5 5.5t-5 -1t-6.5 -3.5t-13 -1q-17 26 -42 51.5t-52 51.5t-53 52.5t-45 54.5t-28.5 58t-2.5 62q-15 15 -20.5 35.5t-8.5 42t-7 44t-15 42.5 q10 1 14 4t5.5 6.5t2.5 7.5t5 7q-4 19 -35 16zM801.5 365q2.5 -14 12.5 -28.5t22.5 -30t19.5 -32.5q42 -11 88 -2.5t90 28t82.5 46t65.5 51.5q3 12 -1 18.5t-8.5 11t-6 8t7.5 11.5q7 1 14.5 9.5t15 18.5t14.5 17.5t13 6.5q3 51 17 96t27 90t18.5 94t-9.5 109 q-12 -2 -42.5 -2t-64.5 -2.5t-64 -11t-42 -27.5q-37 -9 -76 -29t-71 -52.5t-51.5 -77t-16.5 -103.5q-15 -13 -26 -42t-17 -59.5t-6.5 -56t6.5 -31.5q-14 -14 -11.5 -28z" />
<glyph unicode="A" horiz-adv-x="1366" d="M0 141q13 7 15 16.5t2.5 18.5t4.5 16t21 9q2 12 -2.5 19.5t-9 13t-5 11.5t8.5 15q6 -3 10 -1.5t12 1.5q-5 22 -6 37t2 28t11.5 25.5t23.5 30.5q-9 -5 -7 4.5t10 22t20.5 24.5t25.5 14q-18 25 -18.5 45.5t4.5 42t10 45.5t-2 56q4 4 9.5 6.5t10.5 5.5t7.5 8t1.5 15h55 q-8 13 -7 22t6.5 16t13.5 13t14 14q-2 16 -5 27.5t-14 19.5q4 3 8 3.5t7.5 2.5t4.5 8t-1 21q6 -2 8.5 -4.5t4 -6t4 -7t7.5 -6.5q0 7 4 13.5t7 14.5t3 19t-8 26q7 -8 9 -7t3.5 5t4.5 8t12 2q-19 34 -8.5 54t35.5 37q5 4 4.5 16t-0.5 24t5 20.5t21 4.5q-5 32 -4 53.5t21 38.5 q12 -3 15 -8t11 -18q10 4 11.5 10t-1 12.5t-5.5 13.5t-1 15q9 -2 14 -0.5t9.5 4t10.5 4t16 0.5q-1 5 -5 8.5l-8 7t-5.5 9t3.5 14.5q11 -3 17 1.5t14 6.5q-5 14 -8 30t0 38q31 14 51.5 25t36 25.5t27.5 36.5t26 58q9 2 12 -2t11 -6v51q22 8 43 8h5q23 -1 46.5 -8.5t49 -22 t56.5 -32.5q-8 -17 -5.5 -28t7 -20.5t7.5 -19t-3 -24.5q39 -53 63.5 -113.5t47 -120t49.5 -114.5t70 -97q12 6 18.5 9t12 4.5t12.5 1.5t20 2q10 -17 29 -23.5t45 -9.5q-2 -14 -1 -25t4.5 -17t10 -6.5t17.5 7.5q7 -29 -4.5 -46t-29 -30.5t-34 -27.5t-20.5 -35q-5 -25 1.5 -50 t19 -48t28.5 -44.5t31 -38.5q1 -35 14 -65.5t29 -60.5t29.5 -62t15.5 -68q1 -28 14.5 -51t23.5 -46q10 -22 10 -46q0 -27 -26 -61q-11 -3 -17.5 1.5t-4.5 16.5q-9 -4 -8.5 -8.5t2.5 -9t3 -9.5t-6 -10q-7 -2 -17 1t-19 4.5t-14.5 -1t-2.5 -14.5q-37 43 -61.5 88.5t-44.5 94 t-38 100t-42 106.5q-18 15 -31 46.5t-27.5 66t-32 66.5t-44.5 50q-45 -11 -95 -28.5t-102 -35.5t-106.5 -33.5t-108.5 -22.5q-3 -5 -8.5 -7.5t-11 -5.5t-9 -8t-2.5 -14h-10q-32 1 -59 -5q-31 -6 -55 -17t-41 -24.5t-25 -27.5q-1 -1 -5 -2t-8 -3.5t-7.5 -7.5t-2.5 -14 q0 -2 6.5 -9.5t8.5 -4.5q0 1 -5.5 -6t-11.5 -14.5t-11 -12.5t-3 0q-11 -24 -19 -54.5t-16 -63t-16.5 -65t-22 -59.5t-33 -46.5t-47.5 -26.5q-4 17 -16.5 33.5t-28 33.5t-31.5 35t-26 39zM373 692v-6q0 -32 28 -35q33 10 86.5 29.5t112.5 37.5q60 16 116 26q29 5 53 5 q23 0 42 -4q4 9 17.5 17t29 12.5t30.5 5t23 -5.5q-2 42 -25 89.5t-50.5 95.5t-50.5 93t-25 81q-15 1 -21.5 13t-12 26.5t-11.5 29t-19 21.5q-1 -5 -5.5 -12t-10 -13t-11 -10t-8.5 -2q-5 -8 -10.5 -19t-13 -20t-16 -12.5t-17.5 4.5q-30 -39 -53.5 -80.5t-45 -86t-43 -90.5 t-48.5 -94q0 -8 -3.5 -21t-7.5 -26t-5.5 -24t3.5 -17q-8 -2 -13 -7.5t-15 -0.5z" />
<glyph unicode="B" horiz-adv-x="1366" d="M150 1266q1 33 13 54.5t31 37.5t42 28t47 27q7 3 5 10t-7.5 14t-9.5 13t1 8q8 1 20.5 4t27.5 3t31.5 -4.5t31.5 -18.5q23 -1 44 -1q18 0 36.5 0.5t30.5 2.5q44 4 83 6q24 2 49 2h28q38 -2 78 -8t85 -19q8 -11 23.5 -19.5t33 -14.5t33.5 -9t25 -4q37 -16 69.5 -36.5 t62 -43t57 -45.5t55.5 -45q7 -25 13.5 -45t13 -38.5t14 -37t16.5 -40.5q-5 -11 -6 -19.5t-0.5 -17.5t2 -19t0.5 -24q-3 -31 -17 -54t-32 -44l-36 -42t-30 -47q0 -4 3 -6t6.5 -5t5.5 -6.5t-1 -10.5q22 -3 37 -7t33 -6q21 -25 36.5 -34.5t32 -20.5t37 -31.5t50.5 -68.5 q19 -54 19 -105q-1 -20 -3 -40q-10 -70 -46.5 -129t-94.5 -103.5t-127 -67.5q-14 -8 -24.5 -20.5t-24.5 -22.5q-65 -22 -140 -44.5t-151 -36.5q-76 -15 -150 -15h-4q-72 0 -133 23q-7 -3 -12 -3t-11 0.5t-14 1t-20 -1.5q-7 12 -16 16.5t-19 5.5t-20.5 1t-20.5 4 q-51 18 -81.5 38t-48.5 45.5t-28 56.5t-22 71q6 -1 10.5 4t7.5 11.5t5.5 13.5t4.5 10q21 -2 27.5 -1t8 1t4 -2t14.5 -10q0 -13 3.5 -14.5t11 0t18.5 1t26 -11.5q-1 102 -9.5 202.5t-15.5 202.5q-6 102 -8 208q0 11 -1 22q0 96 12 197q1 20 4 31.5t3 21.5t-4 23t-16 36 q-23 0 -28.5 -2t-5.5 -6t-1 -10t-16 -15q-16 9 -24.5 21.5t-14 25.5t-11.5 25.5t-17 22.5zM444 1288q22 -60 26 -126q3 -37 3 -75q1 -30 -1 -60q-4 -69 -10 -141q-4 -53 -4 -106q0 -19 1 -39q29 -7 60.5 -1t61.5 12.5t55.5 9.5t43.5 -10q22 7 36.5 15t27 12.5t25.5 3.5 t32 -13q31 21 65.5 39t66.5 37.5t58 42.5q27 23 41 53q14 29 14 69q0 42 -22 97q-18 6 -36.5 22t-36.5 34.5t-35 37t-33 29.5q-42 24 -83.5 31.5t-82.5 10t-81 3.5t-77 12h-29q-14 -1 -23.5 0.5t-18.5 2.5t-19 1t-25 -4zM480 466q4 -46 11.5 -88.5t14.5 -88.5q6 -40 6 -92 v-15q19 -5 29 -10q9 -4 17 -6q4 -1 8 -0.5t9 0.5q9 2 27 10q21 -5 45 -6q23 0 47 6q50 10 102 25t102 29.5t91 15.5q17 18 39.5 30.5t45.5 26t43 30t32 42.5q7 12 9.5 20t5 14.5t7 14t13.5 18.5q-19 58 -53.5 93t-92.5 61q-84 5 -150 10q-55 4 -108 4h-20q-62 -1 -128 -9 t-147 -28q-6 -44 -6 -80q0 -14 1 -27z" />
<glyph unicode="C" horiz-adv-x="1479" d="M151 700q1 72 31 134q5 6 17 15t20 7q6 32 6 67q-1 3 -1 6v7q0 34 5 68q5 36 22 70t60 61v47q29 17 54 43.5t50.5 52t53.5 44.5t64 21q3 30 14 45.5t25 26t30 20t29 27.5q11 3 25 2t14 -10q10 -2 14.5 2t6 10t3 11.5t6.5 7.5q16 6 33 6q9 1 19 -1q27 -6 53 -13.5t50 -9 t44 17.5q35 -2 64.5 -11t55.5 -24.5t49 -36t46 -43.5q20 -2 30.5 4t22.5 12q28 -4 46 -23t26.5 -45t8 -55t-10 -52.5t-27 -38t-43.5 -11.5q-14 1 -29 17.5t-31 38t-33 45t-35.5 39.5t-39 20t-43.5 -12q-11 1 -23 4.5t-22 8t-16 9.5t-6 10q-46 7 -72.5 7t-45.5 -6t-36 -18 t-45 -30q-16 -8 -16 -39q-30 -8 -59 -29t-56 -50.5t-52.5 -64.5t-49.5 -71q-29 -44 -54 -97t-43 -109q-16 -57 -24 -115q-4 -32 -5 -64q0 -25 3 -49q4 -43 13.5 -95.5t26.5 -106.5t41 -104t57.5 -87.5t75.5 -56.5q30 -13 66 -14q15 0 31 3q38 6 84.5 13t94 16.5t92 22.5 t79.5 32q20 8 35.5 27.5t32.5 30.5q7 4 14 3.5l14 -1t15 1.5t16 10q12 12 25 26.5t28 28.5t31.5 25.5t36.5 19.5q9 4 22.5 2t28.5 5q20 8 36 19t32 19t34 12t42 -1q7 0 8.5 -7t2 -15t3 -14.5t12.5 -4.5q3 -8 3 -15q-1 -12 -9 -23q-14 -18 -40 -37.5t-56.5 -42t-52.5 -50.5 q-23 -26 -48 -51.5t-54.5 -48.5t-65 -43t-78.5 -35q-8 -2 -16 0.5t-13 -0.5q-11 -6 -17.5 -11t-14 -9.5t-17.5 -8.5t-29 -8q-39 -11 -77.5 -23t-76.5 -21t-76 -12q-10 -1 -20 -1q-27 0 -55 6q-68 13 -128.5 37.5t-112.5 61t-94.5 85.5t-73.5 113q-18 57 -40 129 q-24 72 -38 146q-14 70 -13 137v9z" />
<glyph unicode="D" horiz-adv-x="1479" d="M167 1313q-1 11 -1 22q0 17 2 33q3 28 11 51q40 9 79.5 21t81.5 20q35 6 71 6h15q44 -2 93 -20q12 -5 18.5 -1.5t12 8.5t11.5 9t17 2q2 -5 10 -12t5 -16q14 2 23 11.5t22 14.5q12 -5 20.5 -9t17 -7t17.5 -5.5t22 -6.5q9 -2 20 1t25 6t31 4t37 -5q4 -8 10 -14q5 -5 13 -9 t20 -4q14 -3 28.5 -3.5t28 -1.5t25.5 -3t20 -8q12 -10 13.5 -12.5t2 -1.5t4.5 3t19 0q18 -4 36 -17t35 -30t31 -35.5t23 -33.5q31 -20 59.5 -37.5t52.5 -36.5t43.5 -42t33.5 -54q21 -6 34.5 -24.5t21.5 -44t11.5 -54t3.5 -53.5q7 -10 17.5 -14t21.5 -7q-3 -15 2.5 -26 t11 -21t8 -19t-6.5 -20q2 -4 4.5 -4.5l5 -1t5 -3.5t5.5 -11q-9 -22 -5 -44q2 -23 6 -47q2 -16 2 -31v-19q-2 -26 -23 -58q1 -13 1 -27q0 -43 -12 -85q-16 -54 -44.5 -105t-63 -96t-64.5 -84q-30 -6 -64.5 -23.5t-70 -41t-69.5 -48t-62 -43.5q-7 10 -14.5 11t-15 -2.5 t-15 -9.5t-15 -10.5t-14.5 -4.5t-14 8q-8 -15 -27.5 -22t-43 -9t-48 -1.5t-43.5 1.5q-16 -6 -32 -6q-10 0 -20 2q-24 6 -48 17t-48.5 19.5t-51.5 2.5q-23 -24 -46 -33q-19 -7 -36 -7h-8q-21 2 -38.5 12t-29.5 24q-32 -29 -46 -34q-7 -2 -12 -2q-6 0 -11 3q-8 6 -15.5 16 t-24.5 9q4 7 4.5 15.5t-1.5 14.5t-6.5 6t-10.5 -10q0 28 -4 57.5t1 55.5t24.5 45t66.5 25q6 28 10.5 84t6.5 122q2 55 3 112q-1 11 -1 23q0 68 -3 119q-3 41 -12.5 80.5t-9.5 85.5q1 51 7.5 106.5t10.5 107.5q3 38 3 71v25q-2 44 -17 71q-26 -7 -48 -13.5t-41 -10.5t-36 -4 t-35 6q-13 15 -20.5 39t-9.5 51zM561 1020q0 -66 0.5 -131t2 -117.5t2.5 -88.5t2 -44q12 -73 12 -131q0 -8 -1 -17q0 -48 -2 -89q-3 -48 -7 -90q-3 -28 -3 -56q0 -14 1 -29q21 -8 44.5 -12.5t49 -7t51 -4t50.5 -4.5q14 22 40 28.5t55.5 8l59 3t51.5 13.5q20 9 37.5 28 t40.5 31q73 39 121 88t74 110.5t31 137.5q1 22 1 46q0 57 -8 122q-16 35 -31 65.5t-30.5 59.5t-32.5 58.5t-37 62.5q-45 39 -96.5 70t-106 55.5t-112 44.5t-115.5 37q-3 -15 -16 -15q-18 4 -30.5 9t-25.5 7q-6 1 -13.5 1t-15.5 -1q-16 -2 -38 -12q-3 -47 -4 -109t-1 -128z " />
<glyph unicode="E" horiz-adv-x="1366" d="M176 1382q4 18 12.5 24.5t18 5.5t14.5 -3q55 -21 111 -33q36 -8 77 -8q21 0 42 2q84 6 172 19t175 27t172 27t163 19q19 -2 31.5 -7.5t23.5 -11t22 -9t27 -0.5q-2 -12 1 -21t8 -15.5t11.5 -12.5t10.5 -13q-9 -15 -23.5 -23t-29 -15.5t-26 -18.5t-13.5 -33q-29 6 -48.5 -1 t-33.5 -13q-5 6 -4.5 13.5t0.5 16.5q-11 -2 -27.5 -10t-18.5 -20q-46 0 -83.5 -9t-79.5 -24q-5 8 -15.5 8t-24 -3.5t-30 -9t-33.5 -7.5q-23 -2 -46.5 -1t-46 3t-44 3t-39.5 -1q-21 -4 -36.5 -11t-30 -14t-31.5 -10.5t-41 0.5q-19 17 -40 17t-46 -25q12 -12 14.5 -26.5 t2 -29.5t-2 -30.5t1.5 -28.5q3 -11 14 -19t11 -16q2 -8 1.5 -18t-2 -22t-3 -25t-0.5 -25q1 -27 3.5 -57.5t5 -62t4.5 -62t3 -57.5q28 -3 55.5 1.5t57.5 12t63 15t72 11.5q32 4 69 5.5t68 9.5q41 7 85 16q44 10 84 11h6q36 1 64 -13q30 -14 44 -57q-20 -9 -28 -30t-13 -58 q-60 -34 -130.5 -50t-144 -24t-147 -13.5t-139.5 -17.5q-22 -4 -37.5 -9.5t-26.5 -14.5t-19.5 -21.5t-15.5 -29.5q15 -1 13 -14t-6 -28t-3 -27t21 -11q-21 -14 -23 -28t1 -29t5.5 -33t-8.5 -39q18 -14 37.5 -18t38 -5.5t34 -4.5t25.5 -15q68 14 133 20.5t128 10.5t124 7.5 t120.5 11t117.5 22t115 40.5q14 -1 21.5 -7.5t14.5 -15t15 -15t22 -7.5q-15 -17 -19 -30.5t1 -34.5q4 -8 0 -16t-10.5 -14t-13 -8.5t-7.5 -0.5q-6 -19 -7.5 -24.5t-3 -8t-5.5 -8.5t-16 -27q-9 -2 -12.5 1.5t-6 7.5t-7 6t-15.5 -1q-8 -8 -11 -12.5t-5 -9t-5 -10.5t-10 -15 q-20 9 -48 5t-57.5 -10t-57.5 -9.5t-48 6.5q-28 -17 -55 -24t-54 -8.5t-54 0t-54 1.5q-23 0 -48.5 -1l-51 -2t-47.5 -1t-37 2t-33 -0.5t-37.5 -6t-39.5 -6.5q-12 -2 -25 -2q-8 0 -15 1q-28 4 -54 10.5t-52 13.5t-52.5 13t-54.5 8q-11 58 -11 117q0 20 1 40q5 80 16 162.5 t21 165.5q7 59 7 118q0 23 -1 46q-3 0 -6 5t-5.5 10.5t-4 9.5t-1.5 2q4 43 4 89q-1 18 -1 38q-2 66 -9.5 141.5t-19.5 159t-25 178.5q-5 23 -5 38q0 7 1 13z" />
<glyph unicode="F" horiz-adv-x="1251" d="M192 1296q2 24 11 52t22 51q20 3 30 6.5t20.5 7.5t26.5 9.5t48 11.5q31 -9 57 -9t50.5 5.5t47.5 15t48 20.5q2 -15 16.5 -22.5t33.5 -8t38 4.5t31 16q20 0 37 -24q24 11 46.5 11.5t45 -1.5t44.5 0t44 16q39 -8 82 -10.5t87.5 -4t90 -2t90.5 -3.5q24 4 52 0t45.5 -13.5 t18.5 -24t-28 -30.5q9 -17 21.5 -20.5t35.5 -7.5q-2 -18 -13 -20t-21 -1t-14 -2t7 -23q9 -12 0.5 -21t-27.5 -14.5t-46 -8t-56 -1.5q-9 0 -13 4t-6.5 9t-5 9t-9.5 5q-14 -8 -27 -9t-25.5 1.5t-25 5.5t-25.5 4q-8 1 -16.5 -1.5t-17.5 -6l-18 -7t-17 -3.5q-17 0 -33 2.5 t-31.5 5t-32 3.5t-35.5 -3q-34 -5 -67.5 -6t-63 -2.5t-53 -4t-35.5 -10.5q-5 -5 -9 -11.5t-9 -13t-12.5 -11t-20.5 -5.5q-8 -57 -16 -112.5t-12 -109.5q-2 -25 -1 -50q0 -28 2 -56q4 -52 19 -104q4 -3 14.5 -6t21.5 -4t21.5 2t16.5 12q32 3 57.5 5.5t50 5.5t50.5 7t59 9 q7 1 12 5.5t11 9t14 8t20 3.5q27 -2 53 -2l27 1q40 2 86 1q-3 -8 2.5 -14t16 -12t24 -13.5t25.5 -17.5q-22 -48 -61.5 -76.5t-89 -46t-106 -26.5t-113.5 -17t-110 -18.5t-96 -30.5q11 -49 14 -111.5t8.5 -127.5t21 -128t50.5 -114q-12 -29 -30 -48t-52 -30q3 0 -4.5 1 t-16.5 2.5t-15.5 1.5t-0.5 -1q-31 10 -53 43.5t-38 80t-26.5 101t-17.5 106.5t-11.5 96.5t-8.5 70.5q-3 1 -10 1.5t-14.5 0.5h-14.5t-10 2q-8 5 -9.5 11.5t-9.5 14.5q-6 9 -11 9.5t-8 -2.5q-4 -4 -7 -11q-28 18 -38.5 30.5t-13 21.5t-1.5 16t-3 14q-8 14 -12.5 24.5 t-4.5 23.5t3.5 31.5t11.5 47.5h39.5t34.5 2.5t29 9.5t24 21q-6 50 -6 94q1 14 1 27q2 55 6 109q3 52 4 108v9q0 52 -11 114q-38 -14 -61 -14t-35 5q-14 6 -19 19q-5 -1 -15.5 -5t-19 -7t-13 -1.5t2.5 11.5q-23 1 -33 17q-8 14 -9 34q1 3 1 6z" />
<glyph unicode="G" horiz-adv-x="1593" d="M118 574q-1 5 -1 10q0 50 5 98q3 35 5 74t8 76t20 68t41 50q-9 12 -9 24t2.5 25t5.5 27.5t1 32.5q30 9 51.5 31t27.5 59q25 7 43.5 21.5t31.5 33t21 38.5t11 38q12 -8 19 -6t12 9.5t9.5 17.5t11.5 17.5t18.5 10t29.5 -5.5q11 3 15 11t6 18t3.5 21t6.5 20q17 0 27 -4 t10 -21q9 8 17.5 14.5t8.5 22.5q19 -5 35 -5q22 0 39 9q31 16 45 47q44 10 78.5 16t67.5 10t67 5.5t76 3.5q-1 -5 0 -8t2.5 -5.5t3 -6t0.5 -9.5q4 0 15 1.5t23 4t21.5 6t10.5 7.5q7 -16 23 -28t34.5 -22.5t36 -20.5t28.5 -22t12 -26.5t-15 -34.5q-26 -7 -61 -10 q-30 -3 -60 -3h-10q-36 1 -66.5 5.5t-48.5 13.5q-32 -3 -56 -8t-47.5 -11.5t-50 -13.5t-63.5 -14q-10 -6 -18.5 -14.5t-14.5 -16.5q-32 -16 -63 -39.5t-61.5 -51.5t-59.5 -57.5t-56 -57.5q-33 -38 -57.5 -91.5t-39 -116.5t-18.5 -131q-2 -28 -2 -55q0 -40 4 -79 q6 -66 24 -126t48 -106q45 -74 99.5 -112t113.5 -56t119 -23t115 -12q5 1 6.5 5.5t2 9.5t1.5 10.5t6 7.5q15 -9 30.5 -6.5t30.5 6.5t29.5 4.5t26.5 -12.5q24 18 44.5 30t43.5 21t52 15t71 12q-4 4 -8 17.5t-1.5 25.5t15.5 18t45 -6q-13 42 -17 83t-7 80t-10.5 76t-28.5 72 q5 5 11 15.5t10.5 23t8 25t4.5 22.5q-28 12 -63 12q-9 0 -19 -1q-47 -4 -96.5 -19t-96.5 -37t-83 -41q-14 9 -33.5 13.5t-41.5 7.5t-44.5 5t-42.5 7q-6 23 -3 38t7 29t5 31.5t-9 46.5q34 29 80.5 44.5t96 22.5t97.5 8t87 3q4 0 5.5 4.5t2.5 11t1 13t1 10.5q21 1 54.5 8 t67 13.5t62.5 9t41 -5.5q38 10 53 13.5t19.5 3.5t4 -1.5t6.5 -1.5t27 3.5t66 13.5q11 -16 24 -20.5t26 -4.5t24.5 1t19 -4t10 -20t-2.5 -47q6 0 12.5 1.5t21.5 9.5q1 -31 -12 -48.5t-33 -28t-45 -15.5t-49 -10t-45 -13t-33 -24q-13 -16 -13 -42t17 -67q0 -15 2 -37.5 t3 -47.5t0.5 -50t-5.5 -45q5 -3 13 -1t15.5 3.5t13.5 0.5t8 -10q-4 -24 -9.5 -56t-9.5 -65t-4.5 -65.5t4.5 -58.5q-19 -32 -38 -51t-39.5 -30.5t-41.5 -18.5t-44 -14.5t-48 -18.5t-53 -31q-17 5 -42 0t-50.5 -15t-47.5 -22t-34 -21q-54 5 -112.5 5t-117.5 1t-116 5t-108 17 t-93.5 38.5t-71.5 69.5q-30 1 -53 20t-43.5 44.5t-42 51t-49.5 39.5q-19 45 -31.5 95.5t-19 104t-6.5 108.5z" />
<glyph unicode="H" horiz-adv-x="1479" d="M166 186q6 178 7 338.5t3.5 313.5t8.5 305.5t22 316.5q7 -5 11 -4.5t7 3l6 5t9 2.5q49 -27 87.5 -67t57.5 -88q-9 -15 -18 -44t-13 -61t0 -63t19 -51q-13 -19 -15 -53q-2 -21 -1 -44q1 -14 1 -29q2 -39 2 -77q0 -10 1 -20q0 -25 -3 -44q16 -15 40.5 -19.5t52.5 -4t57.5 4 t57 4.5t51 -2.5t38.5 -16.5q28 10 50 12t43.5 -0.5t46.5 -6.5t59 -5q26 1 53 5.5t55 7t57.5 1t61.5 -11.5q8 56 10.5 108t4.5 103.5t4 103.5t8.5 108.5t19 118t35.5 131.5q13 -2 33 -3t40.5 -3.5t39.5 -7t31 -12.5q1 -29 1 -58q0 -52 -4 -106q-6 -86 -12 -174 q-4 -65 -5 -129q0 -23 1 -47q2 -88 23 -174q3 -9 7.5 -11t10.5 -3t13 -3.5t14 -11.5q11 -29 5.5 -49.5t-17 -38.5t-24 -37.5t-13.5 -44.5q-3 -26 5.5 -55t19.5 -60.5t22 -63.5t14 -63q2 -21 6.5 -48.5t8.5 -55t6 -51.5q1 -12 1 -22.5t-1 -18.5q-3 -21 -12.5 -37t-21.5 -29 t-23.5 -25t-16.5 -24q-9 7 -19.5 14.5t-22.5 13.5t-24 9t-22 0q-20 30 -32.5 70.5t-20 85t-12 91t-8 87.5t-8 74.5t-11.5 52.5q-7 6 -7 14t1.5 18.5t2.5 24t-4 29.5q-38 8 -86 12q-46 4 -98 6q-39 1 -79 1q-13 -1 -27 -1h-104q-50 -2 -95 -2h-18q-34 0 -62 2q-6 8 -14 13 t-15 12q-19 -3 -34.5 -3.5t-30 0.5t-30.5 2.5t-36 0.5q-12 -16 -18.5 -40.5t-9.5 -53.5t-3 -61v-62.5v-58.5t-3 -48q3 -12 18 -15t25 -9q10 -4 9.5 -19t-3 -32t-2.5 -32.5t10 -19.5q-11 -37 -28 -59.5t-39 -40t-48.5 -34.5t-56.5 -42q-11 3 -18 5.5t-13.5 5.5t-13.5 7.5 t-19 10.5q0 4 -1.5 15.5t-1.5 25.5t2.5 28t9.5 23q-4 4 -8 13t-7.5 19t-7 19t-6.5 14z" />
<glyph unicode="I" horiz-adv-x="569" d="M194 85q2 10 4 21.5t4.5 21.5t2.5 15q3 3 4 8.5t6 8.5q4 15 4.5 24.5t-1 18.5t-5.5 19.5t-10 25.5q13 90 17 154q2 44 2 83v31q-2 50 -6.5 94t-8.5 97q-2 15 1 32t5 38t1 47t-11 59q-1 28 -1 57q0 36 2 74q2 70 13 164q-11 11 -16 35.5t0 50.5q3 13 3.5 28.5t0 31.5 t-1 30.5t1.5 25.5q6 45 16 65.5t33 20.5q15 -11 25.5 -12.5t17.5 -3t12 -6.5t10 -23q8 8 16 1t13.5 -22.5t9 -36t3 -39.5t-6 -34t-16.5 -18q16 -6 21.5 -10.5t4.5 -7.5q0 -4 -4 -7q-15 -13 -12 -25t9.5 -24.5t9 -25t-12.5 -27.5q10 -10 23 -15q-11 -30 -7.5 -58.5t7.5 -55.5 t2.5 -53.5t-21.5 -51.5q8 -7 10 -17.5t3 -22t3 -21.5t11 -16q-6 -47 -7 -80t0.5 -58.5t4 -48t4 -50t1 -62.5t-4.5 -86q16 -2 17.5 -13.5t-3.5 -25t-12 -24.5t-8 -11q10 -26 10.5 -39.5t-2 -21.5t-5.5 -14.5t-1 -18.5q1 -8 -1.5 -15.5t-3.5 -14.5t2 -13t15 -11q6 -40 11 -73 l8 -56q3 -21 2 -33v-6q-2 -27 -11 -37.5t-18 -19.5q-3 0 -5.5 -1t-4.5 -1q-34 5 -58.5 7t-58.5 7q-20 3 -38 20t-23 36q-1 3 -1 7q-1 4 0 8z" />
<glyph unicode="J" horiz-adv-x="1024" d="M68 233q-1 8 -1 16.5t1 18.5q1 19 0 35q16 9 37.5 13t43 5.5t41 0.5t31.5 -3q6 -17 22.5 -32t24.5 -27q38 -16 60 -34.5t38.5 -34.5t32.5 -26.5t41.5 -10.5t65.5 13.5t106 45.5q17 32 22.5 62t4 58t-6 54.5t-6.5 53t1 53t18 53.5q-2 15 -13 29t-16 20v57q15 15 16.5 27 t-2 22t-9 19t-5.5 20q-1 52 -10 115.5t-22.5 130.5t-29 133.5t-28.5 124.5q-8 -1 -16 -1q-34 0 -72 10q-47 12 -82 39.5t-46 70.5q-4 11 -4 23q0 34 24 77q45 -4 88 -8t86 -6h44h44q45 2 96 10q9 -12 20.5 -9.5t24 7.5t24.5 6t23 -14q16 6 22.5 9t12.5 4.5t15.5 2t31.5 0.5 q6 -10 11.5 -22t12 -23t14 -18t18.5 -6q-3 -40 -8.5 -64t-16 -37.5t-27 -19.5t-41.5 -10q-2 16 -8.5 19.5t-15.5 0t-18.5 -10t-17.5 -11.5t-13 -5t-4 11q-16 -10 -15 -12.5t5 -4t3.5 -5.5t-20.5 -17q7 -67 14.5 -111.5t15 -77t15 -57.5t14 -53t12.5 -64.5t10.5 -92t7 -135.5 t3.5 -194q-8 -21 -7.5 -42t3 -43t3 -44.5t-6.5 -44.5v-122q-2 1 -4.5 -1.5t-6.5 -6t-7.5 -6.5t-6.5 -3q-14 -12 -15 -19.5t2 -13.5t5.5 -12t-4.5 -14q-13 -16 -30.5 -30.5t-37 -25t-39.5 -15.5t-38 -3q-72 -25 -135 -25q-11 0 -22 1q-72 5 -134.5 31t-116 67t-100.5 84 q-2 9 -9.5 21.5t-7.5 17.5q-16 -1 -22.5 9.5t-7.5 26.5z" />
<glyph unicode="K" horiz-adv-x="1366" d="M162 541q-1 8 -1 16q0 12 3 27q18 5 34 22t38 25q3 134 12 261t14 261q1 20 -3 42t-4 43.5t8 41.5t32 35q-5 22 -3.5 38.5t6 32.5t9 34.5t4.5 45.5q17 -5 31 -5.5t27 1t26.5 2.5t28.5 0q8 -17 16.5 -37.5t15.5 -41.5t10.5 -41.5t3.5 -38.5q-6 -48 -18 -100.5t-22 -107 t-15 -109.5q-2 -25 -2 -50q0 -30 3 -59q1 -18 6 -36t10.5 -35t10.5 -34t6 -33q27 11 54 27t53 35.5t49.5 41t41.5 44.5q85 51 160 111.5t147.5 122.5t146 120.5t154.5 104.5q64 -17 94 -33t35 -32.5t-10.5 -34.5t-42 -39t-58.5 -46.5t-61 -56.5q-3 -5 -3.5 -14.5t-6.5 -12.5 q-29 -27 -60 -48t-60.5 -41t-56.5 -42t-48 -51q-6 -1 -10 0t-7.5 2.5l-7 3t-8.5 0.5q-7 1 -8.5 -2.5t-1 -9t1.5 -11t0 -8.5q-56 -41 -112 -77.5t-110 -73.5t-105 -76t-99 -86q28 -9 56 -23t56.5 -29.5t58.5 -30.5t62 -25q6 -3 8.5 -6t4 -6.5t4 -7t8.5 -5.5q25 12 38.5 12 t20.5 -4.5t11 -11t10 -8.5q86 -28 171 -64.5t164 -79.5t147.5 -91.5t121.5 -100.5q-9 -27 -26 -46.5t-37.5 -27t-42 -1.5t-39.5 30q-8 0 -8.5 -5t-2.5 -10q-14 10 -29.5 17t-27.5 16q-10 3 -14.5 3.5t-9 -0.5t-11 -2t-20.5 -1q-25 23 -57 41.5t-65.5 36t-65.5 36.5t-56 44 q-11 -6 -23.5 0t-24.5 14.5t-23.5 16t-20.5 4.5q-8 12 -17.5 15.5t-23 3.5h-31t-41.5 5q-32 7 -65.5 28.5t-69.5 42.5t-73 34q-22 8 -44 8l-30 -4q24 -35 31 -81q4 -29 4 -59q0 -17 -1 -35q-4 -48 -16 -93t-25 -82q-6 -6 -9 -6t-6 2.5t-6.5 6t-10.5 5.5q-5 -6 -5.5 -8.5 t1 -4.5t3.5 -5.5t1 -10.5q-15 0 -23.5 1t-15 1t-12.5 -1.5t-17 -6.5q-33 11 -50.5 33t-25.5 51q-8 30 -8 64v23q0 23 1 46q1 35 2 68.5t-4.5 62t-19.5 49t-42 29.5q-3 23 -11 41.5t-15 36.5t-11 37z" />
<glyph unicode="L" d="M150 578q16 50 20 102q4 47 5 95q-1 5 -1 11q0 52 -4 104q-3 40 -2 79v22q3 32 14 61.5t13 57.5q2 18 0 34t-5 31t-6 30.5t-2 31.5q-1 16 2.5 19t8 3t9.5 3t7 20q3 21 -1.5 45t-8.5 48t-3 47t15 44q31 -6 64.5 -23t58.5 -30q25 -77 26 -160v-18q0 -75 -8 -155 q-8 -90 -18 -190q-6 -65 -6 -135q0 -37 2 -75q-3 -16 5.5 -36t10.5 -40q4 -35 4 -69q0 -23 -2 -45q-4 -56 -8 -111q-3 -39 -3 -77q1 -14 1 -28q2 -52 19 -100q93 22 191.5 40t190.5 26q58 5 111 5q31 0 61 -1q80 -5 136 -29q-2 -12 6 -25q7 -14 15 -28q10 -18 10 -29 t-13 -20q2 -21 -2 -29t-12 -8.5t-18.5 3.5t-19.5 7t-15.5 2.5t-6.5 -10.5q-7 0 -11 2t-7.5 3.5t-8 1t-11.5 -6.5q-10 -1 -16.5 2.5t-13.5 6t-16.5 2t-25.5 -8.5q-10 16 -19.5 17t-22 -3t-29.5 -7t-42 5q-7 -2 -11.5 -6.5t-11 -8t-16.5 -3.5t-28 6q-52 -25 -93.5 -40 t-85.5 -23.5t-96.5 -12t-126.5 -4.5q-9 4 -15.5 12t-13.5 16.5t-15 14.5t-21 8q-46 112 -60 228q-7 61 -8 123q0 54 6 108q-8 15 -11 34.5t-11 33.5z" />
<glyph unicode="M" horiz-adv-x="1706" d="M152 78q15 70 36 143t41.5 148t38 152t27.5 155q11 -2 13.5 3t4 11t4.5 10.5t15 1.5q-4 24 -4 49q0 18 2 37q5 45 15.5 94.5t23 104t21.5 113.5q3 25 0 47.5t0 44.5q4 35 14 63t20.5 54.5t18.5 53.5t10 60q11 -8 15 -5t6 10t5 15.5t11 10.5q1 4 6 7.5t11 2.5t11 -6.5 t7 -17.5q9 -2 13.5 0.5t6.5 7t4 9.5t5 9q88 -15 132 -75t44 -172q5 -7 16.5 -19.5t17.5 -15.5q9 -66 27 -141.5t41 -150t48.5 -143t49.5 -120.5q19 19 36.5 51.5t34 70.5t30.5 78t25.5 74.5t19 60t10.5 35.5q4 13 4 29.5t-1 33.5t-1 33.5t4 30.5q6 19 16.5 39t20.5 39.5 t18.5 39.5t10.5 40q2 12 3.5 19.5t4.5 14t9 15t17 21.5q35 -2 60 -4t44 -12.5t32.5 -34t25.5 -68.5q6 -17 12.5 -25t13 -13t12.5 -11.5t11 -20.5q6 -21 9.5 -32.5t5.5 -20.5t4 -19t4 -28t12 -38t18.5 -40.5t12.5 -39.5t-6 -34q14 -11 18.5 -27t4.5 -35t-2 -38.5t0 -38 t9.5 -34t26.5 -25.5q2 -9 -0.5 -12.5t-7 -5.5t-10 -3t-8.5 -4q18 -8 27.5 -19.5t13.5 -31.5q-4 -12 -14 -15q-5 -2 -11 -1q2 -23 9 -19.5t24 12.5q4 -12 3.5 -34t0.5 -45t8 -41.5t25 -22.5q-9 -10 -10 -19t-1 -17t-1.5 -15t-10.5 -12q3 -5 4.5 -8t3.5 -4.5t7 -1.5t14 1 q9 -12 9 -17t-4 -7t-8.5 -4.5t-4.5 -8.5q4 -9 8.5 -10t9 -0.5t9 0.5t9.5 -8q-18 -4 -16 -12.5t7.5 -18t6.5 -17.5t-18 -11q20 -15 27 -25.5t10 -21l6 -21t14 -25.5h-22q9 -40 28 -71q-5 -1 -7.5 0.5t-5.5 3.5t-6.5 3.5t-8.5 0.5q0 -12 3.5 -18.5t6.5 -12t3 -12t-7 -16.5 q-5 6 -9 2.5t-6.5 -12t-2 -20t5.5 -22.5q-12 6 -30 5t-38 -5.5t-39.5 -9.5t-34.5 -6q-19 14 -25 35t-5.5 45.5t3 51t-1 52.5t-17 49.5t-44.5 42.5q-9 49 -14 87.5t-8 71t-4.5 62.5t-4 62.5t-6.5 70t-12 85.5l-5.5 11t-8 13.5t-10 12t-11.5 6.5q4 2 3.5 25t-3.5 56.5t-8 73 t-10.5 74t-11 59t-9.5 29.5q2 -2 -6.5 -28.5t-18 -60.5t-15 -66t2.5 -46q-4 -11 -10 -15.5t-12.5 -7t-13 -5.5t-11.5 -12q3 -19 3 -37q-1 -27 -7 -54q-10 -44 -29.5 -87.5t-44 -88t-43.5 -92.5v-112.5t-14 -81.5q-4 0 -12.5 -9t-18 -20.5t-16.5 -22t-8 -12.5q-11 2 -17 11 t-12 18.5t-14 16t-23 5.5q-37 46 -65.5 101t-52.5 115.5t-44 124t-40 126.5q-22 49 -42.5 103.5t-39.5 109.5t-34.5 108t-27.5 99q-10 -6 -12 -32.5t-1.5 -57.5t1.5 -58.5t-2 -35.5q-6 3 -9 5t-3 11q-7 -50 -14.5 -90.5t-14.5 -78.5t-12.5 -78t-8.5 -89q-8 1 -10.5 -13.5 t-4 -31t-5 -29.5t-12.5 -10q11 -32 9.5 -58t-9 -49t-19.5 -44.5t-23.5 -44.5t-19 -48t-6.5 -55q-7 -1 -10.5 -5t-6.5 -8.5t-8 -8t-14 -2.5q1 -16 -1 -30t-3.5 -28t-2.5 -29.5t1 -35.5q-28 -19 -47 -51t-33 -66q-14 -4 -26 -4q-11 0 -19 4q-16 8 -28.5 21t-24.5 28.5 t-31 24.5z" />
<glyph unicode="N" horiz-adv-x="1479" d="M160 1360q2 4 10.5 13.5t17 23.5t14 31.5t1.5 37.5q40 -5 76 -23t65 -34q28 -52 60.5 -111t68.5 -117.5t76 -114t82 -101.5q-6 -23 4.5 -45.5t29.5 -45t43 -45.5t44.5 -48.5t33.5 -52.5t11 -58q31 -27 60 -60.5t58 -67.5t58.5 -66.5t62.5 -57.5q17 21 20 57.5t3.5 75.5 t4 74.5t22.5 56.5q7 110 23.5 208.5t29.5 192t15 183.5q0 10 1 21q0 81 -18 165q28 13 49 13t40.5 -6t40 -14t46.5 -9q8 -7 8 -17.5t-0.5 -20t2.5 -16.5t17 -8q-4 -11 -7 -21.5t-12 -13.5q6 -8 14.5 -13.5t10.5 -16.5q-10 -54 -16 -108.5t-13.5 -107t-18.5 -103t-32 -95.5 q1 -38 1 -78q-1 -61 -3 -123q-4 -104 -8 -212t-4 -217t12 -214q-22 5 -32.5 -9.5t-8.5 -31.5q-28 -11 -50 -11q-5 0 -9 1q-24 3 -42 15.5t-31.5 30.5t-26 35t-26 30t-32.5 16q1 15 -12 37.5t-34.5 49.5t-49 58.5t-56 65t-56 68.5t-48.5 69q-27 48 -57.5 89t-62.5 80 t-65.5 78t-66.5 83q-7 16 -12 29t-11.5 23t-18 18t-32.5 14q4 32 -0.5 46.5t-11.5 20t-15 7.5t-12 10q-14 -24 -17 -49t-0.5 -50t8 -48.5t9.5 -45.5q-5 -17 -13 -34t-11 -37q-4 -23 -1.5 -48t7.5 -51.5t9.5 -54.5t4.5 -57q-1 -18 -8 -34.5t-12 -33t-5 -35t13 -41.5 q-6 -15 -11 -38t-6.5 -48t2 -51t13.5 -47q-13 -14 -17.5 -34.5t-6.5 -43.5t-4 -46.5t-9 -43.5q-9 -3 -17.5 -1t-17.5 5t-19 3.5t-22 -5.5q-8 12 -19.5 20.5t-24 16.5t-25 18t-21.5 25q-3 33 -3 64.5t1.5 63t3.5 64.5t2 68q0 31 3 56t6 48.5t4.5 48t-1.5 54.5q-1 7 -2 17 t-2.5 20t-2 18.5t0.5 11.5q1 5 4.5 9.5t7.5 9t7.5 9t3.5 9.5q0 11 -3.5 20.5t-7 19.5l-7 20t-3.5 22q0 13 10.5 27.5t12.5 28.5q1 15 -2 31t-7.5 32.5t-8 33t-1.5 32.5q1 17 5.5 32.5t8 29t3.5 25t-8 19.5q-5 24 -5 48q0 16 2 32q6 39 10 79q2 17 2 34q0 25 -4 49 q-6 42 -34 90z" />
<glyph unicode="O" horiz-adv-x="1593" d="M113 438q1 6 5 10t8 7t7 6t4 8q-15 10 -18 21.5t-1 25.5t6 31t5 37q1 19 -7.5 36t-8.5 31q3 23 15 44t15 44q2 15 1 29t-0.5 27t6.5 25t22 22q-8 27 -2 53.5t16.5 52.5t21.5 52.5t13 52.5q16 6 29.5 14t30.5 14q-11 24 -11 38t5.5 23.5t14.5 16t17.5 15.5t13.5 22t3 35 q7 1 14.5 6.5t14.5 13t13 14.5t9 11q-3 5 -9 4.5t-12 1.5q9 13 22 30.5t29 31.5t34.5 22t37.5 2q-2 3 -5.5 8t-4.5 10.5t2.5 10.5t15.5 8q0 7 8 16q7 8 22 19t44 26q20 -30 27.5 -32.5t9 7.5t1 24.5t3.5 19.5q10 -1 23 -3.5t26 -7t23.5 -11.5t15.5 -17q4 18 5 24.5t3.5 8 t7 1t15.5 5.5q4 -10 13.5 -18t20 -16.5t18.5 -18t9 -23.5q7 1 15 7t16 12.5t16.5 11.5t16.5 4q23 -5 37.5 -3.5t27 5.5t27.5 8t39 6q3 -6 16 -12.5t28 -13t28 -13t16 -12.5q13 9 23 4t19 -13.5t18.5 -15t21.5 1.5q20 -31 50 -59.5t57 -55.5t45 -53t14 -53q7 -6 12.5 -16 t11.5 -19.5t13.5 -17.5t17.5 -10q-1 -10 1 -16.5t3.5 -12.5t2.5 -13.5t-1 -19.5q5 3 9.5 5.5t17.5 -1.5q-8 -19 -6.5 -25t7.5 -9t13.5 -9t11.5 -24q3 -15 -0.5 -22t-9.5 -10q-7 -4 -16 -3q-3 -15 9.5 -23.5t29.5 5.5q9 -37 17 -65.5t12.5 -54.5t4 -52.5t-7.5 -59.5 q0 -4 8 -8q4 -2 9 -4q0 3 -2.5 -10.5t-6 -33t-7.5 -38.5t-7 -27q6 -15 5 -28.5t-6.5 -26t-13.5 -22.5t-14 -17q-11 -12 -16 -28t-9 -32.5t-8.5 -33t-13.5 -31.5q-7 -13 -20.5 -30.5t-29.5 -34.5t-31 -31.5t-25 -22.5q-29 -21 -54 -47.5t-51.5 -50.5t-56.5 -41t-68 -18 q-9 -2 -11.5 -12.5t-8.5 -18.5q-19 1 -37 0.5t-32 -4t-24 -12t-13 -23.5q-36 0 -60 -3.5t-45.5 -8.5t-44.5 -10.5t-55 -8.5q2 8 -1 11t-8 4.5l-10 3t-6 6.5q-23 -17 -54 -17.5t-71 -5.5q3 15 -5.5 19.5t-22.5 4t-29.5 -2.5t-26.5 0v22q-7 -5 -16 -4.5t-17.5 4t-15.5 10 t-10 13.5q-3 0 -11 6t-19 12.5t-24 10t-26 -1.5q-50 39 -84.5 76t-60 79.5t-45 93.5t-39.5 119zM324 596v-23q0 -81 12 -157q20 -48 47.5 -93.5t50.5 -95.5q25 -24 60.5 -40t77.5 -25q40 -8 86 -10l42 -2q24 0 48 2q44 3 85.5 11t75.5 19q13 10 25.5 22t27 22.5t31.5 18.5 t39 11q25 39 59 70.5t65.5 64t54.5 70t26 88.5q8 8 18.5 14.5t10.5 20.5q1 21 1 42q-1 70 -11 142q-14 92 -42 176t-69 153.5t-92 114.5q-57 23 -97 30q-24 4 -43 4q-13 0 -24 -2q-28 -4 -48.5 -16t-39 -26.5t-38.5 -28.5t-48 -22q2 18 -3 23.5t-13.5 4.5t-19.5 -6.5 t-20.5 -10t-17.5 -4.5t-10 9q-2 25 3.5 39.5t8 24.5t-2 17.5t-24.5 17.5q-6 -14 -18 -25t-26 -20.5t-27 -19t-21 -19.5q-3 -3 -5 -10t-4.5 -15.5t-5.5 -17.5t-7 -15q-5 -5 -17.5 -7t-15.5 -7q-46 -69 -78 -153.5t-48.5 -176t-18.5 -184.5z" />
<glyph unicode="P" horiz-adv-x="1366" d="M158 1239q3 4 11 13.5t15 20t8.5 19t-8.5 11.5q10 7 23.5 12.5t27 14t25.5 20.5t19 32q19 15 46.5 31t62.5 27.5t78 15.5q17 2 35 2q28 0 58 -4q14 -2 18 0t7 10q4 2 14 2h9.5h10.5q11 0 21 -3t16 -7q64 10 128 10h34q81 -4 159.5 -20.5t152.5 -43t141 -59.5 q36 -25 68 -60.5t55 -77.5t35 -88q9 -33 8 -66v-25q-4 -44 -28 -85t-71 -73q-15 -45 -49 -76.5t-76 -56.5t-87.5 -45.5t-84.5 -42.5q-31 -36 -74 -49t-89.5 -17.5t-92.5 -9t-82 -22.5q-7 -15 -22 -26t-33 -19t-37 -14.5t-32 -12.5q-3 -26 -3 -52q-1 -19 1 -39q4 -46 13 -91 t18.5 -88.5t13.5 -85.5q1 -29 -11 -53t-34 -40q-24 -17 -56 -24q-16 -4 -34 -4t-37 4q-27 43 -37.5 99.5t-15 116.5t-8 119t-17.5 107q-18 19 -37 33.5t-35 29t-27.5 31.5t-13.5 42q-5 26 18 52.5t60 51.5q-1 -7 2 -10q2 -2 8.5 -0.5t20.5 12.5q21 29 18.5 55t-27.5 52 q1 18 4 29t8 18.5t12.5 12.5t16.5 13q-23 40 -25 92q-1 18 0 35q0 35 3 71q5 54 12 104q5 35 5 63q0 12 -1 22q-11 0 -22 -4t-27 -16q-11 -6 -20 -12.5t-11 -16.5q0 -11 2 -19.5t13 -10.5q-3 -5 -11.5 -10.5t-11.5 -8.5q-9 -2 -17 -4t-16 -10q-30 5 -43 9t-20 9.5t-13.5 13 t-21.5 19.5q7 5 5.5 10.5t-6.5 11t-10 11.5t-5 12zM559 1018q-1 -15 0 -29q-1 -24 1 -42q4 -29 7 -55q4 -31 4 -61t-8 -73q12 -10 10 -21t-5 -22.5t-2 -23.5t18 -23q18 5 29 8t22.5 7t26.5 10t40 18q19 8 40.5 12t50.5 12q5 3 7.5 5t5 4.5t5.5 6t10 9.5q15 12 27.5 13t26 0 t30 0.5t37.5 14.5q26 14 56 26t49 26q27 20 53.5 44t52.5 56q9 11 19 23t19.5 23.5t17 21.5t10.5 18q21 38 21 72v8q-3 38 -25.5 68.5t-60 54.5t-82.5 39.5t-94 22.5q-38 5 -73 5h-20q-30 11 -71 18q-42 8 -85 8h-7q-38 0 -76 -6q-40 -6 -68 -20q12 -28 12 -61q0 -34 -6 -74 q-6 -37 -14 -73.5t-11 -69.5z" />
<glyph unicode="Q" horiz-adv-x="1593" d="M88 690q11 9 14.5 17t3 16.5t-3.5 18.5t-6 24q3 0 8 7.5t10.5 16t10.5 16t8 7.5q-12 4 -12.5 10t1 12t0 11t-13.5 8q6 57 22.5 103.5t39 88.5t49.5 82t55 84q19 19 35 32t31 25.5t29 28t28 39.5q28 2 40.5 15.5t25.5 27.5q4 -6 10.5 -3t13.5 8t13.5 9.5t9.5 0.5 q6 11 20.5 21t32 16t35 6t29.5 -8q25 8 48 16.5t46 15.5t48.5 10t55.5 1q6 2 5 7t1 11q12 -3 34.5 -7t46.5 -6.5t43 -1t24 10.5q21 -8 45.5 -15.5t48.5 -14t45.5 -11.5t36.5 -8q12 -23 35.5 -37t48.5 -27.5t45 -31t23 -48.5q20 -17 36 -35t39 -32q-7 -15 4.5 -40.5 t27.5 -52.5t29.5 -49.5t12.5 -29.5q7 -40 8.5 -78t2 -70t2.5 -56.5t10 -37.5v-15q0 -58 -7 -108q-8 -57 -22 -108t-31.5 -99t-36.5 -98q-3 -1 -9 -2t-12.5 -2t-11 -0.5t-4.5 2.5q1 -7 3.5 -16.5t2.5 -20t-4.5 -20t-17.5 -15.5q-9 1 -15 0t-11 -2.5t-9.5 -3.5t-11.5 -2 q12 -12 12 -35q-23 -6 -28 -16t1.5 -22.5t21.5 -26t32.5 -26.5t33.5 -24t25 -18q34 -21 62 -35.5t52 -29.5t44.5 -35.5t40.5 -54.5q-15 -5 -29 -18.5t-30 -27.5t-35 -24q-17 -10 -39 -10h-4q-12 1 -17 4t-9.5 8t-12 13t-25.5 18q-9 3 -19.5 2t-17.5 2q-26 20 -51 46 t-50 48.5t-50 37.5t-51 13q-9 -12 -27 -20t-38.5 -14t-42 -12t-38.5 -13q-8 -5 -8.5 -13.5t-9.5 -13.5q-15 -9 -40 -15.5t-55 -10t-62 -4.5t-60 0.5t-50 5t-32 8.5q-139 12 -243 71t-176 152.5t-113.5 215.5t-55.5 261zM274 684q-1 -13 8 -30.5t15.5 -32.5t4.5 -23.5 t-24 -3.5q4 -59 18 -95.5t31.5 -65t35.5 -55t30 -65.5q28 -21 56.5 -48.5t61 -50.5t70.5 -36q26 -10 56 -10q13 0 27 2q7 5 21.5 7t31.5 1.5t33 -3.5t26 -7q6 7 23 11.5t37 6.5t40.5 3.5t34.5 3.5q6 5 12 14.5t13 17t15 11t18 -2.5q7 31 -0.5 52t-22.5 37t-34 29t-36 28.5 t-28.5 35.5t-11.5 50q18 9 29 11t20 2t17 0.5t20 6.5q23 3 32 -2.5t13.5 -14t8.5 -17.5t17 -13q20 -6 33 -16.5t25.5 -21.5t28 -19.5t40.5 -9.5q39 59 74 124.5t59.5 139.5t34.5 158q5 38 5 79q0 49 -7 101q-9 64 -30 114t-51.5 88.5t-70.5 66t-88 48.5q19 -32 36 -64 q16 -30 16 -56v-6q-2 -30 -33.5 -55t-110.5 -40q-2 8 0.5 12t5.5 9l-16.5 -3t-9.5 -1t-9.5 1t-17.5 3q1 8 -1 13.5t-4.5 10t-4.5 9t-2 10.5q3 11 15.5 14.5t21.5 9.5q1 39 -9 59.5t-27 32.5t-39 20.5t-46 24.5q-9 -4 -17 -4t-14.5 1.5t-13.5 2.5h-7h-7q-29 -7 -54.5 -26.5 t-48.5 -42t-42.5 -42.5t-35.5 -26q-2 5 -4 9q-4 7 -6 5q-12 -15 -14 -32.5t-10 -34.5q-6 -13 -19 -19t-27.5 -10t-29 -9.5t-23.5 -18.5q-8 -11 -16 -24.5t-15 -27.5t-13.5 -27.5t-12.5 -23.5q-1 -2 -5.5 -2.5t-9.5 -0.5t-10 -1t-6 -2q-2 -3 -4 -10t-4.5 -15.5t-4.5 -17 t-3 -14.5q-3 -12 -5.5 -26.5t-4 -30t-2.5 -31t-1 -27.5q-10 0 -13 -5.5t-1.5 -15.5t7 -22.5t12.5 -26.5q-8 -5 -13.5 -7t-10.5 -2.5t-11.5 -1t-16.5 -1.5z" />
<glyph unicode="R" horiz-adv-x="1479" d="M162 1309q16 7 35.5 6t36 0t28 6t12.5 22q22 9 47.5 12.5t50.5 9t47.5 15.5t39.5 33q22 4 44.5 4t44 1.5t40 7.5t33.5 22q13 -6 24 -6t21.5 1.5t21 1.5t21.5 -5q12 0 14 8.5t2 17.5q42 -2 84 -2h27q37 1 73 1q18 -1 36 -1q53 0 103 -4.5t95 -18.5t83.5 -40t69.5 -68 q26 -8 49 -19t38.5 -26.5t23.5 -37.5t4 -50q3 -8 7 -6t8.5 5.5t9.5 5.5t10 -7q6 -11 3 -21.5t-9 -21l-12 -21t-7 -22.5q-2 -3 0.5 -5t5.5 -4.5t5.5 -5.5t1.5 -7q-12 -60 -42 -114.5t-72.5 -104.5t-95 -94t-109 -82t-114.5 -69t-112 -55q19 -10 36.5 -18.5t36 -15.5t40 -13.5 t49.5 -11.5q51 -9 92.5 -31.5t78.5 -51t71.5 -59t70.5 -55.5q21 -15 38.5 -30.5t34.5 -31.5t35.5 -32t41.5 -33q-14 -11 -15.5 -21.5t17.5 -16.5q-5 -23 -16.5 -29t-24 -9.5t-24 -10t-15.5 -29.5q-34 4 -62 21.5t-52.5 40.5t-46 49.5t-42.5 49.5q-29 6 -54.5 23t-51 36 t-53.5 37t-62 27q-2 -9 -17 -14.5t-24 -7.5q-18 14 -38.5 22.5t-39.5 16.5t-35 16.5t-24 22.5q-19 -1 -38 -1q-46 0 -88 4q-58 5 -108 6h-10q-46 0 -86 -8q-46 -9 -90 -40q18 -39 24 -84.5t6 -90.5t-3.5 -87t-4.5 -76q-29 -3 -56 -14.5t-38 -20.5q-53 21 -74.5 56.5 t-27.5 77.5q-4 31 -4 63q0 11 1 23q1 13 1 25q0 30 -4 58q0 12 -7.5 23t-9.5 20q-9 55 -9 109q0 8 -1 15q0 46 3 92q3 54 8.5 107t8.5 107q3 93 12 185.5t27 185.5q-11 -6 -15 -7.5t-8.5 0t-13 4t-28.5 3.5q-13 19 -19.5 37.5t-10 38t-5 40.5t-4.5 46zM396 600q3 -8 12 -4.5 t16.5 6t13 -2t2.5 -26.5q84 37 163 66t151.5 59.5t139 67.5t127 90t115 126t103.5 177q-18 43 -60 68t-94 37t-107 12q-5 0 -10 1q-49 0 -89 -5q-18 2 -36 2q-29 0 -55 -4q-43 -6 -83.5 -18.5t-81.5 -27t-86 -26.5q-10 -4 -15 -3t-8 3.5t-5.5 5.5t-6.5 4 q-16 -14 -22.5 -19.5t-8 -7t0 -1t0 -0.5t-7 -6t-20.5 -17q17 -21 23.5 -35.5t6 -27.5t-5.5 -25.5t-10 -28.5t-7.5 -37.5t2.5 -52.5q-5 -5 -7 -11.5t-4 -12.5t-5.5 -10t-12.5 -5q-9 -34 -12 -70t-4 -74.5t-3 -80t-9 -86.5z" />
<glyph unicode="S" horiz-adv-x="1366" d="M102 393q12 1 29.5 11.5t36 20t36 13.5t29.5 -8q3 -30 14.5 -46t24.5 -27t24.5 -23t14.5 -33q30 -8 51 -20.5t39.5 -28.5t37 -34t42.5 -36q11 2 22.5 5t22.5 2t20 -6.5t15 -20.5q6 0 14.5 7t10.5 13q4 0 10 -3t12.5 -4.5t11 1.5t5.5 14q6 2 10 -5.5t10 -16.5q33 22 67 24 q13 1 25 0q20 0 41 -2l66 -8q11 -1 22 -1q22 0 43 5q7 3 20.5 12l30 20t33.5 22.5t31 19.5q-4 15 -7 26q-2 10 -3.5 18t0.5 9q6 1 16 3.5t20 7.5t18.5 14t10.5 24q2 10 2 20q0 28 -13 52q-17 32 -45.5 56.5t-62 44t-61.5 36.5q-23 13 -51.5 34t-52.5 32q-13 5 -32.5 5 t-27.5 3q-12 8 -23 22t-28 23q-8 4 -17.5 1t-18.5 -7.5t-17.5 -7.5t-14.5 0q-24 11 -52.5 19t-58 16.5t-57 19.5t-49.5 27q-38 6 -61.5 19t-41 30.5t-33.5 39t-38 44.5q-20 45 -39 95q-18 49 -22 107q-1 9 -1 18q1 50 17 107q20 67 76 146q38 25 73 38t68.5 23.5t66.5 24 t68 41.5q-1 -5 2.5 -9t8.5 -7t10.5 -5t9.5 -2q18 14 37.5 18t40 2t42 -7.5t44.5 -10.5q11 16 34 19t52 -1t61 -12t61 -14.5t52.5 -8.5t34.5 7q7 -5 16.5 -15t20.5 -20.5t23.5 -18.5t25.5 -9q23 -8 45 -36.5t36.5 -66.5t20.5 -80q3 -18 3 -35q0 -22 -5 -42q-8 -35 -32 -57 q-22 -21 -61 -21h-7q3 15 3 29q0 30 -12 54q-17 36 -47.5 64t-68 50t-70.5 42q-28 5 -67 10q-40 6 -84 8q-32 2 -65 1h-27q-48 -1 -91.5 -8t-82 -21t-64.5 -37q-28 4 -45.5 -16.5t-27 -52t-11.5 -66.5t2 -59q40 -54 74 -82.5t63.5 -41t57 -14.5t54.5 -3.5t55 -9t59 -29.5 q11 -2 14 3t6 3q17 -17 37.5 -27t42 -16.5t43 -11.5t41 -12t34.5 -19t25 -31l38 -4t34.5 -7.5t26 -15t14.5 -24.5q44 -23 81.5 -58t64.5 -74t40 -79q10 -30 10 -55q0 -8 -1 -15q-4 -28 -3 -48t3 -37.5t4 -33.5v-11q0 -12 -2 -25q-1 -6 -9 -16.5t-18 -21.5t-19 -21t-10 -15 q0 -3 1 -10.5t6 -12.5q10 -8 5.5 -10.5t-14.5 -3.5t-20.5 -1t-11.5 -1q-2 -3 -2 -9t0.5 -12.5t0.5 -12t-1 -7.5q-26 -38 -63 -63t-81.5 -40.5t-95 -22.5t-103.5 -9q-3 -2 -3 -7.5t-5 -5.5q-19 -2 -37 -2q-16 -1 -30 1q-32 2 -63.5 5t-62.5 3t-61 -9q-12 8 -28.5 17t-34.5 15 t-35.5 6t-30.5 -9q-35 25 -71 43.5t-70.5 38t-64 43t-50.5 57.5q8 0 11.5 6.5t3.5 12.5q-11 8 -23 12.5t-24 7.5v20t-2 17.5t-7.5 10t-17.5 -2.5q10 26 6.5 38t-11.5 22t-15 22q-4 8 -4 22q0 8 1 19z" />
<glyph unicode="T" horiz-adv-x="1251" d="M66 1358q2 20 9.5 33t15.5 23t9 28q34 -7 51.5 -2.5t29 10.5t23 7.5t33.5 -11.5q34 18 64 19.5t57 -4.5t51 -16t47.5 -14t46.5 2.5t48 32.5q19 -5 36.5 -4.5t32.5 -0.5t26 -6.5t17 -22.5q15 -1 23 3.5t13 8t8 3t8 -10.5q18 4 33 12.5t28.5 12.5t24.5 0t20 -23 q12 17 32.5 19.5t43.5 1t43.5 -2.5t32.5 10q14 -24 33 -28t34 28q2 -5 8 -4.5t11 -0.5t8.5 -6.5t1.5 -20.5q28 21 55.5 16t52 -24t45 -45t35.5 -48q-1 -16 -9.5 -23.5t-20 -12.5t-22.5 -10t-17 -15q-60 14 -116 16q-23 1 -45 1q-34 0 -69 -2q-58 -3 -120 -7q-50 -4 -104 -4 h-25q-9 -6 -6 -25.5t7 -43t4.5 -44.5t-12.5 -30q6 -81 7 -148t2.5 -132.5t5 -133.5t14.5 -150q2 -9 -2 -14t-10 -9t-11.5 -8.5t-5.5 -11.5q9 -65 11 -125t3.5 -118t6 -116.5t16.5 -121.5q-8 -6 -11 -10t-5.5 -7.5t-5 -8.5t-8.5 -13q-23 -6 -42 -6q-31 0 -53 16 q-36 26 -55.5 76t-27 114.5t-11.5 125.5q-4 72 -6 144q-1 40 -1 79q0 31 1 61q1 22 4.5 41t5.5 37t0.5 36t-10.5 38q9 58 11.5 119.5t3.5 125t3 128t11 127.5q-45 15 -92 17q-16 1 -32 1q-33 0 -65 -3q-50 -4 -103.5 -10t-113.5 -7q-6 2 -13.5 8t-16 12t-17 10.5t-16.5 3.5 q-8 30 -8 49v9z" />
<glyph unicode="U" horiz-adv-x="1479" d="M194 884q0 8 -1 16q0 64 4 124q2 34 2 65t-2 60q15 32 20 68.5t6.5 75.5t3.5 81t11 86q7 -2 15 1q7 3 13 4h3q3 0 5 -2q2 -3 0 -15q28 15 49 16.5t38.5 -2.5t32.5 -10t32 -4q4 -44 5 -92q-1 -31 -3 -63q-4 -83 -12 -171q-8 -90 -14 -182q-4 -52 -4 -104q0 -40 3 -80 q4 -76 12.5 -149.5t20.5 -139.5q10 -46 24 -92t32.5 -89t41.5 -81t52 -68q11 0 14 -8q40 0 67.5 21t48.5 51.5t38 64t36 58.5q7 9 20.5 21t28 24.5t27 25t17.5 21.5q52 109 88 226.5t61 248.5q28 130 39 268.5t21 288.5q17 15 40 17q8 1 16 1q16 0 34 -3q26 -4 53.5 -11 t52.5 -10q16 -39 20 -76.5t4 -75.5v-78q0 -3 -1 -6q0 -37 6 -78q-2 -5 -7.5 -12.5t-12 -15t-14 -13t-11.5 -6.5q2 -99 14 -217t23 -256q1 -26 2.5 -55.5t3 -58t5 -55t9.5 -46.5q9 -29 4.5 -60t-8 -60t1 -55t31.5 -46q8 -37 8 -64q0 -22 -4 -39q-4 -19 -15 -33.5t-26 -27.5 q-12 2 -25 6.5t-27 7.5t-28 3.5t-27 -5.5q-42 9 -59 36.5t-23 64t-8 78t-14 80.5q19 27 23 59t1.5 61.5t-7.5 53.5t-3 36q-23 -25 -43 -62.5t-39 -80.5t-39.5 -88t-44 -84t-52.5 -69t-66 -42q0 -8 -4 -17t-9 -18t-11.5 -17t-10.5 -13q-27 -11 -52 -15.5t-48 -6t-45 -1 t-44 -0.5q-5 14 -23.5 19t-38 8t-33.5 7.5t-9 17.5q-41 3 -74 26t-60.5 54t-50 64t-42.5 56q2 25 -3 50t-12.5 51t-14 52.5t-7.5 55.5q-11 14 -17.5 31t-17.5 27q1 10 5.5 27t9.5 33.5t10.5 30t7.5 15.5q-31 67 -40.5 139.5t-9.5 144.5z" />
<glyph unicode="V" horiz-adv-x="1366" d="M8 1288q7 6 13.5 10t10.5 10.5t4 16t-5 25.5q23 -7 46.5 -9t46.5 -3.5t46.5 -6t46.5 -16.5q11 -35 19.5 -60.5t31.5 -48.5q-6 -11 -1 -28t11.5 -34.5t10.5 -32t-4 -21.5q12 -15 26.5 -38.5t28 -51.5t22.5 -58t11 -57q18 -35 34 -57t31.5 -43.5t31 -48.5t30.5 -70 q34 -43 53 -88t35 -90t33.5 -88.5t48.5 -82.5q17 20 23.5 37.5t10.5 35.5t8.5 37.5t16.5 43.5q9 25 23.5 48.5t29 46.5t26 44.5t15.5 42.5q13 57 36 115.5t38 118.5q9 28 27.5 53t29.5 47q28 69 51 130.5t41 119t31.5 114t22.5 115.5q14 -4 34 -3.5t42 -1t43.5 -7 t37.5 -20.5q7 -32 7 -64v-18q-2 -40 -13.5 -81.5t-30 -84.5t-40.5 -88q-11 -84 -38 -165.5t-61 -160t-69.5 -154t-63.5 -147.5q-14 -28 -21 -55t-14.5 -53.5t-20.5 -53t-38 -51.5q6 -5 8.5 -19t-2.5 -26q-28 -23 -47.5 -53.5t-38.5 -60.5t-41 -57t-53 -42q-15 6 -34 10.5 t-37.5 10t-34.5 13.5t-25 21q-35 96 -69.5 188.5t-78.5 186.5q-14 22 -23 51.5t-22 55.5q-2 5 -6 7.5t-8.5 4.5t-8.5 5t-7 9q-8 13 -10.5 35t-12.5 41q-9 23 -24.5 49t-32 52.5t-31.5 51.5t-22 46q-5 12 -3.5 21t-3.5 22q-8 12 -21.5 20.5t-21.5 24.5q-11 19 -18.5 42.5 t-14 47.5t-13 46.5t-13.5 39.5q-8 18 -18.5 32t-12.5 29q0 5 -0.5 14t-3.5 15q-1 4 -5 9.5t-9 11.5t-9.5 12t-7.5 12q-2 7 0.5 15t4 15t-0.5 12.5t-14 8.5z" />
<glyph unicode="W" horiz-adv-x="1933" d="M30 1402v9v10q1 10 4 27q11 -2 28 1t35.5 7t36.5 6q12 2 22 2h7q36 -32 47.5 -59.5t17 -55.5t13.5 -58t38 -66q20 -83 52.5 -161t66 -154.5t64 -152t47.5 -153.5q28 -35 43.5 -82.5t30.5 -94.5t37.5 -86.5t64.5 -59.5v18q-1 79 15 151q18 82 41 161.5t46 160t31 166.5 q6 0 16.5 -2t16.5 -14q-5 22 -5 43q0 16 3 32q7 35 19 71t24 76q11 37 10 81v8q19 -3 30 0.5t19.5 10t16.5 13.5t20.5 12t32 6t51.5 -5q22 -78 35.5 -154.5t27 -148.5t32.5 -140t52 -129q3 -50 18.5 -102t37.5 -103t47.5 -99.5t46.5 -92.5q12 4 24 16t20.5 28.5t13 35.5 t1.5 37q34 31 52.5 71t32.5 83.5t28 86.5t39 80q12 98 32.5 183.5t39.5 166.5t32 161q11 69 11 144v23q13 1 23 -2.5t18.5 -9t17.5 -11t20 -8.5q17 22 36.5 25.5t31.5 -10.5q-3 -19 9 -26.5t28 -2.5q4 -2 4.5 -7.5t1.5 -12.5t4.5 -13t13.5 -8q-11 -34 -12 -73t-2 -77.5 t-7 -72t-28 -55.5q3 -13 6 -25t2.5 -22t-6 -17.5t-18.5 -11.5q-9 -82 -27 -161t-41.5 -158.5t-50 -160.5t-51.5 -167q-21 -23 -36.5 -51.5t-29.5 -59.5t-28.5 -61.5t-33 -56t-42.5 -44t-57 -24.5q-26 5 -44 12t-35.5 13t-38 9t-50.5 1q-56 45 -91.5 110t-58.5 144 q-9 7 -14.5 17t-11 20.5t-11.5 20t-16 15.5q2 22 -8 42.5t-20.5 38.5t-15 35t10.5 32q-8 15 -15 22t-18 17v15.5t-1 33t-3.5 41t-6 40.5t-8.5 32t-11 14q-10 -35 -23.5 -91.5t-25 -118.5t-18.5 -121q-4 -38 -4 -67q0 -17 1 -30q-18 -41 -31.5 -83t-28 -83.5t-32 -82 t-43.5 -77.5q-18 -4 -35 -4t-32 4q-29 8 -48 35q-6 -5 -17 -2.5t-22 4.5q-3 5 -5 11t-5 10t-9 6t-18 0q-2 8 0 13.5t4 10t4.5 9t2.5 10.5q-13 6 -24.5 12.5t-22.5 15.5q8 15 5 26.5t-12.5 18.5t-23.5 9t-27 -3q7 19 -6.5 35.5t-30 33.5t-26 37.5t5.5 49.5q-22 5 -32.5 23 t-22.5 32q1 18 1.5 26t-1 11t-7.5 3.5t-18 2.5q-2 18 -5.5 31.5l-7 27t-5 28.5t1.5 36q-20 15 -33.5 42.5t-24 59.5t-20 64t-21.5 58q12 -6 14.5 -5.5t2.5 4t2 7.5t14 6q-3 9 -8.5 12t-12.5 3t-13.5 -1t-10.5 0q12 15 14.5 23.5t2.5 14.5t-0.5 13t4.5 19q-12 5 -15.5 5 t-6 -3t-6 -6t-13.5 -4q3 21 -6.5 38t-19.5 34t-14.5 35.5t7.5 41.5q-7 4 -9.5 10.5t-5 11.5t-7.5 7t-17 -4q1 5 3 15.5t1 20t-7.5 17t-21.5 6.5q12 25 6 44.5t-13.5 37t-8 33.5t21.5 33q-2 -2 -4 -3t-6 -1.5t-12 -0.5t-23 2q12 9 9 20.5t-9 22.5t-9 20.5t9 14.5q-3 9 -6 13 t-6 5t-7.5 1t-10.5 2q-1 17 -2 27t-2 19z" />
<glyph unicode="X" horiz-adv-x="1366" d="M26 86q0 4 -1 9q0 22 7 44q8 27 26 52t46 42q-3 4 -8.5 5.5t-5.5 7.5q30 9 43 25.5t22 35.5t20.5 37.5t39.5 30.5q-8 18 -0.5 28t18 19t19 19t4.5 28q7 5 10.5 5.5t6.5 -0.5t7 -1.5t13 4.5q7 43 32 82t56.5 75.5t62.5 71t50 68.5q-18 45 -38 76.5t-42 55.5t-45 44.5 t-46 43.5t-45 51.5t-42 70.5q-29 36 -62.5 69.5t-61.5 68.5q-28 36 -44 75q-13 30 -12 65q0 10 1 21q15 9 31 19.5t34.5 19t39.5 11.5q7 1 14 1q15 0 31 -4q18 -59 61.5 -107.5t106.5 -80.5q-14 -16 -14 -27.5t8.5 -21t21 -18.5t23.5 -19.5t17 -23.5t1 -31q17 13 25.5 8.5 t11.5 -14t1.5 -18t-3.5 -3.5q19 -25 28 -33t20.5 -11t30.5 -5.5t58 -16.5q-5 -6 -2 -21t9 -31.5t14 -31.5t14 -20q31 20 53 45.5t44 52.5t48 53t66 46q-5 21 -1.5 35.5t12 25.5t20 19.5t22.5 17.5t20.5 19.5t14.5 25.5q16 -2 22.5 6t11 17.5t11 18.5t23.5 11q-3 21 4 32.5 t17 20t19.5 17t12.5 22.5q20 2 36.5 2.5t31.5 -2.5q29 -5 52.5 -12.5t42.5 -14t38 -5.5q6 -7 3 -19.5t-7.5 -26t-7 -25.5t4.5 -18q-19 0 -28.5 -4.5t-14.5 -12t-9 -18t-11 -22.5q-6 -6 -18.5 -12t-25.5 -11.5t-24 -10.5t-14 -9q-5 -8 -5 -13t1.5 -9.5t1.5 -9.5t-6 -13 q-2 -3 -7 -5.5t-11 -4.5t-11.5 -4t-7.5 -4q-18 -20 -26.5 -32.5t-13.5 -23t-11 -20.5t-21 -23q-40 -40 -80 -82.5t-84 -83.5q-2 -5 0.5 -7t5.5 -5t4.5 -7.5t-1.5 -12.5q-42 -29 -48 -61q-2 -10 -3 -20q1 -22 11 -45q14 -33 42.5 -67.5t58 -70t52 -70.5t24.5 -70 q28 -10 49 -26.5t38.5 -37t33.5 -42.5t33 -42.5t37.5 -37.5t47.5 -27q0 -9 -5 -10.5t-13 -3.5q9 -8 21 -13t24 -10.5t22.5 -11.5t16.5 -16q-12 -5 -15 -9t-3 -8.5t0.5 -10.5t-3.5 -13q-22 -10 -37 -19t-29 -15.5t-30 -11.5t-41 -8q-79 53 -143 121t-122 141t-115.5 144.5 t-123.5 132.5q-22 -7 -40.5 -34.5t-37 -60.5t-38.5 -63.5t-45 -42.5q2 -29 -5 -51.5t-20.5 -41.5t-32 -35t-37.5 -31q-19 -36 -40 -71t-47 -66.5t-59 -58t-75 -46.5q-2 12 -15.5 16t-26 7t-17.5 7.5t10 18.5q-10 1 -16 -0.5t-11 -3t-10.5 -2.5t-13.5 0q-11 17 -13 43z" />
<glyph unicode="Y" horiz-adv-x="1366" d="M12 1458q9 0 22 2.5t24 3.5q6 1 10.5 1t8.5 -1q8 -1 7 -8q30 4 55 4t45 -4q38 -10 61 -30.5t36.5 -48t27.5 -56t33.5 -54t54.5 -40.5q21 -45 47 -80t53.5 -68t54.5 -66t50 -73q28 -15 48.5 -37t39 -46t39.5 -46t51 -37q27 26 46.5 51.5t34.5 50t27 50t23 51.5h25 q-1 22 6 36.5t14 26t10 22.5t-5 25q17 6 24 15.5t9 21.5t1 25.5t0 26.5t13 26t26.5 24.5t26.5 20.5t14 15q4 18 15 40l23.5 47t23.5 50.5t14 50.5q16 1 25 0t16 -2.5t14.5 -3.5t20.5 -2q18 -24 23 -50q6 -23 6 -46q0 -26 -5 -54q-4 -25 -6 -47q-7 -57 -35 -110t-63 -104.5 t-69 -101.5t-52 -100q-3 -11 0.5 -24t-0.5 -21q-9 -23 -29.5 -54t-42.5 -66t-42 -71t-29 -69q-3 -8 0 -16t0 -14q-5 -12 -13 -22.5t-16.5 -20.5t-16.5 -19.5t-14 -19.5q-28 -70 -67 -137t-70 -136q-5 -11 -11.5 -15.5t-12 -8.5t-9.5 -10.5t-4 -20.5q-21 -2 -32.5 -10 t-19 -19t-13.5 -22.5t-15 -20.5q-16 4 -27.5 4t-22 -2.5t-21 -6.5t-25.5 -7q-14 25 -33.5 41t-48.5 29q1 11 7.5 18.5t15 13t17.5 10.5t15 11q13 46 36 81t73 70q-5 24 1 41.5t15 34t18.5 34.5t12.5 42q9 6 13 4t12 -4q0 18 8 35.5t19 36t24 40t24 48.5q-26 24 -59.5 51 t-67 57.5t-62.5 66t-46 75.5q-50 55 -101 112t-101 116t-97 120.5t-88 126.5q-9 15 -22 31.5t-24 34.5t-18 39q-4 15 -4 32v10z" />
<glyph unicode="Z" horiz-adv-x="1251" d="M41 111q9 22 17.5 46t17.5 44.5t19.5 35t23.5 17.5q8 31 18.5 53t23.5 39.5t29 32.5t37 31q0 6 -4.5 6t-9.5 2q11 7 18 20.5t14.5 26.5t17.5 22.5t28 10.5q11 24 22.5 50t25.5 49.5t32.5 43t44.5 31.5q-3 9 -4 13.5t0 8t2 9t2 16.5q32 13 51.5 41t36 58.5t35 57.5 t49.5 39q8 32 19.5 52t25 34t27.5 25t27.5 24t25.5 31.5t20 48.5q35 31 62 64t49 80q1 -2 7 -0.5t13 4l14 5t11 3.5q-2 5 -8.5 9.5t-6.5 11.5q-57 5 -106 5h-16q-41 0 -81 -2q-48 -2 -97 -8.5t-105 -15.5q-4 0 -15.5 -2t-24 -5t-22.5 -6.5t-10 -6.5q-8 7 -15.5 4.5t-15 -6.5 t-16 -5.5t-18.5 7.5q-7 -2 -4.5 -5.5t6.5 -7t5.5 -8.5t-7.5 -10q-23 1 -44 1h-20h-58t-56.5 4.5t-59.5 16.5q-7 14 -7 31t3 34t6.5 33t3.5 27q17 3 39.5 13.5t46.5 16.5t47.5 3.5t42.5 -24.5q13 4 10 9.5t-3 20.5q12 1 24 -1t23 -1t19 7t13 22q17 -10 38 -8t43.5 5t45 4 t43.5 -11q8 -2 11.5 0t5 5.5t2.5 8t4 6.5q20 -12 32 -11.5t23 3.5t25 3.5t37 -11.5q9 7 21.5 13.5t24.5 9t22 -1.5t14 -19q5 0 4.5 8t-0.5 14q20 -9 46.5 -11.5t45.5 9.5q0 -9 -3 -14t-3 -14q7 9 19 16.5t24.5 10t24.5 -1.5t18 -19q18 -3 18 22q9 -5 17 -12t20 -10 q28 13 51.5 12t41.5 -12t31.5 -31t22.5 -45q-32 -26 -63 -58.5t-59 -70.5t-50.5 -81t-35.5 -91q-5 -1 -7 0.5t-3.5 3t-3 1t-5.5 -4.5q-22 -36 -41.5 -62t-38 -51t-36.5 -53t-37 -68q-13 5 -29.5 -14.5t-18.5 -50.5q-49 -59 -95 -122t-90.5 -126t-87.5 -124t-87 -115 q8 -13 17.5 -21t11.5 -27q18 16 44 17.5t56 0.5t61.5 -0.5t61.5 13.5q24 -20 38.5 -25.5t27 -6t27.5 -1t40 -10.5q19 6 34 5.5t28 -1.5t25.5 1t27.5 14q18 -15 41.5 -20.5t48.5 -7t51 -1t49 -3.5t42.5 -15.5t31.5 -34.5h31q-2 -20 4.5 -31.5t15.5 -20t18 -18t11 -25.5 q-9 9 -14.5 6.5t-9 -10t-6.5 -17t-7 -15.5q-4 9 -8 11t-7.5 -0.5t-7.5 -7.5l-8 -10q-2 10 -8.5 12t-13.5 -1.5t-12 -10.5t-5 -16q-21 12 -45.5 10t-47.5 -3.5t-42 3t-31 29.5q-22 -12 -38.5 -13t-33.5 3t-37 10t-50 8q-32 3 -61 0.5t-58.5 -4t-60 2t-64.5 18.5 q-23 -4 -53.5 -8.5t-62 -7.5t-61 -3.5t-50.5 2.5q-15 -12 -36 -16.5t-43 -7.5t-43 -7t-36 -16q-8 4 -13 7.5t-10.5 6t-13 5.5t-20.5 6q-6 16 -6 31v26.5t-4 18.5t-19 8z" />
<glyph unicode="[" horiz-adv-x="569" d="M145 162q1 6 3.5 5.5t5 -2.5t5.5 -2.5t7 5.5q-5 45 -2.5 79.5t7 66.5t9 66.5t4.5 80.5q2 15 8.5 22t12.5 17q-3 24 -7.5 48.5t-6.5 50t0.5 51.5t13.5 52q0 17 -2 33t-2.5 27.5t2.5 17t14 2.5q-9 96 -3.5 208.5t11.5 234.5q-14 10 -19 28.5t-8 40t-8 44t-18 40.5 q-4 22 4 30.5t19.5 12t22.5 7.5t13 16q3 1 5 -4q1 -3 1 -6q0 2 2 10t-2 8q28 9 63.5 12.5t70 1t63 -11t41.5 -24.5q12 -6 20 -19.5t15 -29.5t13.5 -32.5t15.5 -29.5q1 -7 -1 -11t-4.5 -7t-4 -7.5t0.5 -13.5q-29 3 -46.5 9t-30.5 8.5t-25.5 -1.5t-30.5 -22q-3 -3 -14 -3 t-19 3q12 -29 14.5 -59.5t1 -63.5t-5.5 -67t-5 -68q2 -8 8 -7t12 -1q-17 -197 -30.5 -364.5t-35.5 -321.5q6 -19 2.5 -41.5t-8 -49t-4.5 -58t15 -67.5q-6 -5 -7.5 -8.5t-2 -6.5t-2 -6.5t-7.5 -8.5q-1 -9 3 -17t9 -17t8 -19.5t1 -22.5q1 -10 -1 -13.5t-6 -3t-8 3.5t-6 5 q3 -13 3 -20t-0.5 -12.5t-0.5 -11t2 -16.5q2 2 5 -5t6 -16t6 -16.5t6 -7.5q-12 -6 -14.5 -15t-1 -18.5t3.5 -18t-1 -13.5q16 -18 36.5 -28.5t40.5 -17t36.5 -10.5t24.5 -8q5 -18 16 -29t22 -21t21 -22t14 -32q-24 -24 -42.5 -31.5t-35.5 -8t-34.5 1t-38.5 -4.5q-6 0 -6.5 -7 t-7.5 -7q-10 -2 -20 1t-19 5t-16.5 0.5t-12.5 -11.5q-24 6 -37 13.5t-19.5 17t-9 21.5t-4.5 26q-9 8 -22.5 9t-18.5 6q-16 21 -23.5 56.5t-9 75t1 77.5t7.5 65q-10 16 -10.5 40.5t1 52.5t0.5 56.5t-12 53.5z" />
<glyph unicode="\" horiz-adv-x="569" d="M0 1470q15 3 23.5 7t15.5 7.5t15 5t22 -0.5q23 -5 32 -14.5t17 -14.5q9 -3 14.5 -9.5t7.5 -12.5q1 -6 6.5 -14.5t12 -20t11.5 -25t5 -28.5q13 -42 28 -91t32 -102q18 -17 25 -36l14 -38q12 -40 20 -81.5t17 -84.5t20.5 -85.5t30.5 -83.5q-2 -26 0.5 -48t6.5 -41.5 t7.5 -36.5t5.5 -34q15 -51 38.5 -116.5t48.5 -137.5t49 -146.5t42 -142.5q-2 -12 -9.5 -19.5l-14 -14t-11 -14t-0.5 -20.5q-14 3 -25 3.5t-23 0t-25 0t-31 3.5q-11 9 -20.5 30t-17 46t-13.5 48t-10 37q-2 4 -10.5 10t-10.5 11q-3 17 0 33.5t0 31.5q-8 47 -24 97t-27 100 q-9 34 -20 69t-23 70t-23.5 70t-19.5 70q-8 37 -11.5 75t-13.5 72q-2 20 -9.5 40t-10.5 42q-2 10 -2 21.5t1 22.5t1.5 22.5t-0.5 21.5q-6 26 -21.5 62.5t-25.5 70.5q-26 85 -54.5 160.5t-62.5 152.5z" />
<glyph unicode="]" horiz-adv-x="569" d="M43 -299q3 24 14.5 45t29.5 36t40.5 23t48.5 5q-2 -20 7 -20t20 5.5t20 9t8 -11.5q19 2 27.5 1t12 -0.5t6 6.5t8.5 22q-6 40 -9.5 86t-5.5 94t-2.5 97t-1.5 94q-3 69 -13.5 135t-17.5 147q0 8 7 17t4 18q-5 124 -3.5 240t-0.5 235q12 12 20 27q-7 19 -4.5 51t5 67t1.5 69 t-14 58q-21 -2 -42 8t-40.5 23.5t-36.5 26.5t-29 18q-22 9 -30 24t-9.5 32t-1 35.5t-4.5 35.5q14 -5 23 -5t17 2t17.5 5t24.5 4q6 0 15 -1t18.5 -2t18 -1.5t14.5 0.5q32 1 59.5 1.5t54.5 -5t55 -18.5t62 -37q-8 -79 -19 -152t-20 -146.5t-13.5 -150t1.5 -163.5 q0 -23 2 -52.5t0 -52.5q-1 -100 4.5 -204t14.5 -204.5t19.5 -193.5t20.5 -170q-3 -23 -3 -54t0.5 -64.5t-0.5 -67t-6 -61.5t-15.5 -47.5t-28.5 -25.5q-32 6 -53 12t-41.5 8t-44 -1.5t-59.5 -18.5q-9 -1 -13 4.5t-6.5 10.5t-6 5.5t-13.5 -9.5q-14 2 -18 6.5t-4.5 9t0.5 8 t-3 4.5q-14 0 -17.5 -2t-11.5 -8q-24 15 -34.5 28.5t-14.5 23.5t-5 17t-5 9z" />
<glyph unicode="^" horiz-adv-x="961" d="M53 782q8 14 12.5 37.5t10 50t14.5 52t27 43.5q9 47 27 86.5t40.5 74t47 65.5t46.5 62.5t39 65t25 72.5q26 17 30.5 42t4.5 56q83 -6 136 -31t87 -63.5t55 -86.5t39.5 -99t41 -102t59.5 -95q0 -5 -1.5 -9.5t-3.5 -8.5t-4 -9h29q-5 -23 4 -48.5t21 -48.5t21.5 -42.5 t6.5 -30.5q11 -3 22 -7t13 -13q-14 -1 -26 -6.5t-25 -14t-26.5 -17.5t-30.5 -16q-17 6 -28.5 17t-23.5 22.5t-26.5 21t-36.5 13.5q3 21 -3.5 43.5t-16.5 44.5t-20.5 43t-14.5 39h-45q0 3 5 19t8 34.5t1.5 34.5t-14.5 19q-8 22 -15 41q-6 17 -12 32t-8 23q-2 -5 -21 28.5 t-45 90.5q-2 4 -9.5 -9.5t-18 -36.5t-22.5 -50.5t-23 -51t-19 -39t-10 -12.5v-59q-20 6 -23.5 -3t-5 -22.5t-8 -25.5t-31.5 -11q-4 -2 2 -2h6q-35 -42 -49 -76t-21.5 -67t-15.5 -68.5t-32 -79.5q-28 -3 -49 4t-38.5 19.5t-31.5 29.5t-27 35z" />
<glyph unicode="_" d="M-20.5 -186q-6.5 14 5.5 28q8 3 8 6t-6 17q19 -3 27 -1t22 5q23 -3 43 -2.5t47 0.5q-5 -9 -1 -10t10.5 -0.5t12.5 0t5 -6.5q18 12 41 13.5t44 0t37.5 -3.5t22.5 3q2 -11 12.5 -6.5t25.5 9.5t31.5 4.5t29.5 -20.5q0 19 41 19q12 -9 22.5 -11t21 -3t22 -3.5t26.5 -11.5 q6 0 6 5.5v9.5q23 0 54.5 -4t62.5 4q2 -4 8 -7t8 -8q36 3 51 25q7 0 18 -3t24 -5t26 0t24 12q5 -2 16 -3t24 -2.5t25 -6t19 -13.5q15 4 20.5 8.5t9 8t8.5 6t18 2.5q1 -2 6 -3t10.5 0t9.5 3t2 6q7 11 17.5 13.5t21 3t19 2t12.5 10.5q3 -11 5 -13t5 -2t7.5 -1.5t11.5 -12.5 q-2 -2 1.5 -6.5t8.5 -9.5t11 -9.5t11 -7.5q1 -4 -0.5 -6t-4 -3.5t-4 -4t0.5 -6.5q2 -5 11.5 -5.5t9.5 5.5q8 -6 10 -22t2 -25q-12 0 -18.5 -5.5t-14.5 -7.5q-20 2 -41.5 0t-44.5 -5t-46.5 -5.5t-47.5 -1.5q-45 4 -94 1.5t-97 -5t-91.5 -1t-77.5 14.5q-8 -11 -30 -12t-45.5 1 t-42.5 3.5t-22 -4.5q-9 2 -12 7t-14 7q-37 -6 -81.5 -6.5t-82.5 4.5q-68 2 -132.5 6.5t-111.5 16.5q-3 17 -9.5 31z" />
<glyph unicode="`" horiz-adv-x="682" d="M88 1438q7 0 21 1t28 4.5t24.5 9.5t10.5 17q2 5 2.5 5t11.5 -2q10 -1 10 -6t-1.5 -11t-1 -10.5t11.5 -5.5q7 -1 11.5 2.5t8.5 7t9.5 6t15.5 0.5q33 1 48.5 -2t20.5 -6.5t3 -6.5t-5 -3q7 0 13 -3.5t11.5 -7t11.5 -5.5t14 1q18 -19 23 -33t5 -26t-2 -24t2 -26.5t18 -33.5 t46 -45q-3 -11 -7 -20q-4 -8 -10.5 -13.5t-15.5 -5.5q-41 0 -63 7t-48 20q-49 6 -89.5 27.5t-70 51.5t-47 65.5t-20.5 70.5z" />
<glyph unicode="a" d="M74 358q6 39 8.5 79t3.5 81.5t1.5 82.5t2.5 81q14 -3 20 1t15 7q-2 7 -1.5 17.5t1 20t-0.5 17t-7 9.5q7 10 13 12t12 1.5t14.5 -2t21.5 0.5q-1 5 -5 8t-9 7t-9 9.5t-5 16.5q-3 11 1 15t11.5 4.5t17 -1t15.5 -0.5q-13 21 -15 32.5t3 18.5t13.5 11.5t17.5 12.5t15 22t5 39 q14 -13 22.5 -3.5t5.5 21.5q5 10 13.5 11l17 2t15 6.5t7.5 25.5q6 -12 18.5 -12.5t25 7t22.5 21.5t12 29q8 -3 16 -0.5t15.5 4t14 -2.5t12.5 -19q-1 13 3.5 16t10 4t10.5 2.5t6 11.5q23 0 36.5 -2.5t23.5 -13.5q25 15 67 17q5 0 10 -1q36 0 72 -9q40 -11 71 -34.5t34 -58.5 q36 -4 55.5 -18t33 -32t27.5 -38t39 -35q-3 -65 -12.5 -123.5t-17 -116t-7.5 -119t15 -132.5q14 -6 17.5 -19.5t4 -27.5t1 -25.5t8.5 -13.5q11 -3 24 14q6 9 12.5 4.5t11 -15t6 -22.5t-0.5 -16q9 -1 14 -9q6 -9 8 -21q2 -10 2 -21v-5q0 -14 -4 -28q-21 -35 -29.5 -61 t-18.5 -45t-27 -33.5t-54 -26.5q-23 5 -36 14.5t-23 22t-20.5 29t-28.5 36.5q-13 23 -14.5 39t-1 32t-1.5 35.5t-16 49.5q-4 -18 -11.5 -36t-16 -30.5t-17.5 -15.5t-16 10q-36 -65 -82.5 -113t-103.5 -72q-52 -22 -111 -22q-6 1 -13 1q-67 2 -143 38q-24 41 -48 80 t-46.5 80.5t-43 86t-36.5 95.5zM258 408q7 -23 9 -46.5t4 -46t7.5 -42.5t20.5 -35q11 8 24 -4.5t27 -31t28.5 -35.5t27.5 -17q23 16 40.5 25t33.5 16.5t31.5 16.5t33 25.5t38.5 43t48 69.5q14 60 46 117.5t73 99.5q4 33 4 59q0 6 1 12q1 19 -1 37q-2 24 -2.5 50t2.5 61 q-20 -1 -34 17t-26 40t-25.5 42t-31.5 24q-5 1 -11 3.5t-12 5.5t-14 5q-5 1 -11 1h-5q-33 -1 -51.5 -4.5t-32 -12t-28.5 -23t-40 -36.5q2 2 -5 7.5t-13 2.5q-16 -9 -32.5 -27.5t-30 -41t-21.5 -48t-6 -49.5q-26 -31 -36.5 -65t-11.5 -68v-12q0 -28 4 -54q4 -32 7 -57 q-5 0 -8 -4t-6.5 -8.5t-7 -8t-7.5 -3.5z" />
<glyph unicode="b" d="M139 537q1 6 2 16.5t3 21.5t4 21.5t4 15.5q-6 130 -10 238q-2 69 -2 135q0 37 1 74q2 100 9 198t22 207q13 2 24 2q18 0 30 -6q20 -10 35 -23t28 -24t31 -8q12 -51 14 -97v-25q0 -31 -3 -63q-4 -42 -11 -83t-11 -83q-3 -28 -3 -57q0 -15 1 -30q2 -45 15 -97 q10 21 26.5 32.5t35 21t35.5 22t28 35.5q15 2 19.5 -6.5t6.5 -18.5q35 20 71 22q14 1 28 0q22 0 44 -2q36 -4 71 -10q23 -4 45 -4q11 0 22 1q11 -21 27.5 -30.5t36.5 -14.5t41 -7.5t40 -8.5t35 -19t25 -37q19 -8 29 -28.5t15.5 -48t8.5 -58.5t6.5 -60.5t10 -54t20.5 -39.5 q12 -38 12 -75q1 -11 -1 -22q-4 -48 -22 -93.5t-46.5 -87.5t-62.5 -78.5t-71 -66t-71 -50.5q-47 -29 -105.5 -52t-118.5 -44q-11 5 -26.5 6.5t-31.5 2.5t-29 3t-17 10q-9 -18 -30 -17t-45 7t-46 9.5t-33 -11.5q-12 7 -18 12.5t-12 8.5t-14.5 4.5t-26.5 1.5q-31 60 -46 109 q-14 48 -20 95q-5 40 -5 81v16q1 50 3 110q-2 8 -2 24.5t-1.5 33.5t-6.5 30t-17 13zM344 295v-9q0 -18 5 -34q6 -20 26 -43q4 12 18.5 5t32.5 -18t36 -19q8 -4 15 -4q8 0 13 5q-8 6 -12.5 8t-6.5 7q0 5 7 11t7 11q12 6 27.5 5t31.5 -3t30 -2t22 8q5 -12 18 -19t31 -9 q6 6 6.5 9.5t-1.5 7.5t-3.5 9.5t0.5 14.5q9 0 18 3.5t17.5 6t16.5 2t16 -7.5q8 17 16.5 34.5t19 33.5t24.5 29t34 21q3 11 -3 15t-11 12q19 -2 33 13t23.5 36t16.5 44t13 38q-21 89 -56.5 145.5t-80.5 88.5q-46 30 -96 40q-33 6 -65 7q-17 0 -35 -2q-50 -5 -94.5 -21 t-78.5 -35q2 -32 0.5 -57t-6 -47.5t-10 -44t-11.5 -45.5q-4 -16 -1.5 -33t6.5 -34.5t7.5 -36.5t2.5 -38q-5 -34 -11 -60t-8 -48z" />
<glyph unicode="c" horiz-adv-x="1024" d="M88 524q2 41 11.5 73t20 60.5t19 56.5t8.5 60q28 10 45.5 34t31 52t26.5 55.5t31 45.5q-4 -4 6.5 0t25.5 11t29.5 13.5t17.5 7.5q4 2 10.5 1t14 -0.5t14.5 6t13 20.5q19 -5 25.5 -0.5t8 12t1.5 15.5t6 12q21 4 47 7.5l52 7t48.5 6.5t36.5 5q114 -55 173 -147t74 -213 q-16 -20 -34.5 -34t-46.5 -19q-23 14 -38.5 36.5t-28 49t-23 53t-23 48.5t-30 35.5t-42.5 14.5q-18 -7 -43.5 -18t-53 -23t-55.5 -22t-50 -15q-31 -66 -67 -117.5t-70 -99.5q-11 -54 -13 -101q0 -10 -1 -20q1 -37 7 -72q8 -45 24 -90.5t42 -97.5q28 -27 58 -39t59 -16 t56.5 -4.5t49.5 -5.5q55 17 94.5 28t69.5 27.5t53.5 44t46.5 76.5q18 -10 29 -9t17 7t8.5 14.5t3.5 12.5q68 -11 93 -61q12 -24 12 -54q0 -31 -13 -68q-56 -47 -108 -83t-110 -61.5t-127 -41t-157 -20.5q-15 7 -35 10.5t-41.5 5t-42.5 4t-37 8.5q-61 39 -105.5 93.5 t-73 121.5t-40.5 143q-10 62 -11 127q0 15 1 31z" />
<glyph unicode="d" d="M117 307.5q0 57.5 16 106.5q2 6 0.5 9t-4.5 4.5t-5.5 3t-2.5 5.5q0 63 17 127.5t50.5 121t82.5 100.5t114 65q-1 4 2 7.5t8 8t11 12t12 19.5q11 -2 19.5 -6t16 -8t15 -6.5t16.5 0.5q4 11 2 19t-2 19q5 13 18 13.5t30 -4.5t35.5 -12t36 -7.5t32 8.5t21.5 35q14 -4 31 -5 t34.5 -3t34.5 -7t31 -15q0 42 2.5 65t3.5 39t-0.5 31t-10.5 41q23 54 29 96.5t7.5 82t5.5 80t22 89.5q7 7 19.5 7.5t26 0.5t24.5 2.5t14 13.5q22 -14 32.5 -28.5t14.5 -34t2.5 -46t-2.5 -63.5q-1 -21 -1.5 -44.5t-2.5 -44t-6.5 -36t-11.5 -20.5q11 -40 13 -90q1 -25 1 -51 q1 -25 -1 -51q-2 -52 -8 -103t-10 -94q9 -28 13.5 -64.5t6.5 -75.5q1 -15 1 -29q-1 -25 -3 -49q-2 -38 -7 -69q5 -34 8 -72t3 -77q0 -8 1 -16q0 -32 -2 -62q-2 -38 -6 -72q10 -15 15 -38t5 -46t-5.5 -43.5t-16.5 -32.5q-26 -2 -48 -6.5t-41.5 -6t-36.5 1t-32 13.5 q1 13 -1.5 21t-3.5 15t1 15.5t12 22.5q-9 0 -12.5 1t-5.5 7q7 25 6.5 35.5t-4.5 24.5q-11 -24 -30.5 -43.5t-42 -38t-46 -37t-41.5 -39.5q-6 5 -13.5 9.5t-17.5 4.5q-92 -27 -165 -27h-19q-80 4 -139 32t-95 75t-54.5 101.5t-18.5 112zM270 369q9 -31 12 -52.5t3.5 -37.5 t2.5 -28.5t9 -25.5t22.5 -29.5t43.5 -39.5q13 2 32.5 -0.5t40.5 -5.5q21 -2 41 -4h8q15 0 27 4q5 3 19.5 14.5t30.5 20.5t30.5 9t19.5 -20q5 22 22.5 37.5t39.5 26.5t44.5 20t37.5 18q-2 22 -1 49.5t2.5 56.5t0.5 58.5t-8 55.5q11 5 16.5 21.5t7.5 40.5q1 12 0.5 24t-0.5 26 q-2 27 -5 53t-7 48t-6 34q-10 1 -26.5 3t-33 5t-30 6t-19.5 5q-95 -13 -162.5 -41.5t-112 -69.5t-67.5 -94.5t-30 -116.5q11 -1 12.5 -11t-2 -23t-8.5 -24t-7 -13z" />
<glyph unicode="e" d="M36 442q0 27 4.5 48t11.5 39t15.5 33.5t17.5 31.5q18 -5 30 -4t22 2t20.5 -2.5t25.5 -18.5q7 0 11 4.5t7 9.5t7 9.5t12 3.5q4 56 25.5 103.5t50.5 91t61 85t58 85.5q10 9 26 15t32 13.5t28.5 20t17.5 35.5q2 -5 4 -11t2 -18q7 18 23 27.5t33 15t31.5 10t17.5 14.5 q28 -7 58 -7h14l76 4q16 1 33 2q23 0 45 -2q40 -4 77 -25q8 -29 20 -41t23.5 -21.5t21.5 -22.5t15 -42q2 -19 2 -37q0 -33 -8 -63q-13 -46 -37 -86.5t-54.5 -75.5t-56.5 -66q-13 -3 -32 -5.5t-37 -8t-32 -15t-18 -26.5q-27 -3 -47.5 -18.5t-38.5 -31.5t-36 -27t-40 -5 q-6 -12 -13.5 -22t-10.5 -25q-10 10 -17 12t-12 2t-10 1.5t-12 10.5q-10 -18 -24 -27t-29 -13.5t-29.5 -8t-26.5 -10t-19.5 -20t-7.5 -37.5q1 4 2.5 -3t3.5 -17.5t3.5 -20.5t1.5 -11q31 -68 91 -91q39 -15 93 -15q28 0 59 4q20 2 41 10t43.5 18.5t46.5 22.5t50 21 q13 5 28.5 8.5t31.5 6.5t30 6t24 7q3 2 8 8.5t10.5 14t11 13.5t9.5 7q5 2 10.5 -0.5t11 -6t10 -6.5t7.5 -1q20 4 28 15.5t13 24.5t10.5 24t20.5 16q12 -22 19 -43t11 -43.5t6.5 -47t4.5 -54.5q-68 -48 -137.5 -86.5t-146.5 -65.5t-163 -43t-186 -20q-51 15 -97.5 38.5 t-82 58.5t-57.5 84t-25 115q-3 7 -9 10.5t-14 8.5q6 36 2.5 57.5t-13.5 34t-26 18t-35 10t-40 10t-41 17.5zM398 571q31 0 52.5 6t37 15t28 19.5t26.5 20.5t31 18t42 12q6 18 20 33.5t30.5 25.5t32.5 14.5t26 1.5q10 25 30.5 41.5t41.5 34t36.5 39.5t14.5 57q-59 22 -106 22 q-17 0 -33 -3q-58 -11 -105.5 -47t-87.5 -89.5t-84 -107.5q-1 -8 -7.5 -25.5t-13 -35.5t-10.5 -33q-3 -9 -3 -14q0 -3 1 -5z" />
<glyph unicode="f" horiz-adv-x="569" d="M24 730q0 27 19 52q6 9 9.5 13t7 6t8.5 3.5t14 6.5q12 6 27.5 10t31.5 7t30.5 6t25.5 6v24q0 30 -1 64q-3 49 -5.5 93.5t-4.5 78t0 45.5q4 28 10 49.5t12.5 45.5t12 55t8.5 79q12 18 28 30.5t32.5 23.5t32.5 23.5t28 31.5q10 -6 16 -3.5t14 5.5q7 3 17 3h3q12 -1 34 -11 q37 -23 60.5 -41t42.5 -34.5t38.5 -34t49.5 -40.5q-9 -12 -7 -20.5t7 -17t11 -18.5q5 -9 5 -20v-4q-1 -12 -5 -26.5t-9.5 -24.5t-11 -12.5t-9.5 8.5q-1 3 -4.5 -1t-9 -7t-11.5 -2t-12 14q8 9 3.5 11.5t-14.5 3.5t-21 3t-15 9q-7 9 -8 14.5t-2.5 10t-6 9.5t-16.5 13 q-13 7 -17.5 14t-7 12t-5 8t-10.5 3t-24 -3.5t-46 -11.5q-18 -12 -27.5 -40t-13.5 -64q-5 -33 -5 -71q0 -4 1 -8q0 -42 3 -83t7.5 -78t9.5 -63q3 -12 7.5 -17.5t9.5 -7t11.5 -1t14.5 0.5q11 0 27 -4t29 -2q7 1 12 -0.5t10.5 -3.5t12 -4.5t18.5 -3.5q12 -15 16 -25t7.5 -17.5 t10.5 -15t25 -18.5q-14 -29 -31 -43.5t-39 -22t-49 -11.5t-61 -11q-14 -18 -20 -50t-7 -72v-9q0 -35 4 -74q3 -44 8.5 -87t11.5 -82t11 -68q11 8 20 -5.5t14.5 -38.5t5.5 -56.5t-8 -60t-25 -49t-46 -22.5q-9 0 -22.5 1.5t-28 3t-27.5 3t-20 0.5q1 20 -2.5 39.5t-6 38 t-2.5 36t7 34.5q-12 23 -17.5 41.5t-6 36.5t3.5 38.5t10 47.5q-18 19 -24 45.5t-5 57t5 62t5 59.5t-4 50.5t-22 34.5q-6 4 -13.5 2t-16.5 -6.5t-18 -9.5t-18 -7q-13 -5 -17 -1.5t-4 9t0.5 11t-2.5 4.5q-9 -3 -12.5 -5.5t-6 -4t-6 -1t-13.5 2.5q-6 5 -14 6.5t-14 4.5t-8 10 t5 22q-15 32 -15 60z" />
<glyph unicode="g" d="M102 -78q2 32 24 62.5t71 58.5q0 -3 6 -6t14 -5t16 -3.5t13 -1.5q5 -58 35.5 -105.5t76.5 -82.5t103.5 -55.5t118.5 -23.5q12 -1 23 -1q49 0 98 12q60 15 110 51q32 58 38 122q3 29 3 58q0 36 -4 73q-8 66 -23 131t-24 124q-2 -2 -10 -14t-17.5 -21t-18.5 -9t-14 23 q-30 -20 -72 -38.5t-90 -31t-99 -17.5q-19 -1 -37 -1q-33 0 -65 5q-49 8 -93 31t-78 65q-20 26 -35 71t-22 99q-6 40 -6 82v28q3 57 18 105q15 45 45 94.5t70.5 95.5t90 83t103.5 58q17 8 48.5 14.5t65.5 12.5t65 10.5t46 9.5q15 -4 27 -10.5l24 -13t24.5 -12t27.5 -7.5 q11 -24 26 -39.5t28.5 -26.5t22 -20.5t7 -20.5t-16.5 -27t-49 -40q-21 14 -35 15.5t-26.5 2t-26.5 5.5t-35 27h-7q-69 0 -119 -19q-52 -20 -92.5 -53.5t-73.5 -75.5t-70 -84q-6 -54 -13 -98q-4 -25 -4 -47q0 -17 3 -33q5 -37 28 -67.5t76 -57.5q34 -6 65 -6q28 0 54 5 q54 11 98 31.5t79.5 43.5t63.5 35q4 37 4 67.5t-2.5 58t-7 53.5t-8.5 54q10 9 19 20t18 21t19.5 17.5t23.5 9.5q12 1 23 1q34 0 52 -14q24 -20 31 -56q6 -25 6 -56q0 -14 -2 -30q-3 -49 -6 -101q-2 -19 0 -41t6 -44t8 -43t7 -38q5 -22 15.5 -35.5t15.5 -30.5q6 -25 4 -53.5 t-4 -52.5q-2 -22 1 -45.5t5 -40.5q1 -6 -2 -9t-6 -5q-4 -2 -9 -3q1 -21 5.5 -49.5t9 -56t6.5 -52.5q2 -17 2 -29v-9v-17q0 -83 -34 -140q-39 -63 -101.5 -100.5t-138.5 -53.5q-71 -15 -136 -15h-8q-16 1 -45 1.5t-54.5 3.5t-39.5 11t-2 23q-9 2 -23.5 5t-30.5 6t-31 7t-24 9 q-10 5 -25 9.5t-27 10t-17 14t4 21.5q-16 1 -27 6.5l-20 10t-16.5 7t-16.5 -1.5q-10 -5 -16 3t-10.5 20.5t-9 26.5t-11.5 22q-25 33 -40 67q-14 30 -14 60v6z" />
<glyph unicode="h" d="M168 1064v20q0 51 -2.5 101.5t-2.5 103.5q1 11 1 21q0 64 16 140q30 11 49 11q6 0 12 -1q21 -5 32 -21t17 -39.5t13 -45.5q0 -17 -4 -28.5t-4 -27.5q-1 -9 3.5 -18.5t10 -18t10.5 -16t5 -12.5q5 -15 1.5 -25.5t-8.5 -21.5t-9 -27t1 -43q15 -68 18 -130q1 -28 1 -56 q0 -32 -2 -64q-3 -58 -7 -110q-2 -30 -2 -58q0 -21 1 -41q9 18 18.5 37.5t25.5 43t41 51t66 61.5q8 7 19 13t22.5 12.5t22 13.5t16.5 18q10 -1 29.5 3t44 7.5t51.5 4t51 -8.5q8 -10 24.5 -15t35 -9.5t36 -10t27.5 -14.5q5 -5 8 -13t5.5 -17.5t5.5 -19.5t8 -17 q4 -6 15.5 -23.5t23 -38t21 -39.5t11.5 -26q3 -11 -4 -19t-4 -18q5 -11 13 -18.5t14 -18.5q13 -35 16 -86.5t3 -106.5t1 -106.5t8 -85.5q4 -18 9 -41.5t7 -47.5q1 -9 1 -17q0 -15 -2 -29q-4 -22 -16 -40q-14 -17 -38 -26q-18 -7 -44 -7q-9 0 -19 1q-39 40 -52 103.5 t-15 138.5q-1 28 0 57q0 48 2 97q1 21 0 41q0 57 -5 110q-8 19 -15 41.5t-16.5 46t-23 45t-35 37.5t-52.5 24q-23 6 -52 6q-11 0 -23 -1q-22 -9 -45.5 -31t-45 -50t-41 -58t-34.5 -54q-9 -10 -13 -24.5t-8 -27.5t-9 -22.5t-17 -9.5q-12 -35 -18.5 -68t-11.5 -61 q-6 -37 -9 -66.5t-4.5 -58t-1.5 -60v-71.5q-21 -20 -49 -35.5t-53 -27.5q-41 17 -57 53t-18 80v20q1 34 5 68q6 45 10 80q-6 -11 -12 -5.5t-6 11.5v49v74q2 62 2 122q0 15 1 30q1 44 -1 87q-2 57 -8 109q8 7 9 14t-2 12t-6.5 8.5t-4.5 2.5q17 18 18 30.5t-4.5 22.5t-12.5 19 q-5 7 -5 15z" />
<glyph unicode="i" horiz-adv-x="455" d="M148 1322q-2 13 -3 28q0 16 3 32q32 11 46 31t19 49q17 -12 33.5 -18.5t44.5 2.5q8 -2 11 -10.5t5 -19.5t6 -21.5t15 -14.5q8 -28 7 -56v-17q-3 -36 -17 -64q-16 -28 -42 -44q-20 -12 -46 -12q-8 0 -17 1q-13 19 -26.5 39.5t-24 43.5t-14.5 51zM163 144q6 18 15 53 q3 9 1.5 17.5t-4.5 16.5t-6.5 17t-4.5 20q2 65 6 137t10 132q1 20 1 41q-1 36 -3 76q-2 34 -1 68q0 29 1 58q1 18 4.5 30.5t6 26t3.5 30t-1 40.5q9 23 27 29q10 3 19 4q7 0 17 -2q20 -4 39 -15t31 -20q17 -62 22.5 -127t5.5 -132.5t-4.5 -134.5t-7.5 -132.5t-4 -127.5v-7 q0 -58 8 -111q-11 -43 -26.5 -73t-47.5 -50q-8 -4 -17 -4h-4q-11 1 -19.5 6.5t-12 16.5t1.5 26q-21 -8 -26 -1.5t-9 20.5q-16 16 -22 24t-6 17q0 11 7 31z" />
<glyph unicode="j" horiz-adv-x="455" d="M-68 -292q-1 4 -1 7q0 23 11 45q11 26 40 47q17 -2 25 -8.5t15.5 -13t18 -12t31.5 -6.5q14 -1 23.5 4t16 13.5t11 19.5t8.5 22q8 22 14 59.5t9.5 83.5t3.5 96q1 7 1 14q0 43 -3 83q-4 59 -8 130t-7.5 147t-4.5 153q-1 45 -1 89v57q1 71 4.5 132t10.5 105q37 -6 70 -25.5 t79 -42.5q7 -71 13 -160t10.5 -188t6.5 -202q1 -69 1 -135v-66q-1 -98 -6 -186.5t-15 -157.5q9 -8 8.5 -13.5t-4 -10t-8.5 -9t-6 -8.5q10 1 12.5 -6.5t0 -19t-8.5 -25t-12 -25.5q-5 6 -11 9.5t-14 -1.5q-5 -6 -8.5 -22t-3.5 -25q-2 -6 -2 -8t2 -8q-11 -17 -18.5 -23 t-10.5 18q-5 -4 -7.5 -12t-4 -16.5t-4 -16t-8.5 -10.5q-9 -4 -18 -3t-19 2.5t-19 3t-18 -0.5q-45 -10 -69.5 -10t-38 6t-21 16t-20.5 19q-20 20 -32.5 44.5t-13.5 50.5zM104 1381q0 7 5 14q12 2 15.5 2h14.5q-9 40 5 54q11 12 31 12q3 0 7 -1q25 -2 55.5 -17t55.5 -34 q-8 -23 -0.5 -40t16 -35t10.5 -40v-5q0 -20 -16 -50q-21 -3 -37.5 -10t-33.5 -13t-37 -8q-7 -1 -14 -1q-15 0 -33 3q-11 10 -22 29t-17 39t-3.5 37t19.5 24q-2 5 -6.5 10.5t-8.5 12.5q-6 9 -6 17z" />
<glyph unicode="k" horiz-adv-x="1024" d="M135 346q10 41 22 70.5t22 56t17 55t7 66.5q0 25 -2 48.5t-5 47t-6.5 49.5t-5.5 58q-1 10 -1 21q0 26 4 52q5 38 8 75q1 16 1 32q0 21 -2 41q-4 36 -24 69q7 46 8 80.5t-1 63.5t-6 54t-6.5 51.5t-2.5 56.5t6 69q29 -5 50 -16t39 -24t37.5 -25.5t45.5 -20.5 q22 -93 28.5 -179t8 -174.5t1.5 -183.5t11 -206q33 22 71 53.5t78.5 67t83 72t86 69t86.5 58.5t85 40q15 -12 22.5 -25.5t12 -28.5t9.5 -30.5t15 -31.5q-11 -27 -31.5 -43.5t-43.5 -30.5t-44 -29.5t-33 -40.5q-5 -1 -8 0.5l-6 3l-6 3t-8 1.5q-9 -14 -12.5 -21t-6 -13 t-7.5 -13.5t-17 -21.5q-15 -19 -42.5 -38t-56 -38t-53 -36.5t-35.5 -33.5q-4 -5 -5 -12.5t-1 -14t-0.5 -12.5t-3.5 -8q-12 -13 -23.5 -21t-15.5 -16.5t4 -20t37 -32.5q55 -35 116.5 -57.5t125 -47t127 -59t123.5 -94.5q22 -24 26.5 -34t4 -16.5t-0.5 -13t13 -22.5 q-15 -5 -19 -10.5t-4.5 -11t-1.5 -11.5t-8 -10q-8 6 -14 8t-13 2t-15 -1.5t-19 -2.5q-23 18 -65 36t-88.5 38t-89.5 42.5t-67 51.5q-25 1 -53 16.5t-59 33t-65 31.5q-32 13 -68 13h-5q-23 -30 -29 -63q-5 -28 -5 -57v-10q1 -34 4.5 -66t-0.5 -60q-27 -8 -59 -11 q-11 -1 -22 -1q-20 0 -40 4q-30 6 -51 21.5t-25 44.5q-3 21 2 46t11 51t10.5 52t1.5 49.5t-17.5 43t-46.5 32.5z" />
<glyph unicode="l" horiz-adv-x="455" d="M190 180q2 38 6.5 80t4.5 84q0 31 3.5 61.5t7 61.5t6 62t0.5 63q-2 140 -7 291q-3 94 -3 188q0 56 1 113q0 31 -2.5 69.5t-5.5 76.5t-4 72t2 58q5 2 9 2q8 0 18 -7q14 -11 31 -26t35.5 -27t39.5 -9q25 -168 39 -333q15 -165 19 -329q3 -98 3 -197q0 -66 -2 -132 q-3 -165 -12 -334q-5 -16 -13 -21t-15 -8.5t-11 -10t-2 -24.5h-14q-42 0 -68 10q-30 12 -46 36q-14 25 -18 58q-2 19 -3 40q0 16 1 32z" />
<glyph unicode="m" horiz-adv-x="1706" d="M135 1018q34 23 59.5 26t44 -10t30.5 -38.5t20 -59t13.5 -73t9.5 -79.5t8.5 -78.5t10.5 -70.5q5 -32 15 -30t22 23.5t24.5 55.5t23 66.5t17 56t7.5 24.5q18 35 39.5 58.5t43 44.5t39.5 44t29 58q21 24 47.5 29t53.5 4.5t51.5 -3t42.5 8.5q21 -18 42 -29t40 -22 t34.5 -24.5t26.5 -36.5q5 -9 6.5 -19.5t2.5 -22t2.5 -22.5t7.5 -20q0 -1 3 -1t7.5 -1t8 -3t5.5 -6q5 -8 7 -19t3.5 -22.5t2.5 -22.5t4 -20q7 -15 11 -42q3 -22 3 -60v-20q19 74 44 132t53 105t56 87.5t54 80.5q14 -2 31.5 1t37 6t38.5 5q6 1 12 1q12 0 24 -3q11 -3 18 -10 l13 -13t12.5 -8.5t16.5 3.5q13 -26 31.5 -46.5t33.5 -40.5t22.5 -44t-1.5 -58q3 -1 9 0t12 3t10.5 5t5.5 6q16 -47 24 -86t11 -76q3 -32 2 -65q1 -5 1 -11q0 -38 -2 -85q1 -5 3.5 -6t5.5 1t5 5.5t3 7.5q20 -12 20 -26.5t-4.5 -27t-5 -22.5t18.5 -14q3 -22 -2.5 -34 t-13 -16.5t-14.5 -4t-7 3.5q6 -13 20 -23t33 -33q-12 -24 -14 -47.5t0.5 -46t6.5 -45.5t4.5 -45.5t-5 -46t-21.5 -47.5q0 -8 10.5 -13.5t18.5 -7.5q-7 -9 -13.5 -14t-12.5 -10.5t-10.5 -13t-8.5 -21.5q-12 -2 -24 -2q-33 0 -59 13q-36 17 -58 45t-27 62t10 62 q-11 48 -13 102q-1 27 -0.5 54.5t0.5 55.5q2 56 3 112v17q0 49 -5 99q-6 58 -22 114.5t-49 111.5q-16 31 -29.5 36.5t-25.5 -5t-22.5 -32t-19 -43.5t-15.5 -40t-13 -21q3 -6 11 -10t6 -16q-33 -45 -53 -96.5t-37.5 -104t-37.5 -103t-53 -93.5q5 -39 6 -67q0 -5 -1 -9 q-1 -31 -5.5 -61t-12 -66.5t-15.5 -93.5q-34 -12 -57 -5.5t-39.5 23.5t-29 40t-24.5 44q-2 109 -4.5 203t-11.5 184.5t-27 183t-49 199.5q-21 1 -43.5 0.5t-39.5 -7.5t-27 -21.5t-7 -39.5q-11 -4 -18.5 -9.5t-13.5 -9.5t-12 -4.5t-15 5.5q-2 -9 -4.5 -16t-4 -14t0 -13 t8.5 -12q-15 -18 -24.5 -40.5t-19 -46t-20.5 -45t-28 -36.5q5 -32 -3 -59t-21 -52.5t-27.5 -51t-22.5 -54.5q-13 -45 -16.5 -94.5t-8 -98t-16 -92.5t-41.5 -78q-6 -2 -12 1.5t-11 6t-7.5 0.5t-0.5 -16q-18 9 -35.5 14t-33.5 9.5t-31 11.5t-29 20q-7 111 -16 226.5t-19 235.5 t-18.5 245t-13.5 256z" />
<glyph unicode="n" d="M135 1012q12 -5 17.5 -2.5t9 8t6.5 10.5t8 6q17 -8 35 -6.5t34.5 3t30 -2t21.5 -20.5q-5 -48 -7 -86q-2 -27 -2 -55v-22q1 -39 5 -85.5t12 -112.5q1 6 3.5 20.5t6 29t9 24t12.5 6.5q6 15 6.5 35t3 39.5t9.5 35t26 21.5q1 34 13.5 52t27.5 31t29.5 26t21.5 39 q22 6 41.5 14.5t39 16.5t41 13.5t48.5 6.5q28 -13 61.5 -19t67 -12.5t63 -17t48.5 -33.5q43 -108 78 -226q35 -117 53 -239q17 -112 17 -225q1 -9 1 -19q-2 -122 -32 -237q-12 -7 -23 -7t-19.5 1.5t-13 2t-2.5 -5.5q-9 -5 -18.5 3t-20.5 20t-24 22.5t-29 12.5 q1 69 6.5 145.5t6.5 153.5v20q1 66 -5 131q-6 74 -28 138q-11 28 -28 63t-39 67.5t-47 58.5t-51.5 36t-53.5 0t-52 -49q-12 -18 -23.5 -45.5t-22 -57t-21 -58.5t-21.5 -50q-22 -53 -42.5 -108.5t-40.5 -110.5q0 -2 -9.5 -3.5t-11.5 -5.5q-20 -55 -24.5 -104t-7 -95.5 t-7.5 -92t-25 -93.5q-25 -16 -47 -16h-5q-24 2 -44 15.5t-34.5 35t-22.5 43.5q-3 120 -3.5 225t-0.5 211t-2 222t-9 258z" />
<glyph unicode="o" d="M86 440q0 3 -1 7q0 75 11 151q15 -2 18.5 6.5t5 20.5t5 25t18.5 20q11 49 33.5 97.5t55 91t74 77.5t89.5 57q20 22 42.5 41.5t54.5 24.5q18 7 38 15q13 5 27 5q9 0 19 -2q20 2 39 2q58 -1 107 -23q65 -30 116 -93q29 0 47 -15t18 -49q9 -2 13.5 -3.5t7 -1.5t5.5 1.5 t11 3.5q22 -32 49 -62t47 -65q31 -83 31 -161q-1 -81 -23 -157q-22 -72 -58 -136t-75 -117q-11 -2 -12.5 3t-3.5 13q-12 -28 -29.5 -49t-37 -39.5t-40 -37t-38.5 -40.5q-29 5 -44 -9t-20 -40q-24 -7 -51 -12t-54 -7t-52.5 1t-45.5 12q-6 -6 -9 -12q-2 -4 -7 -4q-3 0 -8 2 q4 10 2 11.5t-6.5 1.5t-9 0.5t-3.5 8.5h-10q-64 0 -108 24q-47 26 -82 87q-57 19 -91 67t-49.5 114t-15.5 144zM258 400q2 -72 39 -167q18 -30 43 -43q26 -14 56 -18q17 -2 36 -3q14 0 30 2q36 3 79 5q1 9 8 14t15.5 9.5t15 10t8.5 13.5q29 -5 52.5 7t44.5 31t42 38.5 t45 28.5q6 25 17.5 45t26 36.5t30.5 31.5t31 30q7 35 14 62t11 54q4 24 4 51v7q0 31 -7 74q-15 8 -28 23t-27 30t-31.5 25.5t-40.5 9.5q1 10 2 14t1 7t-1 7t-2 13q-34 7 -61 8t-52 3t-51 9t-57 25q-23 -12 -43 -30.5t-39.5 -38t-41 -36.5t-46.5 -26q-26 -59 -57 -114 q-30 -56 -49 -116q-18 -56 -18 -122q1 -5 1 -10z" />
<glyph unicode="p" d="M144 810v32q0 26 2 53q15 6 38 8.5t45.5 -1t41 -14t24.5 -30.5q12 21 28 52.5t38.5 60t53.5 46.5q22 13 50 13q11 0 23 -2q-8 11 0 19.5t16 17.5q18 -8 39.5 -5.5t45 7t47.5 7.5q11 2 20 2q14 0 28 -3q11 -2 19 -5.5t14.5 -8.5t14 -10t16.5 -9q13 -8 37 -19t47.5 -21 t39.5 -16.5t15 -6.5q4 1 14 -3.5t22 -11.5t23.5 -15t20.5 -13q17 -44 33.5 -77.5t30 -64t23.5 -61.5t14 -70q4 -27 4 -60q0 -14 -1 -30q-2 -51 -12 -120q-19 -6 -38 -37t-36 -67.5t-30.5 -70.5t-20.5 -47q-9 3 -14.5 1.5t-11 -4t-12.5 -5.5t-19 -4q-44 -29 -79 -50.5 t-72.5 -37t-84 -24.5t-113.5 -11q-13 3 -27 15t-29.5 28t-31 33.5t-30.5 31.5t-29.5 22t-26.5 5q3 -29 3 -78.5t0.5 -107.5t2 -119t7.5 -112q1 -19 1 -42v-23q-1 -36 -8.5 -67.5t-26.5 -54t-56 -24.5q-32 -5 -49 -6h-2q-15 0 -33 12q-2 2 -2 4.5t-2 5.5q8 5 12.5 11t1.5 16 q-2 11 -10.5 18.5t-14.5 18.5q-5 41 -5 98.5t2 119t4.5 121t2.5 105.5q0 57 -3.5 110.5t-7.5 109t-7 115.5q-2 46 -2 97v35v14q0 26 -2 53q-4 35 -8.5 73t-7.5 78zM347 577q0 -7 3 -13q5 -9 15 -29q2 -6 5 -20t4 -29t-2.5 -28t-13.5 -18q28 -24 51 -42t46.5 -33.5t48 -30.5 t55.5 -33q43 5 74.5 12.5t57 17.5t49 23t51.5 29q31 -5 49 11.5t28.5 39.5t17 46.5t15.5 33.5q-8 12 -4.5 36t17.5 46v49q1 5 1 9q0 12 -1 19q-2 10 -4 15.5t-6.5 13.5t-11 20t-15.5 36q-7 2 -14 6.5t-14 8t-14 4t-14 -4.5q-2 6 -5.5 15.5t-7.5 19.5t-7.5 19t-5.5 14 q-12 4 -22.5 2.5t-18.5 -3t-12.5 0.5t-4.5 14q-1 3 0.5 7t1.5 9t-3.5 10.5t-14.5 10.5q-17 -8 -32 -9t-27 19q-9 -2 -15.5 -2t-13.5 0.5t-15 1.5q-5 1 -10.5 1t-13.5 -1q-62 -24 -101 -45t-63 -48.5t-38 -65.5t-27 -95q-8 -31 -13 -45q-5 -18 -5 -25z" />
<glyph unicode="q" d="M113 440q4 97 26 186.5t60.5 164t89.5 120.5q20 12 40 30.5t41 38t43 38.5t45.5 32t48 17t50.5 -6q19 14 43 17q14 3 30 3q9 0 18 -1q24 -2 49 -8t46 -11t45.5 -23.5t45.5 -45t36 -58.5t16 -62.5t-14.5 -57.5t-54.5 -44q2 22 -11.5 25.5t-41.5 1.5q1 9 1 16q0 33 -11 55 q-12 28 -34.5 41.5t-52.5 15.5t-62 -4.5t-63.5 -19t-56.5 -27.5q1 -6 -2.5 -12.5t-6.5 -13.5t-4 -15.5t5 -17.5q-49 -24 -78 -56t-45 -68t-23 -73.5t-12.5 -73.5t-13.5 -68t-25 -56q-10 -18 -11 -37.5t3 -35t12 -25.5t17 -9q-2 -36 7.5 -51.5t21 -24t20.5 -17.5t6 -32 q12 15 26.5 20t29 3t28 -8.5t23.5 -14t14.5 -13.5t1.5 -7q14 1 23.5 8t22.5 17t32.5 20.5t54.5 19.5q9 37 34.5 85t56 96.5t60.5 94t48 77.5q17 -6 31 5.5t27.5 31.5t27 43.5t29.5 42.5q25 -5 41 -11t29 -15t24.5 -22t27.5 -32q-27 -66 -41.5 -118t-22.5 -106t-12.5 -118 t-13.5 -154q18 3 23.5 -1t5 -12t-3 -19t1.5 -23q12 12 22 28.5t19 32t18 29t19 20t21 4t24 -17.5q16 15 27 13.5t19 -11.5t16 -24.5t18 -26.5q-9 -8 -10.5 -15.5t0 -16.5t3.5 -20.5t1 -27.5q-32 -19 -52 -37t-32.5 -35.5t-21 -36.5t-18 -40t-22.5 -45t-35 -52 q9 -34 1.5 -52.5t-18.5 -32.5t-18.5 -28.5t1.5 -39.5q-13 -23 -24 -34.5t-25 -15.5q-7 -2 -17 -2q-7 0 -15 1q-20 3 -51 10q-19 89 -29 148t-14 102q-2 30 -2 56v21q2 33 5.5 72t7.5 89.5t6 127.5q-24 -13 -41.5 -33.5t-30 -44t-21.5 -47.5t-16 -45q-43 -12 -85 -26 t-89.5 -25.5t-103.5 -17.5q-42 -5 -93 -5h-32q-69 43 -110.5 116.5t-59.5 162.5q-15 72 -15 150q0 17 1 34z" />
<glyph unicode="r" horiz-adv-x="682" d="M135 956q5 -3 13 5.5t17.5 22.5t22 30t28 27.5t34 15t40.5 -7.5q14 -7 23 -25t14 -40.5t7 -46.5t2 -44.5t-0.5 -34t-0.5 -14.5q26 15 43 46.5t25 63.5q20 -4 35.5 7t28.5 28t24 36.5t22.5 34t23.5 18.5q3 1 7 2q10 0 21 -9q21 8 36.5 6t28.5 -11t24.5 -23t24.5 -29 q9 -17 10 -29v-6q0 -9 -2 -15q-3 -10 -8 -19.5t-6 -20.5q-26 -11 -40.5 -23t-33.5 -29q-16 -15 -37 -28.5t-44.5 -30.5t-47.5 -41t-46 -61t-40.5 -90.5t-31.5 -128.5q-6 -32 -6 -59v-8q1 -31 14 -48q-2 -4 -5.5 -12.5l-7 -17t-6 -14t-2.5 -3.5q-3 -18 -3 -37q0 -13 2 -27 q4 -33 5 -71q1 -13 1 -26q0 -27 -3 -55q-4 -44 -24 -96q-9 -5 -20 -6t-22 -1.5t-21 -2.5t-17 -8q-53 25 -75 58q-11 17 -11 38t10 47q-2 13 -6 29.5t-6 33t0 30.5t12 22q-4 59 -4 139.5t-1 164t-5 161.5t-14 133q4 16 5 27t0.5 21t-2.5 22z" />
<glyph unicode="s" horiz-adv-x="1024" d="M106 752q-1 10 0 19q0 18 3 35q5 25 19.5 44.5t41.5 28.5q-2 9 -1.5 15t2 11t3.5 10t2 13q18 5 26 9t12 11t6 20t7 36q13 5 18 6t7 1.5t2.5 2.5t5.5 10q6 -5 17.5 -6t23.5 2.5t21.5 12.5t11.5 26q7 -7 17 -5t21 8t23 12.5t23 7.5t20.5 -6.5t16.5 -28.5q6 2 7 6.5t0.5 10 l-1 11t3.5 10.5q20 -9 34 -12t36 12q1 -14 3.5 -17.5t5.5 -1.5t8 6.5t13 6.5q0 -6 -0.5 -8.5t-0.5 -5v-6.5t1 -12q6 -3 7.5 0.5t2 10t2 13t7.5 8.5q18 -5 31.5 -10t24.5 -12t18.5 -17.5t13.5 -27.5q9 2 8.5 12.5t-0.5 19.5q30 -11 49.5 -23.5t36 -26.5t35 -31.5t47.5 -38.5 q3 -30 -3 -52.5t-18.5 -39.5t-30 -28.5t-38.5 -19.5q0 4 -6 12t-13.5 17t-13.5 17t-6 12q-59 42 -123 58q-39 10 -77 10q-24 0 -47 -4q-60 -10 -114 -45.5t-96 -96.5q28 -45 55 -69t55.5 -35t58.5 -13.5t63 -3.5t70.5 -4.5t80.5 -17.5q-2 -9 2 -15.5t10 -12t11.5 -11 t5.5 -11.5q39 -3 78 -18.5t75 -41t67 -60.5t54 -76q1 -21 1 -41q0 -84 -23 -144q-29 -76 -84.5 -122t-131.5 -67t-163 -21q-31 2 -79 4.5t-99.5 11.5t-99.5 28.5t-79 55.5q-9 -2 -15.5 0t-12 6t-11 9t-12.5 9q3 19 -0.5 33t-8.5 24.5t-9.5 18.5t-3.5 15q15 20 22.5 43t14 43 t17 33t32.5 12q12 -3 13 -9.5t-5 -15.5q15 8 28.5 9.5t25.5 -0.5t22.5 -7t19.5 -10q-2 -10 -5.5 -23t-7.5 -24t-9 -17t-11 -2q16 -38 46 -51.5t67.5 -17t79 -3.5t80.5 -12q5 5 8.5 12t5.5 13q29 -3 54 3t48 18.5t44 29.5t43 35q0 8 1 18t1 18t-2.5 13t-10.5 4q-4 4 -2.5 9.5 t4.5 9.5t6 6.5t3 1.5q1 0 -6 11.5t-17 25.5t-21 27t-20 16q-2 1 -5 -1.5t-6.5 -4.5t-7 -3.5t-5.5 1.5q-6 4 -10.5 8t-9.5 7.5t-14 8t-24 10.5q-16 9 -35.5 15.5t-39 12.5l-39 12t-35.5 12q-22 6 -43.5 6.5t-42.5 -1t-41.5 -2t-40.5 2.5q-1 0 -3 3.5t-4 8t-4.5 8t-3.5 4.5 q-18 6 -29.5 16t-20 22.5t-16.5 28t-18 32.5q-5 1 -8 -1t-5.5 -4.5t-6 -4t-10.5 0.5q-12 13 -23 36t-19 49.5t-10 54.5z" />
<glyph unicode="t" horiz-adv-x="569" d="M37 926q12 14 23 23t22.5 14.5t25.5 7.5t33 2q15 7 20 23.5t5.5 39.5t0 51t3.5 58q4 33 12 60t16 53.5t15 54t10 61.5q19 -2 46.5 -9.5t56.5 -21.5q13 -27 17 -69q3 -30 2 -61q1 -12 1 -24q-2 -44 -5 -85t-3 -68q51 29 78 35.5t40.5 -1.5t19 -28t13.5 -43 q-9 -27 -25.5 -47.5t-36 -36t-39.5 -27t-36 -20.5q-11 -72 -18 -152q-6 -82 -9 -166q-2 -63 -3 -128q0 -22 1 -43q1 -87 5 -172q0 -5 6.5 -11t14.5 -12t14.5 -12.5t5.5 -13.5q27 15 44.5 16.5t32 -5t28.5 -18t34 -22.5q-4 -48 -24.5 -76t-50 -44t-63.5 -22.5t-65 -11.5 q-15 25 -36 29.5t-40 1.5q-34 43 -49 103q-15 59 -19 129q-2 37 -2 76q-1 34 1 69q4 75 9 149t7 144v28q0 54 -6 101q-9 6 -15.5 4t-12.5 -7t-13 -11t-19 -7q-16 10 -26.5 25t-18 33.5t-14 39.5t-14.5 44z" />
<glyph unicode="u" d="M136 714v34q0 102 3 213q10 8 15 19t8 23t6.5 25.5t11.5 26.5q17 3 32 3q35 0 65 -16q43 -22 71 -59q-8 -21 -8.5 -32.5t2 -21.5l5 -20t1.5 -28q0 -8 -4 -15.5t-9 -14.5t-9 -14.5t-5 -15.5q-2 -14 1 -21t8 -13t9.5 -14t4.5 -25q0 -9 -4.5 -13t-9.5 -8t-10.5 -8.5 t-6.5 -13.5q-2 -9 -1.5 -26.5t2 -37.5t3.5 -39.5t4 -34.5q2 -24 6.5 -54.5t8.5 -57.5t7.5 -46t4.5 -20q1 -26 6 -52t13.5 -54t20 -58.5t25.5 -66.5q94 56 173 130.5t134.5 177.5t83.5 239q21 105 21 237q0 38 -2 78q25 13 47 14t42.5 -6t39.5 -19t37 -24q22 -69 24 -129 q1 -17 1 -34q0 -42 -4 -82q-6 -56 -12 -111q-4 -31 -3 -61q0 -24 2 -48q6 -56 8 -111.5t10 -105.5q6 -37 13.5 -69l15 -64t14 -66.5t9.5 -76.5q-12 -17 -28 -21.5t-35 -4t-41.5 4t-47.5 2.5q7 15 -0.5 22.5t-20 14t-25.5 13.5t-17 20q1 34 3.5 66.5t3 62.5t-2.5 56.5 t-13 49.5q-9 -24 -27.5 -46t-39 -43.5t-38 -43.5t-24.5 -47q-40 -23 -76 -56.5t-77 -60t-92 -36.5q-16 -3 -34 -4q-39 0 -87 16q-28 8 -50 28t-36 31q-48 111 -74.5 218t-39 217.5t-12.5 227.5z" />
<glyph unicode="v" horiz-adv-x="1024" d="M27 1047q11 3 14 14h4q14 1 23 -5q10 -6 20 -13t21.5 -12t31.5 -1q42 -38 72 -86.5t53 -104t42.5 -117t41.5 -125.5t49.5 -129.5t67.5 -129.5q22 32 35.5 65.5t23 68t19 71t24.5 75.5q3 0 7.5 3.5t9 8t9 8t7.5 3.5q8 43 24.5 82t38.5 75.5t46.5 72t48.5 71.5 q2 12 -1.5 22.5t-8.5 21.5t-9 21.5t-2 22.5q7 12 19.5 12.5t25 -1t21.5 1t10 18.5q19 -13 36.5 -20.5t31.5 -14t24.5 -14.5t14.5 -22q3 -10 4 -25v-10q-2 -22 -11 -56q-5 -20 -14.5 -37t-20.5 -32.5l-22 -31t-18 -32.5q-16 -32 -30.5 -71t-29 -79t-30 -78t-33.5 -69 q-10 -16 -14 -32.5t-6 -32.5t-4 -31t-7 -29q-8 -18 -17 -34.5t-17.5 -32t-15.5 -32t-11 -34.5q-6 -29 -10 -51.5t-8 -43.5t-9 -42.5t-12 -48.5q-12 -1 -17.5 -5t-10 -8.5t-10 -8t-16.5 -3.5q-5 9 -17 11t-26 4t-26.5 8t-16.5 24q4 1 6.5 6.5t3.5 12t1.5 10.5t1.5 2 q-36 17 -58 51t-40.5 75t-40 84t-56.5 79q5 5 11.5 16.5t15.5 13.5q-8 4 -14 9.5l-12 11t-13.5 9t-18.5 3.5q-7 56 -23.5 106.5t-38.5 99.5t-46 97t-45 98t-35.5 103t-17.5 113z" />
<glyph unicode="w" horiz-adv-x="1479" d="M6 1059q16 -2 42 -2.5t53 -3.5t52 -9.5t40 -19.5q20 -92 39 -162.5t39 -136.5t43 -136.5t51 -162.5q0 -5 10 -14t21.5 -26t20.5 -46q7 -24 7 -58v-16q21 29 37.5 67t34.5 78t39.5 77t52.5 65q13 49 24.5 80.5t23.5 54.5t24.5 41t27.5 40t33 52t41 78q20 -2 31 -7 t20.5 -12t20.5 -16.5t30 -21.5q6 -20 7.5 -38.5t4.5 -33t9.5 -25.5t23.5 -16q-13 -15 -12 -35t9.5 -44t22.5 -50t27.5 -53.5t23.5 -55t11 -53.5q6 0 13.5 -12.5t14.5 -28.5t11.5 -30.5t5.5 -18.5q40 50 66.5 107t45 118t30 123.5t22 124t21.5 120t28 110.5q25 7 51 7 q18 0 38 -4q46 -9 90 -40q1 -14 1 -28q1 -80 -19 -156q-22 -90 -55.5 -179t-69 -179.5t-58.5 -186.5q-33 -24 -53.5 -63.5t-39.5 -80.5t-42 -78t-60 -55q-32 23 -59 61.5t-50.5 86t-44 100.5t-39 106.5t-35 104t-32.5 92.5q-28 -35 -52.5 -82.5t-47.5 -100t-46.5 -107 t-50 -105t-57 -92.5t-67.5 -70q-15 1 -21 6.5t-10.5 10.5t-10.5 7t-20 -3q-41 46 -68.5 94t-50.5 94t-45 89t-53 81q-2 42 -10.5 76.5t-18.5 65t-18.5 59.5t-11.5 61q-3 25 2 41t2 33q-8 26 -24 45t-27 51q-7 19 -9.5 45.5t-11.5 52.5q-5 14 -12 29t-13 32.5t-10 39t-4 47.5 z" />
<glyph unicode="x" horiz-adv-x="1024" d="M60 88q24 21 30.5 44.5t10.5 45.5t13 41t38 31q3 8 1.5 13t-4 8.5t-4 6.5t0.5 9q17 6 30 17.5t30 21.5q-2 6 -11.5 8t-17.5 4q29 22 48.5 53.5t38.5 63.5t41.5 60.5t57.5 45.5q-20 57 -55.5 106.5t-73 97.5t-71 97.5t-49.5 106.5q-12 7 -21 17.5t-13 22.5t-1.5 24 t14.5 22q26 3 48 3q38 0 65 -8q43 -12 69 -35.5t38.5 -53t21.5 -56.5q24 -27 42.5 -54.5t35.5 -55.5t35 -55.5t42 -53.5q10 12 20 30t13 32q32 -2 48 10.5t24 32.5t10.5 43t8.5 43t19 33t40 12q-5 8 3 29t23.5 43.5t36 42t41.5 24.5q21 -6 47.5 -15t48 -21.5t33.5 -29 t6 -37.5q-31 -22 -49 -42t-29 -40.5t-19.5 -41.5t-21 -44t-33 -48.5t-55.5 -55.5q-3 -35 -6.5 -53.5t-11 -31t-21 -24.5t-36.5 -34q43 -66 85.5 -122t84.5 -111t84 -112t84 -124q-4 -9 -14.5 -23.5t-24 -26.5t-30 -18.5t-32.5 0.5q-32 12 -62 42.5t-58.5 70.5t-57 83.5 t-57.5 82.5t-59.5 68.5t-63.5 39.5q-30 -12 -56 -35.5t-48.5 -52.5t-41.5 -61t-34 -60q-20 -27 -39 -58t-39 -57.5t-43 -45.5t-51 -23q3 0 -0.5 0t-10 0.5t-14 2t-12.5 3.5q-22 9 -31 17.5t-13 18t-6 20.5t-10 26z" />
<glyph unicode="y" horiz-adv-x="1024" d="M33 -135q3 28 8 61t-4 58q24 9 41 13t31 6.5t28 4t33 6.5q7 -8 9.5 -15t4.5 -14t5.5 -13t13.5 -11q-3 -5 -2.5 -10.5t2 -12.5t1 -14.5t-4.5 -15.5q0 -14 7.5 -27t18 -25.5t22.5 -25t21 -25.5q70 -37 135 -49q36 -7 71 -7q27 0 52 5q59 9 111 38.5t96 76.5q3 12 4.5 19.5 t2 13.5t0.5 12.5t-1 17.5q26 40 37.5 85t13.5 91q1 12 1 25q0 33 -5 67q-5 47 -12.5 90t-15 81.5t-8.5 68.5q-19 -7 -33 -19.5t-25 -29t-19.5 -36t-17.5 -38.5q-26 -4 -46 -13.5t-37 -21.5t-33 -23.5t-34.5 -18.5t-42.5 -7.5t-56 9.5q-36 11 -63.5 29t-48 37.5t-34 39.5 t-22.5 35q-4 9 -5 23t-2 29.5t-3.5 31.5t-10.5 29q-2 5 -6.5 8.5t-9.5 6t-9.5 5t-5.5 6.5q-8 22 -11 47t-4.5 50.5t-2 51.5t-4.5 52q-3 22 -10 45.5t-14 46.5t-12 46.5t-3 45.5q2 37 5 54t6 28.5t5.5 24t3.5 41.5q19 -5 40.5 -3.5t42 2.5t39.5 -3t34 -19q12 -36 17.5 -60 t8 -45t2.5 -44.5t1 -59.5q-8 1 -11.5 -0.5t-5 -4.5t-3 -7t-5.5 -8q0 -24 7 -46.5t16 -46t18 -47.5t14 -51q5 -24 8.5 -52t13.5 -54.5t31 -47.5t62 -30q-3 4 1.5 12t14 17t22.5 16.5t28 9.5q38 28 58.5 52.5t31 47t14.5 44.5t7.5 46.5t10.5 52t25 60.5q-1 49 -2 83t-1 63 t2.5 58.5t8.5 70.5q13 -2 23.5 -12.5t7.5 -24.5q10 -3 16 -1.5t10 3t7 2t8 -3.5q10 -2 18.5 -9.5t17.5 -14.5t19.5 -12t24.5 -3q8 -34 9 -70q1 -24 1 -48v-25q-1 -36 -1 -73t7 -73q28 -40 36 -85q3 -19 3 -40q0 -29 -6 -61q13 -42 13.5 -84.5t1.5 -84t8 -80t34 -73.5 q-8 -51 -10.5 -99.5t-7 -95t-13.5 -92t-30 -89.5q-29 -60 -76.5 -107.5t-107.5 -79t-129 -44.5q-42 -8 -85 -8q-26 0 -53 3q-13 1 -29 7t-35.5 11.5t-41 8t-45.5 -1.5q-9 12 -23 20.5t-27.5 16.5t-25 18.5t-16.5 26.5q-16 -8 -23.5 -7.5t-13.5 9t-13.5 24t-23.5 37.5 q-15 18 -30 31t-26.5 27.5t-16 32t2.5 44.5q-6 -5 -9.5 -11.5t-12.5 -4.5z" />
<glyph unicode="z" horiz-adv-x="1024" d="M41 12q2 14 5 22.5t4.5 17t2 18t-1.5 24.5q26 31 48.5 68t44 75t42.5 73t45 61q32 13 55 40t43.5 58t42 61.5t50.5 51.5q21 49 60 86t81.5 71t82.5 69.5t63 82.5q-65 17 -119 21q-25 2 -49 2q-28 0 -55 -2q-51 -4 -105 -11.5t-121 -11.5q-14 -3 -24.5 -3t-24.5 -9 q-32 0 -52 4.5t-42 1.5q-10 19 -11 36.5t1 33t3.5 30t-4.5 27.5q7 -5 9 0.5t2 11.5q17 3 35.5 -0.5t37 -6t36 0.5t32.5 18q74 18 142 22q34 2 67 2t65 -2q64 -4 127 -14t129 -22q17 7 42 9t50.5 -3.5t47.5 -20.5t33 -42q-19 -36 -34 -67.5t-24 -76.5q-66 -44 -121.5 -91 t-106.5 -98t-100 -105t-102 -111q5 -5 5.5 -13.5t0.5 -17.5q-63 -45 -105 -89t-61 -99q12 1 26 -7t28 -15t27.5 -9t25.5 10q43 -7 83 -6q27 0 53 2q64 8 120 14q28 3 55 3t53 -3q52 -6 103 -43q11 3 19.5 8t19.5 7q12 -19 19.5 -38t4.5 -40q16 0 21 -4t5 -8t-3 -12 q-2 -6 0 -11q-27 -4 -53.5 -15.5t-53 -19t-54 -4t-56.5 30.5q-33 -12 -60.5 -13.5t-52 -0.5t-47.5 -0.5t-47 -14.5q-60 13 -120 13q-9 -1 -19 -1q-70 -2 -135.5 -7.5t-124.5 -8.5q-11 -1 -22 -1q-46 0 -87 11z" />
<glyph unicode="{" horiz-adv-x="684" d="M57 616q3 9 9 17t14.5 13.5t17 7t15.5 -2.5q40 27 82.5 42t84 31.5t78 41.5t64.5 72q8 13 8.5 25t-0.5 23.5t0 22.5t10 21q-9 24 -13 54t-8 61t-10.5 59t-19.5 47q7 24 5.5 51.5t-6.5 56t-10.5 55.5t-6.5 50q29 32 64 62t63 65q34 0 62 -8.5t51 -22t43 -30.5t38 -35 q-5 -17 -20 -24.5t-34 -10.5t-37.5 -4.5t-29.5 -5.5q-18 -25 -31 -57.5t-18 -55.5q18 -53 25.5 -101.5t12.5 -95.5t11 -94t21 -96q-1 -21 -4 -38.5t-7 -34t-8.5 -33.5t-7.5 -35q-27 -16 -54.5 -36t-56.5 -39.5t-60.5 -36.5t-65.5 -26q1 -24 9.5 -40.5t21.5 -28t29.5 -18.5 t33.5 -13q6 -8 11 -18t10.5 -18.5t12 -14t15.5 -4.5q25 -53 33 -104.5t6 -103t-11 -103.5t-19 -104.5t-17 -106t-4 -109.5q1 -7 6.5 -10t10.5 -6t7.5 -8t-0.5 -17q16 -6 39 -9.5t47.5 -7t48.5 -9t42 -15.5q2 -1 3 -4.5t1 -7.5v-8t2 -5q5 -3 17 -3.5t15 -2.5 q17 -12 17.5 -27.5t-4.5 -41.5q2 -9 -6 -16.5t-19.5 -10.5t-24 0.5t-18.5 15.5q11 7 6 12t-16 13q-26 1 -46.5 -6t-37 -11.5t-29 -2.5t-22.5 20q-36 -5 -70.5 9.5t-63.5 42.5t-51.5 66.5t-33 80.5t-8 85.5t23.5 82.5q-4 13 -1 23.5t6.5 18.5t5 12.5t-4.5 6.5q5 35 16.5 77 t20 86t10 88.5t-13.5 84.5q-41 24 -81.5 47.5t-77 50.5t-67 60t-51.5 77z" />
<glyph unicode="|" horiz-adv-x="532" d="M211 283q6 9 9 20t16 16q-23 101 -24 192.5t11 184.5q1 11 5 28t6 34.5t-0.5 33t-14.5 23.5q-2 9 1.5 13t8.5 7t9.5 6t5.5 9q-18 47 -21 93.5t1.5 94t12.5 96.5t13 101q9 -3 13 -1.5t6.5 4.5t4.5 6.5t7 4.5q-11 34 -14 68t-0.5 66t10.5 59.5t20 48.5q17 -3 29 -9.5 t23.5 -14t24.5 -14.5t32 -11q4 -86 3 -173.5t-3.5 -175t-5.5 -173.5t-3 -170q-2 -66 4.5 -132t4.5 -135q-1 -38 -4 -78t-3 -78.5t6 -75.5t23 -69q-12 -34 -8 -74.5t11.5 -84.5t12 -88.5t-7.5 -86.5q12 -38 19 -80t0.5 -81t-29 -69.5t-68.5 -45.5q1 5 -4.5 10t-13.5 7.5 t-16 1.5t-13 -7q-9 3 -4.5 7.5t4.5 11.5q-46 -2 -69 17t-29 45t1 53.5t22 43.5q-3 79 -3.5 141.5t-2 121t-5.5 120t-14 138.5z" />
<glyph unicode="}" horiz-adv-x="684" d="M47 -330q6 35 23.5 58.5t36.5 46.5q10 0 27.5 -2t35.5 -5t34.5 -6.5t24.5 -7.5q23 23 52.5 54.5t58 69t52.5 79t37 83t11.5 81t-24.5 74.5q3 5 3.5 8t0.5 6v6.5t2 11.5q-6 -6 -8 0.5t-4.5 16.5t-7 20t-15.5 12q-7 56 6.5 97t36 75t48.5 65.5t44 68.5q-29 18 -56.5 40.5 t-50.5 47.5t-39.5 52t-23.5 56q6 7 4 15.5t-7.5 18.5t-12 20.5t-8.5 21.5q-4 20 -2 41.5t7 44.5t10.5 49t8.5 55q4 37 3 77t-5.5 79.5t-12 77t-15.5 70.5q-9 2 -22 5.5t-29.5 5t-35.5 -0.5t-40 -10q-8 18 -22 29.5t-27.5 23t-23.5 27.5t-9 45q10 6 18.5 7t16.5 1t17.5 1.5 t22.5 8.5q27 -5 52.5 -8t49 -11.5t43.5 -26.5t36 -52q29 -11 54 -38t41.5 -61t23 -70.5t-2.5 -66.5q14 -25 17 -58.5t1.5 -71t-6 -77.5t-6 -79t3.5 -75.5t21 -66.5q8 3 14 -1t11 -8.5t9 -7.5t7 3q5 -2 4.5 -8.5t1.5 -12.5q21 -6 36 -14t28.5 -18t26.5 -21.5t30 -24.5 q12 -23 22 -44.5t25 -26.5q-9 -19 -4.5 -27t16.5 -8q-33 -24 -61.5 -48t-54 -51.5t-48.5 -59t-46 -70.5q6 -25 13.5 -43.5t14.5 -36t12 -36t7 -42.5q1 -6 3 -6t4.5 1.5t5 2t5.5 -5.5q9 -33 5 -74t-17 -79.5t-31.5 -70t-38.5 -45.5q1 -11 0 -18t-3 -13t-3.5 -12.5t0.5 -15.5 q-21 -5 -32.5 -14t-19 -22t-14.5 -28t-20 -30q-9 2 -18.5 0t-18.5 -4q-1 -6 0.5 -9l3 -6t2.5 -7t0 -11q-24 -9 -41 -21.5t-33 -24.5t-35 -21.5t-48 -12.5q-3 11 -11.5 14.5t-17.5 2t-16.5 -7.5t-8.5 -13q-11 2 -17 9t-17 9q0 18 -13 31.5t-30 23.5t-33.5 16t-24.5 9z" />
<glyph unicode="~" horiz-adv-x="1196" d="M92 692q75 68 155 128.5t171 94.5q14 -5 23 -8.5t18.5 -5t21 -2t29.5 1.5q43 -28 100 -59.5t129 -65.5q32 -15 54.5 -32.5t42.5 -30t41 -17.5t51 4t50 29t33 46.5t19.5 58t9.5 65.5q19 7 32 6t25 -4t25.5 -4.5t34.5 4.5q4 -14 11 -30t14 -32.5t12 -32.5t4 -30 q-2 -22 -14.5 -54t-30.5 -65t-39.5 -61t-40.5 -43q-4 -3 -27 -10.5t-49.5 -16t-49 -14.5t-23.5 -6q-7 -1 -28 3t-47 11t-51.5 15.5t-41.5 17.5q-6 5 -9.5 14.5t-11.5 14.5q-5 3 -14 0t-12 0q-16 11 -23.5 26t-19.5 23q-11 6 -25 6t-25 6q-9 8 -9.5 20.5t-8.5 20.5 q-13 11 -28 14t-28.5 5.5t-24.5 7.5t-17 20q-26 11 -39.5 8.5t-22.5 -11.5t-17.5 -21t-23.5 -21q-8 -5 -16.5 -6t-16.5 -1t-15 -1.5t-13 -5.5q-18 -12 -36.5 -28.5t-39 -34t-42 -34t-44.5 -28.5q-9 9 -26 6q-10 15 -21 28.5t-19.5 29.5t-13 35.5t-2.5 45.5z" />
<glyph unicode="&#xa1;" horiz-adv-x="682" d="M244.5 -233q2.5 19 7 38t7.5 34t-1 20q-10 9 -10.5 23.5t4 30t10.5 29t8 21.5q-5 52 -6 97.5t0.5 90.5t3.5 92t2 103q-3 9 -1.5 11.5t4.5 3.5t6.5 2t5.5 6q-6 41 -3 82t9 80t13 76t11 71q20 5 41.5 3.5t42.5 -7.5t40 -14.5t34 -16.5q-1 -16 0.5 -33.5t3 -34t1 -32.5 t-4.5 -29q8 -12 9 -24t-1 -26t-5 -30.5t-3 -36.5q0 -44 6 -88.5t9.5 -88t1.5 -85t-17 -80.5q11 -32 12.5 -78.5t-1 -98.5t-6.5 -105.5t-3 -100.5q12 3 13 -6t-3.5 -22.5t-11 -27.5t-10.5 -19q-87 3 -138 38.5t-77 100.5q-6 12 -3.5 31zM278 930q7 17 12 31t-7 32q12 4 19 11 t11.5 15.5t8.5 18.5t10 19q32 -2 62.5 -7.5t54 -19t37.5 -36.5t14 -58q-10 -6 -14 -16t-13 -15q1 -5 3 -4.5t4.5 2.5t6 2.5t7.5 -4.5q-20 -34 -49.5 -46t-61 -6.5t-60 27t-45.5 54.5z" />
<glyph unicode="&#xa2;" d="M129.5 691q1.5 27 12 53t26.5 53.5t32 58.5q10 20 12.5 44t11.5 36q5 6 16.5 8t14.5 8q14 23 19 48.5t14 39.5q15 19 38 34.5t49 26.5t52.5 16t48.5 3q0 -1 4 2t10.5 8.5t15.5 11.5t19 11q-9 44 -8 72.5t7 54t15 54t17 71.5q22 1 34.5 12.5t24 23t25 18.5t39.5 -1 q19 -38 21.5 -75t-2.5 -76t-12 -83t-7 -96q46 -30 93 -53.5t87.5 -53.5t70.5 -73t42 -110q-16 4 -25.5 4t-17 -1.5t-15.5 -4t-22 -5.5q-4 12 -9.5 18t-11 11t-11 10.5t-9.5 14.5q-26 -6 -45.5 -0.5t-37 14.5t-35.5 18.5t-42 12.5q-12 -16 -15.5 -48.5t-2.5 -70.5t3.5 -75 t2.5 -62q0 -51 -4.5 -99.5t-7.5 -97.5t-1.5 -100.5t13.5 -108.5q84 32 134.5 91.5t60.5 132.5q15 0 29.5 2t29 3.5t30.5 0.5t36 -6q-8 -10 -12.5 -26.5t7.5 -29.5q3 -8 8.5 -8.5t11 1t10.5 4.5t9 3q3 -11 7.5 -19.5t9.5 -19.5q-23 -78 -60 -135.5t-85 -99t-105 -69.5 t-121 -48q0 -53 -1.5 -118.5t-9 -128.5t-25 -116.5t-48.5 -82.5q-7 -1 -9 2.5t-3.5 8t-4 8t-8.5 3.5q-27 -7 -45 -1t-31 19.5t-22.5 32.5t-17.5 37q1 48 4 104t6 110.5t3 105t-5 88.5q-57 10 -95 34t-68.5 54.5t-60.5 64t-71 62.5q-5 32 -11 55.5t-9.5 46t-3.5 48.5t6 65 q-2 12 -6 23.5t-6.5 22.5t-2.5 21.5t8 20.5q-14 29 -12.5 56zM324.5 637.5q0.5 -45.5 8.5 -89t16 -73.5q0 1 -1.5 -2.5t-3 -9t-3 -11.5t-0.5 -10q7 -26 26.5 -50.5t41.5 -45.5t41 -36.5t26 -22.5q5 45 8 111.5t7.5 151.5t11.5 186t20 214q-18 13 -43.5 1.5t-49 -36.5 t-40 -57.5t-16.5 -62.5q-29 -28 -39.5 -70t-10 -87.5z" />
<glyph unicode="&#xa3;" d="M27 637q16 0 16 25q21 7 34.5 7h25.5t25 2t32 13q21 -10 44.5 -11.5t46 -1.5t42 -2.5t33.5 -15.5q4 9 7.5 11.5t8 2.5h9t10.5 5q-7 8 -4.5 11.5t4.5 12.5q-9 3 -14 19.5t-10.5 37t-15.5 39.5t-30 27q4 44 -2 79.5t-16 67.5t-21.5 62t-19 61.5t-8.5 67t10 78.5 q-2 5 -6.5 4.5t-6.5 -0.5q-2 37 15.5 69t44.5 60.5t57.5 54.5t54.5 52q10 -4 25 -2l30 4t29 2t23 -9q16 5 32.5 9.5t30.5 4t24 -8t15 -25.5q16 24 37.5 20.5t46.5 -15.5t51 -24t52 -6q18 -34 36 -55.5t37 -40t39 -38t42 -49.5t45.5 -74.5t49.5 -112.5q0 -15 -6 -23.5 t-15 -14t-19 -11t-17 -15.5q-29 8 -47.5 27.5t-22.5 54.5q-11 -12 -25 -9.5t-22 19.5q0 6 3 9.5t6 6t4.5 6t-0.5 11.5q-20 66 -65.5 117t-104.5 78t-127 24.5t-133 -43.5q-36 -43 -48 -96t-8.5 -110t19.5 -116t37.5 -114.5t45 -106t42.5 -90.5q49 -9 85 -8.5t65 5t53 10 t48 6.5t51 -5t62 -24q2 2 9 5.5t15 7t16 6t13 2.5q1 -5 5 -10.5t10 -9t13 -3.5t13 8q16 -16 15 -23.5t-7.5 -12t-12.5 -10t-1 -17.5q-6 -6 -18 -13.5t-32.5 -15t-51 -14.5t-72.5 -11q-3 0 -16 2t-26 3t-22 -1t-3 -10q4 -5 -3 -8.5t-18.5 -6t-24.5 -3.5t-22 -2 q-24 -3 -42.5 -1t-35 3.5t-33 -0.5t-36.5 -14q-1 -26 -7 -48t-13.5 -43t-15 -42.5t-12.5 -45.5q4 -8 10.5 -10t15 -0.5t18 4t18.5 4.5q36 -11 77 -14.5t81 -11t75.5 -25.5t61.5 -57q26 -4 58 -18.5t60 -38.5t46.5 -56t17.5 -69q-7 4 -11 1t-7.5 -9.5t-8 -14t-12.5 -12.5 q-11 -2 -12.5 1t1.5 8t7 11t4 10q-14 -8 -20.5 -18.5t-20.5 -19.5q-6 -2 -9.5 -0.5t-6.5 3.5t-7 3t-12 -2q-19 33 -46.5 53t-58 35.5t-63 30t-61.5 36.5q-25 0 -50 -2.5t-51.5 -5.5t-54 -4.5t-57.5 0.5q-21 -11 -39 -28t-36.5 -36.5t-37 -37.5t-39 -30.5t-44.5 -17t-52 4.5 q-6 24 -15 43t-16 38t-10 42t2 55q39 19 63.5 52.5t42 75t29.5 87t25 88.5q1 18 -8.5 23t-23 3.5t-27 -5.5t-19.5 -3q-8 0 -17.5 9t-19.5 12q-8 4 -17 1.5t-19.5 -6.5t-23.5 -8t-30 -4q-34 1 -52.5 9.5t-29 26.5t-15 46.5t-9.5 69.5z" />
<glyph unicode="&#xa4;" d="M74 348q4 16 14 26t19.5 18t17.5 18t10 26q6 -2 7.5 -8t9.5 -6q8 20 15.5 28.5t23.5 8.5q-6 21 0.5 33.5t12 21.5t2.5 17.5t-28 21.5q4 16 -0.5 30t-13 28t-18.5 28.5t-16.5 30t-8 33.5t7.5 40q-11 22 -9.5 41t7 38.5t11.5 40.5t5 48q5 -3 10 -5.5t5 -8.5q20 24 23 46.5 t-4.5 45t-22.5 45t-30.5 46.5t-27.5 49t-14 53q50 -2 82.5 -13t56.5 -28.5t43 -40t41 -47.5q17 3 29.5 2.5t23.5 1t22 8t24 22.5q27 -8 49.5 -4t44.5 9t43.5 6.5t46.5 -11.5q8 2 11 6.5t11 6.5q13 -6 26.5 -11.5t27 -8.5t27.5 -2t28 9q4 -8 10.5 -13t14 -8l15 -6t13.5 -7 q15 15 32.5 34t36.5 39t38 38.5t39 31.5q22 15 35.5 16t26 -6.5t28.5 -20t43 -24.5q-1 -16 -5.5 -29t-10 -24.5l-11 -23t-8.5 -25.5q-38 -4 -54.5 -25t-26 -46.5t-18.5 -49.5t-30 -33q-1 -8 1.5 -11.5t6.5 -6.5t8 -5.5t6 -7.5q6 -48 9 -108t-1.5 -115.5t-18.5 -99t-42 -59.5 q-2 -9 -2.5 -13.5t-0.5 -7.5t-1 -7t-4 -11q11 -9 17 -23.5t12 -28.5t15 -25.5t26 -15.5q9 -42 -3 -71.5t-53 -34.5q-21 15 -41.5 29t-38.5 27t-31 25.5t-18 24.5q-8 1 -13 -1t-9 -5t-9 -5t-14 -1q3 3 5.5 8t0.5 13q-11 -7 -28.5 -10.5t-38.5 10.5q-12 -9 -38 -13.5t-57.5 -4 t-65 5t-62.5 12.5q-5 1 -9.5 4.5t-9.5 7.5t-10 10q-21 -3 -41.5 -21.5t-40.5 -42t-40 -46t-38.5 -33t-36.5 -4t-35 42.5q-12 4 -20.5 11.5t-16 16t-15 17.5t-17.5 16zM298.5 704q2.5 -25 8 -50t6.5 -42q10 0 12.5 -4t4 -7.5t5 -5.5t15.5 3q-6 -8 -1 -17.5t7 -21.5 q21 -9 36 -22t31 -25t36.5 -22t52.5 -13q0 15 5 19t12 2t14 -7t12 -8q20 7 42 13.5t39 18t26.5 29.5t5.5 48q11 0 17.5 0.5t10.5 3t7 6.5t8 12q6 -2 14 0t16 0q-2 12 2 20.5t7.5 14.5t5 10.5t-5.5 8.5q10 1 12 4.5t2.5 7.5t2 7t9.5 3q0 59 -12 104t-43 89q-1 -4 -4.5 -3.5 t-8 3t-10 5.5t-10.5 3q3 10 6 13l4.5 4.5t2 3.5t-2.5 10q-18 6 -44 13t-53.5 12t-55 6.5t-49.5 -3.5q1 -9 -0.5 -13.5t-5 -7.5t-10 -5t-15.5 -6q0 9 -8 8t-15 2q-2 -8 -4.5 -14.5t-7.5 -8.5q-13 8 -22.5 3t-18.5 -14t-20 -18t-27 -10q1 -13 -4.5 -24t-10.5 -20.5t-6.5 -19 t7.5 -20.5q-21 -10 -26.5 -31.5t-3 -46.5z" />
<glyph unicode="&#xa5;" d="M-2 1442q12 8 28 10.5t25 13.5q42 -20 95 -2q21 -10 35.5 -23.5t26 -29t22 -32t22.5 -31.5q8 -19 28 -32t35 -30q8 -8 14 -19t12 -22.5t12.5 -21t15.5 -15.5q6 -5 19 -5t18 -5q23 -28 30.5 -64.5t14.5 -70.5q9 -8 17.5 -12t16.5 -11q2 -25 9 -39t16 -25.5t18.5 -26 t16.5 -40.5q4 4 11 2t13 -9t10.5 -17.5t4.5 -22.5q21 22 31.5 37.5t17.5 31.5t13 35.5t18 51.5q12 14 36 32.5t39 43.5q5 8 3.5 21.5t3.5 23.5q6 12 19 20t19 19q5 7 7 15t4 15t4.5 14t7.5 13q3 5 14.5 6t14.5 6q11 21 18 47t15.5 49.5t20.5 41t34 22.5q17 3 40.5 0.5 t45.5 -11t37.5 -23t17.5 -34.5q-2 -18 -7 -30.5t-10.5 -25t-9.5 -26t-2 -32.5q-15 -19 -35 -37.5t-40.5 -40t-38.5 -49t-27 -64.5q-5 -6 -15 -17.5t-21.5 -25t-21.5 -27.5t-16 -26q-5 -9 0 -17t0 -14q-8 -13 -22.5 -25.5t-30.5 -26t-31 -29t-24 -33.5q36 7 81 9.5t91 3.5 t89.5 0.5t76.5 0.5q7 -5 11.5 -14t11 -17t16 -14.5t26.5 -7.5q-2 -12 -0.5 -20t4 -15t4.5 -15t0 -20q-51 -23 -102 -28.5t-102.5 -5.5t-104 -2t-106.5 -17q-17 -6 -26 -30t-12 -54t-0.5 -59.5t7.5 -45.5q18 -3 40.5 0.5t45.5 6.5t44 1.5t36 -14.5q12 3 22 6.5t35 3.5 q10 -6 23 -11t26.5 -11t26.5 -13.5t23 -19.5q-5 -35 -25.5 -52t-49.5 -22t-63.5 -3t-68 4.5t-62 1.5t-45.5 -13q-8 -54 -7 -98t-0.5 -81t-11 -68.5t-38.5 -59.5q-23 10 -32.5 10t-15 -3t-12.5 -4t-26 7q-25 9 -37 25t-16 37t-2.5 46t3 52t0 55t-11.5 56q-24 12 -52.5 16 t-58 4t-59.5 -1.5t-58 1t-53 10.5t-44 27q0 28 5.5 49t8.5 43q35 8 72.5 10t71.5 1.5t63 -3.5t47 -4q9 8 21.5 14t29.5 9q-3 18 -3 42t-0.5 47.5t-4.5 45t-14 35.5q-17 7 -47 2.5t-62.5 -11.5t-61.5 -10.5t-44 4.5q-11 -5 -15.5 -15t-7.5 -24q-15 7 -31 10t-31.5 5.5 t-30.5 6t-28 11.5q-3 15 2 24.5t12.5 19.5t15 21t9.5 29q18 2 22 2.5t4.5 1.5t2.5 2.5t16 4.5q3 7 2 13.5t-1 11.5t3 10t13 10q7 1 19.5 0t23.5 -3t18.5 -5t5.5 -7q33 11 56 13t42.5 2.5t39.5 2.5t47 13q-5 21 -7.5 33t-6.5 18.5t-11 10t-21 8.5q3 18 -2 31t-14.5 24 t-21.5 21t-23 22q0 22 -8.5 44.5t-36.5 33.5q4 15 -2.5 29t-16.5 25.5t-21 20.5t-17 15q-13 15 -21.5 36t-23.5 40q-9 8 -23 15.5t-26 16t-18.5 18t-0.5 21.5q-13 19 -28.5 43.5t-32 49.5t-33 49.5t-31.5 44.5z" />
<glyph unicode="&#xa6;" horiz-adv-x="532" d="M225 1358q22 31 21.5 63.5t-6.5 69.5q34 -16 68.5 -30.5t68.5 -39.5q12 -57 15.5 -115t3 -122.5t-3 -137.5t-1.5 -159q0 -23 3.5 -47.5t6.5 -52t3.5 -57.5t-5.5 -64q-12 -16 -22 -29t-17 -33q-43 0 -69.5 18t-40.5 46t-18.5 64t-3.5 74t5 74t7 64q2 8 -3.5 20.5 t-5.5 20.5q0 28 3.5 55.5t8 53.5t8.5 51t5 49q1 22 -5 42t-11 39.5t-5 38t13 38.5q-2 6 -9.5 5t-13.5 1zM238.5 -250.5q0.5 36.5 1.5 72.5q2 76 7 154t7.5 154t0 148t-14.5 136q36 4 56.5 -0.5t35.5 -13t29 -17.5t38 -14q18 -56 24.5 -107.5t10 -100.5t6.5 -96t13 -94 q-7 5 -11 6t-6 -6q-1 -41 1.5 -97.5t0 -113.5t-12 -108t-34.5 -82q-11 8 -19.5 8.5t-17 -1t-18 -3t-21.5 3.5q-32 16 -48 42.5t-22.5 59.5t-6 69.5z" />
<glyph unicode="&#xa7;" d="M92.5 604.5q-1.5 21.5 0 45t4.5 45.5t5 40q10 1 16 5t11 6.5t11.5 2.5t17.5 -6q-5 21 1 35t15 26t18.5 23.5t12.5 26.5q5 -2 8.5 -3.5t5.5 -4.5q10 0 18.5 10.5t10.5 20.5q11 12 24.5 14.5t25 6.5t19.5 14.5t7 37.5q-1 5 -7 10t-13.5 8t-13.5 4t-7 -3q-3 33 -6 60 t-5.5 55.5t-3.5 61t0 77.5q11 4 15.5 13t6 20.5t1.5 24t2 24.5q9 2 13 -3.5t12 -5.5q15 83 131 113q1 5 -0.5 8.5t-3 6.5l-3 6t-0.5 8q29 28 68.5 39t83.5 9t90 -15.5t88.5 -33.5t78.5 -44.5t60 -49.5q-2 -15 5.5 -30t18 -30t21.5 -31.5t17 -34.5t4 -38.5t-18 -43.5 q-23 6 -41 21t-33.5 33t-30 37t-30.5 33t-35 20.5t-43 0.5q-29 19 -65.5 29.5t-73 6t-67.5 -26t-48 -66.5q-12 0 -24.5 -17.5t-21 -43.5t-9 -55t11.5 -52q7 -9 22.5 -25t34.5 -34t38.5 -34.5t33.5 -25.5q15 -10 30.5 -16t30 -10.5t26 -9.5t17.5 -13q15 -9 37.5 -28.5 t46.5 -39.5t46 -34t34 -11q8 -17 14.5 -34.5t15.5 -34t23 -31.5t37 -27q17 -34 37.5 -71.5t38 -77.5t27 -81.5t4.5 -82.5q-4 -29 -17.5 -48.5t-29 -37t-30.5 -36.5t-22 -46q12 3 22.5 -0.5t17.5 -10.5t9.5 -14.5t-0.5 -11.5q10 -26 20 -43.5t17.5 -34t11 -36.5t1.5 -50 q-2 -23 -12.5 -39.5t-22.5 -31.5t-22 -30t-11 -36q-31 -6 -49 -26t-29 -46q-28 -4 -56.5 -21t-58 -38.5t-60.5 -44t-64.5 -38.5t-71 -22.5t-78.5 5.5q-21 -21 -37.5 -23.5t-35 4.5t-42.5 18t-61 17q-18 25 -35.5 47t-32.5 42.5t-25 41.5t-12 45q3 9 8.5 14.5t9 10.5t2.5 10 t-11 12q4 7 7 8.5t6.5 1t8 -1t10.5 3.5q1 9 0.5 15t-2 11t-2.5 11.5t0 16.5q5 9 10 17t7 22l22.5 -4.5t9.5 -20.5q9 1 13.5 4.5t6.5 8t3 9.5t4 11q9 -2 14.5 -0.5t9.5 4.5t9 4.5t14 -0.5q3 -7 3.5 -12.5t2.5 -9.5t7.5 -7t17.5 -4q-2 -18 -10 -29t-13 -26q0 -8 8.5 -7 t14.5 -1q-9 -9 -11 -20.5t0.5 -24.5t8 -28t10.5 -32q62 9 120.5 31t111 55t98.5 76t84 94q-6 11 -27.5 28.5t-44.5 37.5q-21 -8 -45.5 -12.5t-48.5 -3t-45 10.5t-35 27q-13 37 -36 62.5t-52.5 43.5t-64 31t-70 26t-70.5 27.5t-65 35.5q-11 34 -36 61t-59 51q-6 21 -9 42 t-6 38.5t-8 30.5t-16 18q-8 16 -9.5 37.5zM272 551q52 -59 102 -97t98 -61.5t93.5 -37.5t87.5 -25.5t80 -25t72 -36.5q12 18 22.5 46.5t18 58.5t11.5 57t5 41q0 15 -2.5 24t-7.5 15.5t-12.5 13.5t-16.5 19q-21 24 -49 53t-57.5 56.5t-59.5 49.5t-55 33q-10 -25 -24.5 -34 t-30.5 -8.5t-34 8t-35 16t-32.5 14.5t-27.5 4q-1 -3 -2 -7q-2 -8 -6 -9q-43 -11 -64 -26t-32 -31.5t-18.5 -33t-23.5 -30.5q4 -17 4 -24t-4 -23z" />
<glyph unicode="&#xa8;" horiz-adv-x="682" d="M61 1425q8 16 13.5 27.5t11.5 11.5q16 0 28 1.5t22 4t19 4t19 1.5q9 0 21 -5.5t26 -5.5q-1 0 4 -4.5t11.5 -10.5t12 -12.5t5.5 -11.5l3 3q3 3 5 10q4 -1 5.5 -4t4 -5.5t6 -4t11.5 0.5q-13 -24 -21.5 -51.5t-19 -50.5t-25.5 -38t-41 -15q-22 0 -37 6t-27.5 14.5t-24.5 19 t-29 19.5q1 9 3 23t2 28t-1.5 26t-6.5 19zM401 1339q12 14 10.5 32.5t-2.5 35t4.5 28.5t30.5 13q1 8 4 13.5t5 8.5q3 4 6 5h16q40 0 72 -10.5t51 -30.5t21.5 -48.5t-15.5 -64.5q-5 0 -12 -4t-12 -4q-2 -17 -9 -26t-18 -12.5t-24 -4t-25 -0.5q-16 0 -26 3t-19 3q0 4 -1 5.5 t-2.5 3t-3.5 4.5t-3 11q-5 0 -12 0.5t-9 -4.5q-7 6 -7.5 11t-0.5 10t-3.5 10.5t-15.5 11.5z" />
<glyph unicode="&#xa9;" horiz-adv-x="1509" d="M2 709q2 52 13.5 115.5t37.5 142.5q3 10 3 20.5v20t0.5 17.5t4.5 15q3 3 7.5 5t9.5 4t9.5 4.5t6.5 7.5q2 6 2 15v18t0.5 17t3.5 13q5 6 10.5 10.5t10 9.5t6 14t-1.5 24q63 38 116.5 79t77.5 89q5 -5 14.5 -1.5t18.5 9t16 10t7 2.5q22 21 42.5 33t40.5 17.5t40 5.5t41 -3 q6 0 6 8.5v16.5q4 -2 11.5 -1.5t14 0.5t11.5 -1t4 -6q4 4 8.5 8t8 8.5t6 11t1.5 17.5q11 2 15.5 -2.5t7 -11t5.5 -12t11 -5.5q11 -2 16.5 1t8.5 8.5t4.5 11t5.5 10.5q17 -18 37 -22t40.5 -2t41 7.5t40 7.5t37 -3.5t31.5 -24.5q33 3 62.5 -12t58.5 -33t58.5 -33t62.5 -12 q-4 -16 4 -19.5t18 -5t18.5 -7t6.5 -26.5q9 -4 14 -4.5t9 0.5t9.5 2.5t16.5 1.5q13 -29 27 -41t39 -20q-1 -17 10 -32t26.5 -30t32 -30t27.5 -31q-13 -15 -8 -28.5t15.5 -28t21 -32t8.5 -40.5q1 -5 3 -5t5 1.5t7 3t9 0.5q-2 -13 0.5 -23t4 -17.5t0 -13.5t-12.5 -11 q16 -11 24 -27.5t19 -30.5q-8 -21 -8 -43.5t2.5 -46.5t5 -49.5t-1.5 -52.5q-5 -3 -11 -5.5t-15 -2.5q7 -50 1 -91.5t-21 -77.5t-36.5 -67.5t-46 -62t-49 -61.5t-45.5 -66q-5 -1 -8.5 0t-6 2.5t-5.5 2.5t-7 1q-6 -5 -4.5 -13t-3.5 -26q-20 0 -38 -9.5t-36.5 -24t-37 -30.5 t-39 -28.5t-43 -18.5t-47.5 0q-7 -13 -22 -23t-33 -15.5t-37.5 -6.5t-34.5 4q-17 -31 -50.5 -39.5t-74 -10t-83 -3t-77.5 -16.5q-12 16 -30.5 24.5t-40.5 11t-43.5 1t-39.5 -4.5q-97 44 -173.5 113.5t-132 158.5t-89 195.5t-43.5 225.5zM182 766q6 -22 8.5 -41.5t4.5 -37 t5.5 -33t12.5 -29.5q-12 -23 -11 -54t12 -65.5t29 -69t40 -63.5q20 -31 43.5 -62.5t48.5 -50.5q8 -5 11 -10t4 -10t1.5 -9t5.5 -8q6 -5 15 -1t18 1q12 -6 26 -16.5t25 -13.5q32 -12 70 -19t77.5 -7t80.5 7.5t79 22.5q-2 0 6 0.5t19.5 1.5t24 2.5t20.5 3.5q6 12 30.5 22 t54.5 23.5t57.5 31.5t39.5 46q-35 -14 -76 -26.5t-78.5 -21.5t-66 -12t-37.5 2q-24 -13 -40.5 -13.5t-29.5 5.5t-23 15.5t-21 16.5t-25 7.5t-33 -10.5q-6 8 -17.5 12.5t-25 8t-27.5 7.5t-26 13q-13 9 -30 22.5t-33.5 30.5t-30.5 36t-21 40q-3 12 0 28.5t0 28.5 q-8 25 -17.5 48t-14.5 42t-2.5 34.5t20.5 27.5q-14 18 -16 38t2 39.5t11 38.5t12 35.5t5 30t-10 22.5q15 16 19.5 27.5t6.5 21t6 20.5t17 26q0 -4 10.5 -3.5t22 6.5t18.5 18.5t0 33.5q22 3 32 10.5t17 17.5t15 22t27 24q4 7 10.5 10t12.5 2.5t10.5 -3t4.5 -5.5 q22 16 36 28.5t27 20.5t28.5 11t40.5 1q4 7 13 11t19 4t20 -5t17 -16q8 -2 30.5 -4t50 -11.5t54.5 -30t43 -60.5q20 3 25 -6.5t8 -24.5q7 -4 23 -8t32.5 -15.5t29.5 -33t15 -60.5q-2 -19 -1 -34t0.5 -28t-4 -25t-15.5 -25q-20 3 -29.5 4.5t-16 3t-13 3.5t-19.5 5q4 1 4 -3 t-2.5 -9t-7.5 -9t-12 -4q-6 5 -12.5 9t-11.5 9t-8 12.5t-1 18.5q9 3 10.5 12t-1.5 21t-8 25.5t-9 25.5q-3 -13 -17 -16q-19 21 -30.5 41t-28.5 35.5t-45 23t-80 2.5q-26 -14 -44.5 -29t-34.5 -32t-30.5 -36.5t-31.5 -41.5q-2 -3 -11 -2.5t-12 -5.5q-6 -9 -6.5 -24t-2 -28.5 t-8 -20t-24.5 2.5q2 -16 0 -29t-6 -26t-7.5 -26t-4.5 -29q3 -11 7 -23.5t6.5 -24t2 -21t-7.5 -13.5q15 -57 40.5 -90.5t58.5 -50.5t72.5 -19.5t81.5 4t85 18t84 23.5q22 15 38 31t33 31t40 28.5t59 24.5q-5 -12 6 -10t25 7t26 8t10 -5q-4 -3 1 -9.5t11.5 -13.5t10 -13.5 t-3.5 -10.5q16 -2 31.5 14t30.5 37.5t29 43t26 32.5q4 43 4 77t-3 65t-10 62.5t-18 69.5q-12 -8 -18 -6t-9.5 8t-5.5 12.5t-4 6.5q-1 33 -16 66.5t-36.5 59t-46.5 38.5t-46 6q-6 32 -26.5 52.5t-47 34.5t-53.5 24.5t-45 23.5q-11 3 -14.5 2.5t-5 -2t-4 -3t-11.5 0.5 q-7 14 -13.5 19t-16 5t-22.5 -2t-34 -2q-9 -5 -10.5 -3.5t-12.5 -0.5q-1 18 -8 19t-15.5 -1.5t-15.5 -3t-8 14.5q-15 -2 -26.5 -1.5t-23 0.5t-22.5 -3t-24 -13q-41 12 -76.5 2t-68.5 -29t-64.5 -38t-62.5 -25q-2 -5 -0.5 -13t2 -16t-1.5 -13.5t-9 -6.5q-6 0 -8.5 3.5l-5 7 t-6.5 6t-12 0.5q1 -23 -7 -37t-18.5 -24t-20 -18t-12.5 -18q6 -4 2 -11t-9 -16t-8 -19t5 -19q-11 0 -22.5 -5.5t-16.5 -0.5q-13 -12 -18.5 -31.5t-10.5 -39t-12.5 -36.5t-25.5 -24q1 -18 4 -33.5t3 -29t-4.5 -25.5t-17.5 -23z" />
<glyph unicode="&#xaa;" horiz-adv-x="758" d="M47 1006q9 54 9 102t3 100h19q-1 6 -0.5 13.5l1 15t0 13t-2.5 7.5q3 7 5.5 9t5.5 1.5t8.5 -2t14.5 0.5q-1 4 -4 6t-7 5t-7 7t-4 12q-2 9 1.5 12t9.5 3.5t12.5 -0.5t11.5 0q-9 16 -10.5 24t2 13t10 8t12.5 8t10.5 13.5t3.5 25.5q11 -5 17.5 -1t3.5 9q4 7 10.5 8l13 2 t11.5 5t6 18q4 -9 13 -9.5t18.5 5t16.5 15.5t9 22q1 -3 4 -1t7 2.5t8 -2t8 -14.5q0 10 3.5 12.5t8 3t8 2t4.5 9.5q17 0 27 -2t16 -10q19 12 48 13.5t56.5 -7t47.5 -26.5t23 -44q27 -2 42 -9.5t25 -18.5t20.5 -23.5t28.5 -24.5q-2 -48 -8.5 -85.5t-12 -73.5t-6 -76t10.5 -94 q10 -1 13 -8t3 -15t0.5 -15.5t5.5 -8.5q7 -4 11 10q3 7 6.5 3.5t6 -11.5t3 -16.5t-1.5 -12.5q7 -1 10.5 -7t5 -15.5t1 -20.5t-2.5 -21q-11 -23 -16 -41t-12 -32t-18.5 -25t-33.5 -20q-17 4 -26.5 12.5t-17 18.5t-16 21t-21.5 19q-9 18 -10 30t-1 24t-1.5 26.5t-12.5 36.5 q-2 -13 -7.5 -27t-11 -23t-11 -11t-7.5 8q-24 -43 -57 -76t-73.5 -49.5t-87 -14.5t-97.5 29q-35 50 -64 105t-51 125zM219 1057q4 -13 4 -24.5v-21.5t2 -19.5t10 -18.5q7 5 14 -2t13.5 -18t12 -21t8.5 -10q19 15 32 22.5t25.5 17t27.5 25t39 47.5q8 35 27.5 59.5t42.5 47.5 v98q-9 -1 -15.5 8.5t-12.5 22t-13.5 23.5t-17.5 14q-6 0 -14 4t-17 4q-19 -1 -29.5 -3t-19 -7t-16.5 -13.5t-23 -21.5q0 2 -3.5 5t-6.5 1q-6 -5 -11.5 -14.5t-10 -20.5t-7.5 -22t-2 -19q-15 -18 -21.5 -34.5t-7 -33t1.5 -31.5l4 -30q-5 0 -7.5 -7t-8.5 -7z" />
<glyph unicode="&#xab;" d="M133 498q11 34 26 65t31 58.5t32 50.5t28 41q0 22 9.5 38t23 29.5t29.5 25t30 25t23.5 29.5t11.5 39q12 5 24 16t22.5 24t17 25.5t6.5 20.5q23 1 34 -4t15.5 -12t5.5 -15t4.5 -14t12.5 -7t30 5q9 -40 -7 -82.5t-45.5 -84t-65 -82t-65.5 -77.5t-47.5 -69t-9.5 -58 q31 -32 63 -78t65.5 -89t71 -73.5t79.5 -29.5q23 -23 27 -40t-1 -31.5t-14 -28.5t-12 -31q-9 -3 -25.5 -1.5t-33.5 3t-31.5 0t-18.5 -9.5q-31 10 -42.5 21t-19.5 23.5t-22 26.5t-49 29q3 6 -11 18t-31.5 24.5t-31 24t-8.5 17.5q-19 25 -39 51t-38 54.5t-32 61t-22 71.5z M468.5 514q1.5 23 12.5 47q6 5 10 5t7 -1t6 -1t8 5q10 50 33.5 91t52.5 79.5t58.5 77.5t52.5 84q19 7 30 19t20 25t18.5 24t25.5 16q13 1 20.5 -6t14.5 -17t15 -19t22 -13q6 -21 4.5 -35.5t-9 -30t-20 -37t-29.5 -55.5q-2 -2 -7 -12t-11 -22.5t-11.5 -23t-6.5 -12.5 q-4 -5 -5 -11t-1.5 -11.5t-1.5 -9.5t-5 -4q-9 -3 -18 -9t-17 -20q-7 -10 -16 -27.5t-18.5 -35.5t-18 -33.5t-12.5 -22.5q-2 -2 1 -6l7.5 -10t9 -14t4.5 -19q0 -15 7 -24.5t16 -15t17.5 -8t11.5 -3.5q18 -15 25.5 -26t11.5 -22.5t6.5 -26.5t9.5 -38q8 -3 17 -11t9 -28 q31 -8 46 -25.5t17.5 -38t-6 -41.5t-24.5 -36q-9 0 -20 -1.5t-21 -12.5q-48 16 -85.5 45.5t-72.5 70t-73 91.5t-88 110q-9 1 -16.5 13.5t-11 31t-2 41.5z" />
<glyph unicode="&#xac;" horiz-adv-x="1196" d="M166.5 935.5q4.5 32.5 29 50.5t61.5 20t73 -19q1 8 9 12t15 7t10 7.5t-6 12.5q1 4 21.5 4.5t43.5 -1t42.5 -5t19.5 -6.5q50 1 78 5t49.5 5.5t43.5 -2t59 -18.5q6 5 11 10.5t11 11.5q18 -14 38 -15t40.5 3t41 9t40.5 3q8 -2 10.5 -11t5.5 -11q8 -5 13 -5.5t10.5 0.5 t12 2.5t16.5 0.5q11 0 25.5 -0.5t29.5 1t30.5 6.5t28.5 17q20 -17 32 -35t17 -40t3.5 -48.5t-7.5 -60.5q-8 -45 -3.5 -98.5l9 -107t2 -104.5t-23.5 -92q-12 -8 -26 -7t-27.5 2.5t-26 0t-20.5 -13.5q-24 31 -34 84t-11.5 114.5t2.5 123.5t8 110q-28 18 -59.5 21t-65 0 t-67.5 -9.5t-66 -7.5q-9 -1 -21 2t-25 6.5t-26.5 5.5t-26.5 1q-57 -6 -106.5 -5.5t-99.5 1t-103 -0.5t-117 -10q-28 41 -23.5 73.5z" />
<glyph unicode="&#xad;" horiz-adv-x="682" d="M89.5 499q-3.5 15 0 30.5t10.5 31.5t11 31q75 23 152 20.5t149 -14.5q17 4 34.5 8.5t34 6.5t32 -0.5t28.5 -14.5q11 2 16.5 8.5t11.5 11.5q18 -11 26.5 -23.5t13.5 -26.5t10.5 -30.5t17.5 -35.5q-14 -32 -37.5 -43.5t-53 -13t-64 3t-70.5 6.5q-8 -2 -18.5 -7.5t-8.5 -5.5 q-26 12 -57 12.5t-66 -0.5t-74 0.5t-79 14.5q-16 15 -19.5 30z" />
<glyph unicode="&#xae;" horiz-adv-x="1509" d="M6 672q18 54 21 106.5l6 105t13.5 105.5t43.5 109q9 15 24 28.5t31.5 27.5t32 28.5t27.5 29.5q4 7 6.5 15t4 16t4 15t7.5 12q14 15 32.5 26t36.5 22.5t32.5 26.5t19.5 39q25 3 45 10.5t37 18t31.5 22t29.5 21.5q26 -6 51 -4.5t50 21.5q15 -9 35.5 -12.5t41.5 -1.5t39 9 t27 19q37 -19 84.5 -36.5t97 -33t96 -29.5t79.5 -26q25 -21 50.5 -42.5t50 -41.5t49 -37t48.5 -29q13 -32 30.5 -60t37 -54.5t39.5 -53.5t39 -57q-7 0 -8 2.5t-1 5.5q1 -8 5.5 -23.5t11.5 -32.5t15 -33t16 -25q0 -12 1 -32t4 -40t10 -37t19 -24q-10 -28 -7.5 -66t3.5 -76.5 t-6.5 -73t-36.5 -55.5q1 -42 -18.5 -78t-48.5 -68.5t-62.5 -62t-60.5 -57.5q-48 -45 -108 -80.5t-125 -62.5t-131.5 -47.5t-127.5 -36.5q-9 12 -23 17.5t-36 0.5q-68 -23 -125.5 -13t-110.5 38q-6 -2 -7 -8.5t-7 -6.5q-103 17 -181 68.5t-134 128t-91 173t-51 202.5 q2 7 5 20.5t4 28t-2.5 26t-14.5 13.5zM167 646q-2 -79 15 -149t54 -127.5t96 -97.5q0 -2 3 -8t6 -13t5.5 -13t1.5 -9q17 -3 33 -13t32.5 -18.5t35.5 -11.5t42 9q-24 54 -39 105t-21 104t-3.5 111t12.5 126q1 7 -2.5 9t-8 3.5t-8.5 3t-5 7.5q9 35 19.5 77t20 84.5t15.5 83 t6 72.5q27 22 52.5 50t52 55.5t55.5 50.5t62.5 35.5t72.5 10.5t86 -24q5 -19 28.5 -30.5t53 -24.5t57.5 -32.5t43 -53.5q8 -17 10 -37t2 -40v-39.5t3 -35.5q-34 -51 -65.5 -88t-65 -61t-70 -37.5t-80.5 -17.5q1 -27 -17 -45.5t-40 -31t-40 -20.5t-18 -14q42 0 74.5 -15.5 t59.5 -37.5t50.5 -45.5t48.5 -39.5t52 -18.5t62 17.5q-5 -1 1.5 -5.5t19 -11t28.5 -14t29 -14t20.5 -11.5t3.5 -6q-2 0 10.5 9.5t28.5 21.5t31 24.5t20 18.5q28 27 55.5 72t47.5 101t28.5 119.5t-2.5 127.5q-6 6 -13.5 15t-12.5 19.5t-6.5 21.5t3.5 20q-15 9 -22.5 28 t-15.5 38.5t-21 34t-41 13.5q-6 27 -23.5 42.5t-37 28.5t-37 28.5t-23.5 42.5q-9 -1 -14 2.5t-10 6.5t-11 3.5t-18 -6.5q-40 24 -79 48t-73 40q-15 7 -45 13.5t-63 10.5t-64 4t-49 -6q-21 -5 -45.5 -10t-49 -12.5t-47 -17.5t-40.5 -25q-1 -2 -4.5 -1.5t-8 1.5t-9 1t-5.5 -1 q-24 -18 -40.5 -48.5t-30.5 -62.5t-29.5 -61t-38.5 -45q-14 -8 -25 -20.5t-28 -24.5q-2 -22 -9.5 -39.5t-17.5 -35t-19.5 -37t-15.5 -44.5q-19 -84 -21 -163zM569 180q11 4 30 5t37.5 0t32 -3t13.5 -4q7 14 18 16t22.5 -1.5t23 -8.5t20.5 -6q1 12 7.5 17.5t15 8.5l17 6 t13.5 11q2 11 -3 15.5t-5 15.5q-13 -3 -26.5 7t-27.5 27t-29 37.5t-30 39t-31.5 31.5t-33.5 14q-4 -9 -3 -35t3 -56t3.5 -57t0.5 -39q-8 0 -21 -5.5t-25 -12t-19.5 -13.5t-2.5 -10zM609 763.5q-1 -22.5 7 -34.5q1 5 8.5 11.5t17 10t19.5 4t17 -6.5q25 3 57.5 18.5t60 38 t45 50.5t13.5 56.5t-35 55.5t-100 49q-12 -11 -26.5 -33t-29 -50t-26.5 -59t-19.5 -59.5t-8.5 -51z" />
<glyph unicode="&#xaf;" horiz-adv-x="682" d="M57.5 1272.5q-3.5 14.5 1 28t12.5 26t13 21.5q44 14 87 19t85 4t82.5 -6t79.5 -11q21 4 41 10t38 8.5t35 -0.5t33 -18q13 2 18 9t11 13q20 -11 29.5 -21.5t16.5 -22t14 -25.5t22 -33q-17 -29 -44.5 -37.5t-61.5 -8t-73 6.5t-79 8q-9 -2 -19 -7t-4 -5q-30 5 -65.5 5 t-75.5 -1t-84 0.5t-90 9.5q-19 13 -22.5 27.5z" />
<glyph unicode="&#xb0;" horiz-adv-x="819" d="M133 1280q17 9 29 25t21 35.5t17 40.5t17 42q15 5 34 8.5t37.5 10t35 17t26.5 28.5q37 4 66.5 0t56.5 -11.5t54.5 -17.5t62.5 -18q8 -25 18 -39t18 -27.5t14 -30.5t7 -47q11 6 15 -4t5 -23.5t1 -23.5t4 -4q11 -12 9 -25t-8 -29t-12 -36t-3 -47q-14 -2 -21 -4.5t-10.5 -6 t-5 -10t-2.5 -16.5q-29 -28 -56 -43.5t-49 -32.5q-20 -11 -37 -25t-32 -28q-10 5 -24.5 5t-20.5 9q-80 -22 -132.5 -3t-83 66.5t-42 117t-9.5 147.5zM264.5 1216.5q-3.5 -25.5 6.5 -57.5t40 -74q69 -3 117.5 14t77 45.5t36.5 62.5t-5 65.5t-46.5 55t-88.5 30.5 q-5 -23 -18 -27.5t-27.5 -3.5t-27.5 0.5t-18 -16.5q-17 -24 -30 -46.5t-16.5 -48z" />
<glyph unicode="&#xb1;" horiz-adv-x="1124" d="M112 112.5q-8 32.5 7 63.5q81 -8 168 -3t176 14t176 18t168 10h66.5t97.5 8q17 -9 31 -21t20 -34q15 1 20.5 -3t7.5 -9.5t5 -9.5t14 -3q2 -25 -11.5 -35.5t-30 -18t-30.5 -18t-12 -36.5q-7 5 -15.5 3.5l-17 -3t-15.5 1t-11 14.5q-7 -19 -27 -22.5t-43 -3t-45.5 -0.5 t-34.5 -15q-35 9 -66 10.5t-61 -0.5t-60.5 -5.5t-64.5 -4.5q-27 -2 -57.5 1t-62.5 5t-64 0.5t-62 -12.5q-8 -2 -13 4t-3 19q-33 -15 -65 -5t-54.5 34t-30.5 56.5zM131 842q7 5 16.5 12t20 10.5t23 1t26.5 -15.5q2 12 21.5 11t45 -7.5t51 -15t40.5 -11.5q9 -3 11.5 3t2.5 12 q41 -18 63 -4.5t31 46.5t8 79t-4.5 94.5t-7 94t-0.5 75.5q67 -9 103 -44.5t51.5 -86t16.5 -109t-1 -113.5q11 -25 36.5 -31t56 -2.5t61.5 12t53 13.5q3 -13 6.5 -14.5t9 1.5t13 6t18.5 -1q15 -5 28 -19t26 -25t25 -14.5t25 11.5q9 -13 9.5 -22.5t0.5 -15t3.5 -8t17.5 -1.5 q-1 -17 -9 -25t-17.5 -13t-17.5 -10t-9 -16q-48 -18 -93.5 -25.5t-87 -10t-78 -4t-65.5 -7.5q7 -26 4 -59t-12 -59q1 -6 5.5 -11.5t8 -12.5t6 -15.5t1.5 -20.5q-6 -41 -7.5 -68.5t-7.5 -47t-21 -33t-48 -25.5q-29 6 -48.5 27t-32.5 51t-20 66.5t-10 74.5t-3.5 75t-0.5 67 q-21 14 -57.5 14.5t-78 -2t-83 -2t-73 16t-47 51t-5.5 102.5z" />
<glyph unicode="&#xb2;" horiz-adv-x="682" d="M35 881q7 0 16.5 3t18.5 6t16.5 4.5t11.5 -1.5q55 54 104.5 96.5t91.5 88.5t75.5 103.5t56.5 141.5q0 4 -8 10.5t-16.5 15t-13.5 17t1 16.5q-14 -9 -27 -15t-34 -17q-8 -3 -16.5 -15.5t-20.5 -17.5q-3 -5 -15 -6t-20 -4q-8 -7 -10 -17.5t-8 -15.5q-6 -6 -15 -9 t-17.5 -6.5t-14 -9.5t-3.5 -18q-15 -3 -21.5 -3.5t-9.5 0t-7 0.5t-15 -1q3 7 1 10.5t-6.5 5t-10.5 1.5t-10 -1q2 14 1.5 23t-2.5 17.5t-5 19t-5 26.5q26 40 60 66t73 43.5t82.5 27.5t89.5 19q25 -15 49.5 -32t44 -37.5t32 -46t12.5 -58.5q0 -16 -3.5 -29t-7.5 -25 t-7.5 -24.5t-4.5 -28.5q-34 -6 -31 -59q-16 -17 -24.5 -37.5t-17 -40.5t-21 -37t-35.5 -26q3 -3 2.5 -7.5t-2 -10t-2 -12t1.5 -13.5q-6 0 -17 6t-14 6q0 -9 -11 -22t-26.5 -26t-31.5 -22t-25 -10q23 -20 51.5 -21.5t59.5 3t64 11.5t65 4.5t63 -19.5t58 -58q-8 -35 -16 -52.5 t-21.5 -23t-34 -2.5t-53.5 8q-23 4 -49.5 4.5t-54 -0.5t-54.5 -2.5t-51 -1.5q-27 1 -49.5 4t-43.5 4.5t-41.5 0t-43.5 -10.5q-20 10 -36 22t-26.5 28t-15 38t-0.5 52z" />
<glyph unicode="&#xb3;" horiz-adv-x="682" d="M39 1399.5q-1 24.5 2 50.5q41 4 91.5 12.5t105.5 13.5t110.5 4.5t106.5 -12.5q32 13 59 4.5t50 -28t42.5 -44.5t36.5 -44q4 -15 -2 -22.5t-13.5 -12.5t-12.5 -11t1 -18q-34 -14 -59 -36.5t-45 -53.5q-13 2 -26.5 -4.5t-26 -16.5t-24 -22t-21.5 -20q54 -15 83.5 -36.5 t49 -46t35 -50t41.5 -48.5q-1 -27 -10.5 -45.5t-22 -34l-25 -31t-18.5 -36.5q-19 6 -28.5 2t-0.5 -22q-11 -1 -26.5 -4.5t-31 -9t-28.5 -13.5t-18 -19q-6 -1 -7.5 1.5t-3 6t-3 6.5t-7.5 3q-12 -4 -29 -12.5t-35 -15.5t-35 -9t-28 8q-11 -11 -31.5 -15t-43 -2.5t-42.5 9 t-28 20.5q-24 5 -21 -20q-6 15 -16.5 25.5t-26.5 19.5q1 16 -0.5 38t2 38.5t16.5 22.5t42 -9q4 1 5 4t1.5 7t1.5 7t6 3q31 -25 75 -28t89 8t87 32.5t71 46.5q1 8 -2 18.5t-7.5 21t-9.5 20.5t-6 16q-21 1 -46.5 13.5t-57 21.5t-70 7.5t-84.5 -28.5q-4 3 -7.5 10t-8 12t-9 6.5 t-10.5 -5.5q-2 21 -3.5 34t-1 24.5t3.5 24.5t9 33q9 5 19 4t20 -3t19.5 -2t17.5 6q0 -3 12 -1t27 6.5t30 11t21 13.5q19 15 45.5 28.5t53.5 28.5t49.5 31.5t34.5 36.5q-6 3 -23.5 10t-43 13.5t-55.5 10.5t-61 2.5t-61 -11t-53 -29.5q-6 1 -19 2t-27.5 -1t-27 -8.5 t-17.5 -19.5q-22 7 -36 22t-21 35t-8 44.5z" />
<glyph unicode="&#xb4;" horiz-adv-x="682" d="M232.5 1221q0.5 9 3 18t2.5 14q32 31 44.5 52t14.5 35.5t-3 25t-7.5 20t1.5 20.5t23 28q9 -2 15.5 1.5t13.5 6.5t16 2.5t21 -8.5q-2 3 5.5 13t18.5 21h25h21q3 -8 6.5 -14t11.5 -6q4 0 7.5 3t5.5 6.5t3.5 6.5t3.5 2q21 -3 21 -8q25 -3 45 4.5t31 5.5q2 -3 2 -9v-12 t1 -10.5t5 -4.5q-3 -25 -17 -50.5t-33 -50.5t-40 -48t-39 -42q-3 -3 -8.5 -2.5t-11.5 1t-11.5 -1.5t-9.5 -9q-8 -8 -25 -8.5t-37 -8.5q-13 -5 -27.5 -8.5t-29.5 -6t-29 -3t-26 1.5q-9 1 -11.5 7.5t-2 15.5z" />
<glyph unicode="&#xb5;" horiz-adv-x="1180" d="M203 522.5q2 72.5 14.5 146.5t28 150.5t17.5 157.5q9 4 14.5 13.5t9 20.5t6.5 23.5t7 24.5q13 -4 32 -4t40.5 -1t43.5 -4.5t43 -13.5q0 -64 -8 -131.5t-18.5 -138.5t-20 -143.5t-11 -145.5t7.5 -145t36 -142q45 -5 87.5 3t80 24t67.5 38t50 46q26 46 47.5 105.5t32 124 t7.5 129.5t-26 122q9 30 9.5 58.5t2 54t9 48t30.5 40.5q3 -1 6.5 -5.5t8.5 -8t10.5 -3t13.5 10.5q15 -2 21.5 -7.5l13 -11t15.5 -7.5t28 3q3 -11 12 -16t17 -10q-10 -43 -9.5 -77t5 -62t9 -51.5t3.5 -45.5v15q3 -35 0.5 -80t-5 -94.5t-4 -100.5t4 -98t19 -87.5t40.5 -68.5 q10 -50 0.5 -82t-29.5 -46.5t-46.5 -12.5t-51.5 20.5t-44 52.5t-23 83q-48 -39 -94.5 -75t-97 -63t-108 -43t-126.5 -16q-3 -9 1 -14.5t7 -16.5q-14 -17 -14.5 -58t1.5 -89.5t1 -96.5t-15.5 -80.5t-48.5 -41.5t-98 22q-24 68 -24 138.5t7.5 143t13.5 147t-5 151.5 q-4 23 -13.5 43t-17 40.5t-9.5 43t9 49.5q-25 73 -23 145.5z" />
<glyph unicode="&#xb6;" horiz-adv-x="1100" d="M51 775.5q6 62.5 25 115.5q1 8 -2 11.5t-7 6.5t-6 7.5t0 13.5q4 6 9 16t8.5 21t4.5 21.5t-3 17.5q26 42 59 95t73 101.5t87.5 86.5t101.5 50q6 9 16 13.5t20.5 8t19.5 8.5t14 15q34 6 72.5 15.5t79 18.5t80.5 16.5t77 11.5q20 14 37.5 15.5t33 -4.5t28.5 -15.5t24 -18.5 q51 3 98.5 -7t85.5 -50q17 -13 29.5 -33t19.5 -42t7.5 -43.5t-6.5 -37.5q-14 1 -22.5 7.5t-18.5 14t-26 13.5t-44 8q-14 1 -31.5 2.5t-35 3.5t-32.5 3t-24 0q-19 -3 -28.5 -22.5t-13.5 -49.5t-3.5 -68.5t3 -78t5.5 -77.5t4 -69q2 -40 3 -82t1 -84q4 -136 19 -267 t29.5 -264.5t23.5 -271.5t2 -288q-23 1 -33 -1.5t-26 -15.5q-7 -1 -11 4.5t-6 13.5t-3.5 17.5t-2.5 17.5q5 -27 -3.5 -48t-22.5 -27q-13 13 -19.5 21.5t-12.5 16.5t-14 16.5t-24 22.5q-4 79 -5.5 143t-3.5 119t-4 104.5t-5 100t-8.5 105.5t-14.5 121q-18 -6 -41 -11 t-48.5 -10.5t-52.5 -13.5t-53 -21q-4 -2 -1 -17t5.5 -35.5t0.5 -40.5t-15 -32q1 -4 3.5 -12t6 -16t7.5 -14t10 -5q-14 -42 -18 -82.5t-4.5 -78t0.5 -72t-2.5 -64.5t-14.5 -55.5t-35 -44.5q-18 4 -38.5 10t-39.5 16t-35 25t-24 39q13 71 19.5 131.5t7.5 115.5t-2 106t-9 102 q-69 9 -122 42t-90.5 82t-59.5 110t-30.5 124.5t-2.5 126zM187 699q0 -57 20 -110t67 -95q0 8 10.5 9t18.5 1q-4 -19 4 -20.5t19 1.5t22.5 5.5t15.5 -9.5q19 62 18.5 120t-11.5 108q-6 29 -3 52t7.5 45t5.5 45t-10 52q7 3 10 10t3 16t-2 18.5t-5 17.5q4 -1 10 2.5t12 8.5 t11.5 11.5t7.5 11.5q-12 11 -15.5 23.5t-5 26.5t-4 29.5t-12.5 31.5q-36 -34 -71 -81.5t-62 -101.5t-44 -112.5t-17 -115.5zM530 601.5q-5 -62.5 9 -112.5q14 3 34 6t40.5 5.5t38.5 5t28 6.5q15 15 23 38t10.5 49.5t1 54t-5.5 53.5q-10 60 -7 125.5t7 123.5q1 35 -3.5 65 t-9.5 59t-10 59.5t-6 66.5q-2 -8 -5.5 -7t-7.5 7t-7.5 14.5t-4.5 14.5q0 1 -11 0t-24.5 -3.5t-25.5 -5t-15 -3.5q-21 -16 -28.5 -33t-7.5 -35t4 -37t7 -39t1 -40t-14 -40q18 -63 14.5 -131.5t-12 -136t-13.5 -130z" />
<glyph unicode="&#xb7;" horiz-adv-x="569" d="M195 712q-5 26 0 62q5 8 12.5 14.5t14 12.5t11.5 11.5t5 10.5q57 -4 90.5 -12t49.5 -20t18 -28t-2.5 -35t-12.5 -41t-12 -46q-12 4 -19.5 1.5t-14.5 -7.5t-16 -10.5t-24 -6.5q-26 7 -47 19t-34.5 30.5t-18.5 44.5z" />
<glyph unicode="&#xb8;" horiz-adv-x="682" d="M115 -262q11 4 27 6.5t30.5 0t24.5 -9.5t10 -22q34 -14 60 -11.5t44.5 11.5t32 20.5t23.5 16.5q16 46 -1 62t-57 16q-11 -1 -19 2.5t-14.5 6.5t-13.5 5t-14 -2q-8 -4 -10.5 -2.5t-3 4.5t-0.5 6.5t-3 4.5q4 42 12 71.5t19 50.5q0 10 5.5 23t13.5 18q6 3 17.5 2.5t16.5 1.5 q22 4 39 -0.5t45 -19.5q-1 -15 -4 -24.5t-8 -17t-11.5 -14t-13.5 -14.5q0 -8 8 -14t19 -12q8 -3 17.5 -2.5t17.5 -1.5q12 -9 22.5 -19t19 -23.5t12.5 -31t3 -41.5q8 -13 14 -24.5t5 -25t-11.5 -31t-35.5 -42.5q-13 -12 -24.5 -25.5t-23.5 -22.5t-26.5 -11.5t-32.5 6.5 q-8 2 -15 -1.5t-14 -9t-12 -10.5t-8 -6q-23 -2 -47 -1.5t-47 3.5t-43.5 9.5t-36.5 15.5q6 20 4 34t-5.5 27.5t-6.5 29t0 38.5z" />
<glyph unicode="&#xb9;" horiz-adv-x="682" d="M106 1292q35 27 55.5 50t38.5 45.5t38 46t55 51.5q17 -11 31 -17.5t26 -12.5t21 -13t16 -19q3 -16 -1.5 -35t-10.5 -38.5t-11.5 -38.5t-3.5 -35q-5 -8 -10 -22.5t-7 -31t0.5 -33.5t12.5 -30q-8 0 -12 -3t-7 -7t-5.5 -8t-7.5 -6q4 1 7.5 -7t4 -18.5t-3.5 -19t-15 -9.5 q11 -8 10 -18.5t-7 -21t-12.5 -20.5t-6.5 -17q2 -16 1.5 -54.5t-6.5 -80.5t-19 -78t-37 -48q-12 -6 -21.5 -6.5t-18.5 1.5t-19 5.5t-23 6.5q-17 49 -16.5 97.5t9.5 94.5t21 89t18 81q-2 -1 1.5 7t7.5 17.5t6.5 18t-0.5 8.5q0 10 4 26.5t2 29.5q-12 10 -16.5 8t-10.5 -7 t-17 -8.5t-36 5.5q-7 12 -9 22t-3 18.5t-3.5 17t-9.5 17.5z" />
<glyph unicode="&#xba;" horiz-adv-x="748" d="M58 1111q1 22 10 38q2 9 -1 11.5t-8 2.5q6 25 16.5 48.5t20.5 46.5t17 45t6 43q15 5 28 10t27 10q25 49 66 78t90 38.5t102.5 1t104.5 -33.5l13 -13t8 -9t5.5 -8.5t7.5 -10.5q9 -2 13.5 -0.5t8.5 3.5t8.5 4t12.5 1q5 -9 11 -26t12.5 -35.5t15 -35t17.5 -24.5 q-3 -56 10 -69q-5 -23 -5 -56v-64.5t-3.5 -55t-16.5 -25.5q-7 -43 -23.5 -70t-36.5 -48t-41.5 -41t-37.5 -48q-15 -3 -34 -15.5t-40.5 -26t-44.5 -24.5t-45 -12q-11 -1 -21.5 3.5l-21 9t-21.5 6.5t-22 -4q-72 35 -125.5 88t-76.5 114q1 26 -1.5 53t-4 52.5t-0.5 47.5z M199.5 1015q8.5 -50 35.5 -89t68 -54q5 -2 15.5 1.5t21 8.5t19.5 11l12 8q5 4 16.5 9.5t25 12.5t26.5 15.5t22 17.5q15 17 28.5 44.5t23.5 60t14.5 67t0.5 67t-18 60t-41 45.5q6 12 6.5 23.5t-2.5 21t-8.5 17t-11.5 10.5q-12 -2 -26.5 -8t-30.5 -14t-33 -15.5t-35 -11.5 q2 -15 -2 -29.5t-11.5 -25.5t-17.5 -19t-20 -10q0 -8 -3 -10.5t-8 -7.5q0 -3 -1 -5.5t-7 5.5q-41 -47 -54 -101.5t-4.5 -104.5z" />
<glyph unicode="&#xbb;" d="M209 129q-2 19 10.5 35t28.5 30.5t30 27.5t15 26q26 16 49 48t47.5 68t52 70.5t62.5 57.5q-1 24 -14.5 47.5t-33 45.5t-41 42t-36.5 37q-10 27 -31 56.5t-44 59t-44 57.5t-30 54t-2.5 47.5t38.5 38.5q15 2 23 1t13 -5t10 -10t14 -13q14 7 34.5 2t41.5 -20t39.5 -37.5 t27.5 -50.5q47 -20 66.5 -60.5t19.5 -109.5q19 -9 37 -20t33 -28.5t25.5 -42.5t13.5 -61q5 -5 8 -9t6.5 -6.5t8.5 -2.5t14 4q6 -18 2 -30t-10.5 -19.5t-12 -12.5t-2.5 -10q-34 -18 -60 -44t-32 -73q-8 -8 -31 -8q0 -17 -6.5 -26.5t-17 -18t-22.5 -19.5t-24 -30 q-21 -7 -32 -23.5t-19 -34t-17.5 -31.5t-27.5 -15q0 -11 4 -13q-14 -2 -23 -11.5t-28 -12.5q-14 6 -29.5 14.5t-32.5 17t-35 14.5t-36 7zM573.5 133.5q-0.5 12.5 7 28t23.5 35.5q3 2 9.5 9.5t14 16t14.5 16t11 9.5q15 7 28 20.5t26.5 29t26.5 31t28 27.5q0 9 4 21t8 23 t6 19.5t-2 12.5q0 3 9 11t20 16t20.5 13t10.5 1q3 1 -0.5 8t-5.5 16.5t0 21t16 20.5q-19 54 -43.5 93.5t-51.5 71.5t-54 59t-50.5 56t-42 63t-26.5 79q0 -1 9.5 -1t21 2t21 5.5t9.5 9.5q33 0 53.5 -5.5t35.5 -15t26.5 -23.5t26.5 -30.5t36 -35t54 -38.5q-9 -5 -6 -12 t12 -15.5t22 -18t23.5 -19.5t17 -20.5t2.5 -20.5q13 -15 25 -34.5t24 -38.5t24.5 -35.5t25.5 -24.5q0 -24 7.5 -50.5t9 -50.5t-9.5 -44t-48 -31q2 -9 1 -14.5t-3.5 -10t-4.5 -9t-2 -11.5q-23 -7 -43 -32t-28 -48q-6 7 -15.5 -2.5t-18 -26.5t-15 -37t-7.5 -33q-27 7 -42.5 -3 t-25.5 -25t-16.5 -29t-15.5 -14v-25q-14 -2 -20 -7t-14 -9.5t-22.5 -6.5t-45.5 1q2 6 0.5 9.5t-5 6t-7.5 4.5t-5 6q-9 1 -13 -1.5t-7.5 -5t-8.5 -4t-16 0.5q-13 12 -20.5 22.5t-8 23z" />
<glyph unicode="&#xbc;" horiz-adv-x="1708" d="M106 1268q38 31 61 57t43.5 50.5t44.5 51t64 58.5q22 -10 40 -17t31.5 -14.5t23 -17.5t16.5 -25q7 -16 3 -37t-11 -43t-14 -43t-5 -37q-6 -9 -11.5 -25.5t-7 -36.5t1 -40.5t13.5 -38.5q-8 1 -12.5 -2.5t-7.5 -8t-5.5 -9t-6.5 -7.5q4 1 7.5 -7t3.5 -17.5t-4 -18.5t-16 -10 q12 -11 9.5 -23.5t-9.5 -24.5t-14.5 -22.5t-5.5 -17.5q2 -14 3.5 -39t0 -55t-6.5 -62.5t-13.5 -61.5t-22.5 -51t-33 -32q-13 -6 -25.5 -6.5t-24.5 2t-24.5 6.5t-25.5 6q-18 58 -17 113.5t10 107.5t22 100.5t20 92.5q-2 -2 3 8t12 22t11.5 22.5t1.5 10.5q0 10 4.5 26.5 t2.5 27.5q-17 11 -25 9.5t-16 -7t-19.5 -9t-36.5 4.5q-7 13 -9 25.5t-4 23.5t-6 21.5t-14 19.5zM340 63q25 37 36 68.5t18.5 61t18 59t36.5 63.5q7 28 14 55.5t17.5 51.5t26.5 44t42 32q14 44 28.5 84t32.5 75t41 66.5t54 58.5q0 32 9.5 57.5t24.5 47t33.5 40t36.5 38.5 q4 27 16 51.5t28.5 45.5t35 38.5t35.5 29.5q-5 8 -2.5 18.5t2.5 8.5q4 9 6.5 20t6.5 21t11 18t19 13q24 31 43.5 64.5t38.5 66.5t39 65t45 60q13 -6 24 -9t20.5 -5t16.5 -5t12 -10q10 -15 5.5 -27t-11.5 -22t-11 -18.5t7 -16.5q-10 -8 -22 -20.5t-21.5 -29.5t-15.5 -38 t-4 -45q-13 -3 -27 -7.5t-14 -27.5q-19 4 -25.5 -9t-11 -30.5t-11 -33.5t-24.5 -17q-5 -38 -24 -68t-40 -58t-37 -57t-14 -65q-7 1 -14.5 -7t-12.5 -19t-6 -22t5 -17q-1 -5 -6 -7t-10.5 -3.5t-10.5 -3t-6 -5.5q1 -12 -2.5 -19t2.5 -24q-44 -48 -77.5 -108.5t-57.5 -128.5 q-12 1 -17.5 -4t-9.5 -11.5t-9 -13t-14 -8.5q-7 -43 -20.5 -74t-28 -60t-27 -61t-18.5 -77q3 -5 2 -9t-2.5 -8t-2 -8t4.5 -8q-2 -6 -8 -7t-12 -1q-8 -32 -19 -66.5t-29 -62.5t-44 -46.5t-64 -19.5q6 12 0.5 24t-15.5 25.5t-21 27.5t-15 29zM1040 485q9 18 20 38.5t21 41.5 t16.5 41.5t8.5 38.5q7 -4 12 1.5t9 15.5t5.5 22.5t0.5 24.5q20 12 31 36t20.5 48t23 41t37.5 16q-4 0 -2 -2.5t7 -4t11 1t11 11.5q10 -11 14 -16t8 -8t12 -7.5t27 -13.5q3 -37 -5 -62.5t-21.5 -47.5t-31 -44.5t-32.5 -52.5q6 -4 8.5 -17t1 -28t-5.5 -27.5t-10 -15.5 q-2 -11 19.5 -24.5t49.5 -24t55 -16.5t38 -2q13 5 22.5 17.5t16.5 28t12.5 31.5t11 29.5t12.5 21t17 5.5q0 54 9 123.5t32 168.5q49 -6 85.5 -22t74.5 -35q-7 -35 -17 -61.5t-19.5 -51.5t-16 -50.5t-7.5 -59.5q-9 -6 -20 -6q3 -26 -1.5 -51t-8 -47.5t-3 -41t12.5 -32.5 q-7 -13 -27 -13q-21 -50 -35 -100t-25 -99.5t-21 -97t-25 -92.5q-22 -6 -36 -17.5t-24 -27.5q-12 8 -20 19t-15 26q-15 -14 -25.5 -11.5t-20.5 11.5t-20.5 19t-25.5 12q1 21 2 43t4 40.5t9 32.5t18 19q0 5 -4.5 4.5t-7.5 1.5q27 28 30.5 59t-9.5 53t-38.5 30t-56.5 -9 q-15 10 -12 33q-35 -2 -62.5 8t-50 29t-41 44t-33.5 52z" />
<glyph unicode="&#xbd;" horiz-adv-x="1708" d="M106 1268q38 31 61 57t43.5 50.5t44.5 51t64 58.5q22 -10 40 -17t31.5 -14.5t23 -17.5t16.5 -25q7 -16 3 -37t-11 -43t-14 -43t-5 -37q-6 -9 -11.5 -25.5t-7 -36.5t1 -40.5t13.5 -38.5q-8 1 -12.5 -2.5t-7.5 -8t-5.5 -9t-6.5 -7.5q4 1 7.5 -7t3.5 -17.5t-4 -18.5t-16 -10 q12 -11 9.5 -23.5t-9.5 -24.5t-14.5 -22.5t-5.5 -17.5q2 -14 3.5 -39t0 -55t-6.5 -62.5t-13.5 -61.5t-22.5 -51t-33 -32q-13 -6 -25.5 -6.5t-24.5 2t-24.5 6.5t-25.5 6q-18 58 -17 113.5t10 107.5t22 100.5t20 92.5q-2 -2 3 8t12 22t11.5 22.5t1.5 10.5q0 10 4.5 26.5 t2.5 27.5q-17 11 -25 9.5t-16 -7t-19.5 -9t-36.5 4.5q-7 13 -9 25.5t-4 23.5t-6 21.5t-14 19.5zM340 63q25 37 36 68.5t18.5 61t18 59t36.5 63.5q7 28 14 55.5t17.5 51.5t26.5 44t42 32q14 44 28.5 84t32.5 75t41 66.5t54 58.5q0 32 9.5 57.5t24.5 47t33.5 40t36.5 38.5 q4 27 16 51.5t28.5 45.5t35 38.5t35.5 29.5q-5 8 -2.5 18.5t2.5 8.5q4 9 6.5 20t6.5 21t11 18t19 13q24 31 43.5 64.5t38.5 66.5t39 65t45 60q13 -6 24 -9t20.5 -5t16.5 -5t12 -10q10 -15 5.5 -27t-11.5 -22t-11 -18.5t7 -16.5q-10 -8 -22 -20.5t-21.5 -29.5t-15.5 -38 t-4 -45q-13 -3 -27 -7.5t-14 -27.5q-19 4 -25.5 -9t-11 -30.5t-11 -33.5t-24.5 -17q-5 -38 -24 -68t-40 -58t-37 -57t-14 -65q-7 1 -14.5 -7t-12.5 -19t-6 -22t5 -17q-1 -5 -6 -7t-10.5 -3.5t-10.5 -3t-6 -5.5q1 -12 -2.5 -19t2.5 -24q-44 -48 -77.5 -108.5t-57.5 -128.5 q-12 1 -17.5 -4t-9.5 -11.5t-9 -13t-14 -8.5q-7 -43 -20.5 -74t-28 -60t-27 -61t-18.5 -77q3 -5 2 -9t-2.5 -8t-2 -8t4.5 -8q-2 -6 -8 -7t-12 -1q-8 -32 -19 -66.5t-29 -62.5t-44 -46.5t-64 -19.5q6 12 0.5 24t-15.5 25.5t-21 27.5t-15 29zM985 160q10 0 21 4t21.5 8.5 t19.5 7.5t14 0q65 62 123.5 111.5t108.5 103.5t90 122t69 167q-1 5 -11.5 13t-21.5 17t-17.5 19t-0.5 19q-14 -14 -31.5 -21t-40.5 -16q-6 -5 -14.5 -18.5t-22.5 -22.5q-9 -6 -23 -6.5t-22 -5.5q-8 -7 -9 -18t-9 -17q-10 -7 -22 -10.5t-21.5 -8t-15 -12.5t-3.5 -23 q-19 -2 -27 -2t-12.5 0.5t-8.5 0.5t-15 -1q6 14 -6.5 16.5t-26.5 0.5q4 18 4 29t-2.5 21t-6 22t-7.5 30q30 48 69.5 79t86 51.5t97.5 32t105 19.5q30 -17 59.5 -36.5t52.5 -43.5t37.5 -54.5t14.5 -69.5q-1 -18 -5 -32.5t-8.5 -28.5t-8.5 -28.5t-5 -31.5q-18 -6 -25 -25 t-5 -47q-20 -21 -31 -45.5t-22 -47.5t-25.5 -43t-42.5 -32q3 -6 2 -11.5t-2.5 -11t-2 -12t2.5 -14.5q-8 -2 -19 4t-16 6q-2 -9 -16 -24t-32 -29.5t-36 -25t-27 -11.5q26 -23 59 -26t69 2.5t75 13t77 4.5t75 -22.5t69 -67.5q-10 -42 -20 -62.5t-25.5 -28t-39 -4.5t-60.5 9 q-26 4 -58.5 5t-66.5 -0.5t-66.5 -3t-58.5 -1.5q-33 1 -59.5 4.5t-50.5 5t-47.5 0t-49.5 -11.5q-22 12 -41 26.5t-32.5 34t-19.5 45t-1 60.5z" />
<glyph unicode="&#xbe;" horiz-adv-x="1708" d="M38 1399.5q-1 24.5 1 50.5q36 4 81.5 12.5t94.5 13.5t98.5 4.5t94.5 -12.5q28 13 52.5 4.5t45 -28t38 -44t31.5 -42.5q3 -15 -2 -23t-11 -13.5t-10 -11.5t1 -18q-32 -12 -54.5 -35.5t-39.5 -54.5q-12 2 -24 -4t-23 -16.5t-21 -22.5t-18 -22q47 -14 73 -35t43 -44.5 t31.5 -48.5t38.5 -46q-1 -28 -10 -46.5t-20.5 -34t-22.5 -31.5t-17 -38q-15 6 -23.5 2t-0.5 -22q-11 -1 -25.5 -4t-28 -8t-24 -13.5t-14.5 -19.5q-6 -1 -7.5 1.5t-2.5 6.5t-2.5 7.5t-6.5 4.5q-11 -6 -26 -15.5t-31.5 -16.5t-31.5 -9t-25 8q-9 -10 -27.5 -14t-38.5 -2.5 t-38 9t-25 20.5q-10 2 -14.5 -4t-2.5 -15q-8 14 -17.5 25.5t-23.5 19.5q1 15 0 36.5t2.5 38.5t15.5 23.5t38 -8.5q3 1 4 4t1 7t1 7t4 3q28 -26 67 -29t79.5 8t77.5 32t63 44q1 9 -1.5 20t-6.5 21.5t-8.5 19.5t-6.5 15q-18 1 -41 14t-51.5 22t-63 7.5t-75.5 -29.5 q-3 3 -6 10.5t-6.5 13.5t-8 8t-8.5 -5q-2 19 -2.5 32t0 24.5t3 24.5t7.5 33q8 5 17 4t18 -2.5t17.5 -2t15.5 5.5q0 -3 10.5 -1t24 6.5t26.5 11t19 13.5q16 14 39.5 27.5t46.5 28.5t43 31t30 34q-7 6 -37 18t-70 18t-82 -0.5t-73 -37.5q-5 1 -16.5 2t-24 -1.5t-23.5 -8 t-16 -17.5q-20 6 -32 20.5t-18.5 34.5t-7.5 44.5zM322 63q25 37 35.5 68.5t18 61t18 59t36.5 63.5q7 28 14 55.5t18 51.5t27 44t41 32q14 44 28.5 84t32.5 75t41 66.5t54 58.5q0 32 9.5 57.5t25 47t34 40t36.5 38.5q4 27 16 51.5t28 45.5t34.5 38.5t35.5 29.5 q-5 8 -2.5 18.5t2.5 8.5q4 9 6.5 20t6.5 21t11 18t19 13q24 31 44 64.5t39 66.5t39 65t44 60q13 -6 24.5 -9t21 -5t16.5 -5t12 -10q10 -15 5.5 -27t-11.5 -22t-11 -18.5t7 -16.5q-10 -8 -22 -20.5t-21.5 -29.5t-16 -38t-4.5 -45q-6 -2 -13 -3t-13.5 -4.5t-10.5 -9.5t-4 -18 q-18 4 -24.5 -9t-11 -30.5t-11 -33.5t-25.5 -17q-5 -38 -24 -68t-40 -58t-36.5 -57t-13.5 -65q-7 1 -14.5 -7t-13 -19t-6.5 -22t5 -17q-1 -5 -5.5 -7t-10 -3.5l-11 -3t-6.5 -5.5q1 -12 -2.5 -19t2.5 -24q-43 -48 -76.5 -108.5t-58.5 -128.5q-12 1 -17.5 -4t-9.5 -11.5 t-8.5 -13t-13.5 -8.5q-7 -43 -20.5 -74t-28 -60t-27.5 -61t-18 -77q3 -5 2 -9t-2.5 -8t-2 -8t4.5 -8q-2 -6 -8 -7t-13 -1q-8 -32 -19 -66.5t-28.5 -62.5t-44 -46.5t-63.5 -19.5q6 12 0.5 24t-15.5 25.5t-21 27.5t-15 29zM1022 485q9 18 20 38.5t20.5 41.5t16 41.5t8.5 38.5 q7 -4 12.5 1.5t9 15.5t5 22.5t0.5 24.5q20 12 31 36t21 48t23 41t38 16q-4 0 -2 -2.5t6.5 -4t10.5 1t11 11.5q11 -11 15 -16t8 -8t12 -7.5t27 -13.5q3 -37 -5 -62.5t-21.5 -47.5t-31 -44.5t-32.5 -52.5q6 -4 8 -17t1 -28t-5 -27.5t-10 -15.5q-2 -11 19 -24.5t49 -24 t55 -16.5t38 -2q20 7 31.5 30t20.5 47t17.5 41.5t23.5 14.5q0 54 8.5 123.5t31.5 168.5q50 -6 86.5 -22t73.5 -35q-7 -35 -16.5 -61.5t-19 -51.5t-16 -50.5t-7.5 -59.5q-9 -6 -21 -6q3 -26 -1 -51t-7.5 -47.5t-3.5 -41t12 -32.5q-7 -13 -26 -13q-22 -50 -36 -100t-25 -99.5 t-21 -97t-25 -92.5q-40 -11 -59 -45q-13 8 -21 19t-14 26q-15 -14 -25.5 -11.5t-20.5 11.5t-20.5 19t-25.5 12q1 21 2 43t4 40.5t9 32.5t18 19q0 5 -5 4.5t-8 1.5q28 28 31.5 59t-9.5 53t-38.5 30t-56.5 -9q-16 10 -13 33q-35 -2 -62.5 8t-50 29t-40.5 44t-33 52z" />
<glyph unicode="&#xbf;" horiz-adv-x="1251" d="M179 30q-2 41 5.5 85.5t24 83.5t39.5 55q9 0 14 -4t14 -2q-15 7 -9.5 22.5t18.5 27.5t25.5 14.5t10.5 -17.5q17 19 43.5 37t55.5 35t58 33.5t52 31.5q8 4 19.5 5t23.5 1t24 0.5t21 5.5q23 12 31.5 28t9 34.5t-2.5 39.5t-3 42q-8 8 -20 14q2 9 2.5 14t0 9t-1.5 9t-1 13 q5 5 11.5 6t8.5 9q21 0 36.5 -6t29.5 -14.5t28.5 -18t32.5 -15.5q0 -25 16 -52t30 -52.5t15.5 -47t-26.5 -36.5q-8 -27 -23.5 -44.5t-33.5 -31.5t-34 -28t-24 -35q-60 -12 -114.5 -32t-100 -50.5t-79 -73.5t-50.5 -100q-6 -54 7.5 -92.5t37 -69t52 -56.5t53.5 -55 q76 -7 142 20t114.5 75.5t76.5 112.5t29 132q-12 12 -41 12q15 5 19 13.5t5.5 18.5t3.5 20t13 18q23 -22 47.5 -27t59.5 -8q0 -12 3.5 -17t8.5 -6t11 -1t12 -2q6 -23 10 -28.5t16 -12.5q-3 -8 -10 -11.5t-16 -3.5q5 -6 7.5 -13t6 -12.5t9.5 -9.5t18 -4q2 -19 -0.5 -30.5 t-5.5 -22.5t-4.5 -25t3.5 -38q-6 -1 -9.5 -5t-6.5 -8t-7 -7t-11 -1q4 -11 2 -22t-8.5 -20.5t-17 -16.5t-23.5 -8q-31 -104 -115 -138q2 -8 1 -15t7 -7q-26 -12 -54 -18t-56.5 -12t-57 -16.5t-55.5 -31.5q-11 20 -34 23.5t-42 -9.5q-1 7 -5.5 10t-10 5t-11 4.5t-6.5 7.5 q-5 -1 -7 -5t-3 -8.5t-2.5 -7t-5.5 0.5q-6 -2 -7.5 0t-0.5 5t3.5 6t4.5 3q-1 10 -8 11.5t-15 2t-15.5 3.5t-8.5 16q-9 1 -12.5 -1t-6 -4.5t-6 -5t-10.5 -0.5q-2 7 3 10t3 11q-24 4 -40 17.5t-29.5 29t-26.5 30t-31 21.5q3 13 -0.5 22t-10.5 15t-17 10t-19 8q1 14 -13 33.5 t-28.5 41.5t-23 44.5t3.5 42.5q-14 20 -16 61zM555 911q19 48 47.5 88t63.5 54q7 2 10 0.5t4.5 -5.5t2.5 -8t3 -6q22 13 46 7.5t44 -22.5t33.5 -41t15 -48.5t-12 -44.5t-46.5 -29q-16 -23 -34 -41.5t-46 -23.5q-9 14 -32.5 22t-49.5 6q1 6 -3.5 18.5t-12 27t-16.5 27.5 t-17 19z" />
<glyph unicode="&#xc0;" horiz-adv-x="1366" d="M0 141q13 7 15 16.5t2.5 18.5t4.5 16t21 9q2 12 -2.5 19.5t-9 13t-5 11.5t8.5 15q6 -3 10 -1.5t12 1.5q-5 22 -6 37t2 28t11.5 25.5t23.5 30.5q-9 -5 -7 4.5t10 22t20.5 24.5t25.5 14q-18 25 -18.5 45.5t4.5 42t10 45.5t-2 56q4 4 9.5 6.5t10.5 5.5t7.5 8t1.5 15h55 q-8 13 -7 22t6.5 16t13.5 13t14 14q-2 16 -5 27.5t-14 19.5q4 3 8 3.5t7.5 2.5t4.5 8t-1 21q6 -2 8.5 -4.5t4 -6t4 -7t7.5 -6.5q0 7 4 13.5t7 14.5t3 19t-8 26q7 -8 9 -7t3.5 5t4.5 8t12 2q-19 34 -8.5 54t35.5 37q5 4 4.5 16t-0.5 24t5 20.5t21 4.5q-5 32 -4 53.5t21 38.5 q12 -3 15 -8t11 -18q10 4 11.5 10t-1 12.5t-5.5 13.5t-1 15q9 -2 14 -0.5t9.5 4t10.5 4t16 0.5q-1 5 -5 8.5l-8 7t-5.5 9t3.5 14.5q11 -3 17 1.5t14 6.5q-5 14 -8 30t0 38q31 14 51.5 25t36 25.5t27.5 36.5t26 58q9 2 12 -2t11 -6v51q25 9 48 8t46.5 -8.5t49 -22t56.5 -32.5 q-8 -17 -5.5 -28t7 -20.5t7.5 -19t-3 -24.5q39 -53 63.5 -113.5t47 -120t49.5 -114.5t70 -97q12 6 18.5 9t12 4.5t12.5 1.5t20 2q10 -17 29 -23.5t45 -9.5q-2 -14 -1 -25t4.5 -17t10 -6.5t17.5 7.5q7 -29 -4.5 -46t-29 -30.5t-34 -27.5t-20.5 -35q-5 -25 1.5 -50t19 -48 t28.5 -44.5t31 -38.5q1 -35 14 -65.5t29 -60.5t29.5 -62t15.5 -68q1 -28 14.5 -51t23.5 -46t9.5 -48.5t-25.5 -58.5q-11 -3 -17.5 1.5t-4.5 16.5q-9 -4 -8.5 -8.5t2.5 -9t3 -9.5t-6 -10q-7 -2 -17 1t-19 4.5t-14.5 -1t-2.5 -14.5q-37 43 -61.5 88.5t-44.5 94t-38 100 t-42 106.5q-18 15 -31 46.5t-27.5 66t-32 66.5t-44.5 50q-45 -11 -95 -28.5t-102 -35.5t-106.5 -33.5t-108.5 -22.5q-3 -5 -8.5 -7.5t-11 -5.5t-9 -8t-2.5 -14q-38 1 -69 -5.5t-55 -17t-41 -24t-25 -27.5q-1 -1 -5 -2t-8 -3.5t-7.5 -7.5t-2.5 -14q0 -2 6.5 -9.5t8.5 -4.5 q0 1 -5.5 -6t-11.5 -14.5t-11 -12.5t-3 0q-11 -24 -19 -54.5t-16 -63t-16.5 -65t-22 -59.5t-33 -46.5t-47.5 -26.5q-4 17 -16.5 33.5t-28 33.5t-31.5 35t-26 39zM373 692q-3 -38 28 -41q33 10 86.5 29.5t112.5 37t115.5 27t95.5 0.5q4 9 17.5 17t29 12.5t30.5 5t23 -5.5 q-2 42 -25 89.5t-50.5 95.5t-50.5 93t-25 81q-15 1 -21.5 13t-12 26.5t-11.5 29t-19 21.5q-1 -5 -5.5 -12t-10 -13t-11 -10t-8.5 -2q-5 -8 -10.5 -19t-13 -20t-16 -12.5t-17.5 4.5q-30 -39 -53.5 -80.5t-45 -86t-43 -90.5t-48.5 -94q0 -8 -3.5 -21t-7.5 -26t-5.5 -24 t3.5 -17q-8 -2 -13 -7.5t-15 -0.5zM432 1808q7 0 21 1t28 4.5t24.5 10t10.5 17.5q2 5 2.5 4.5t11.5 -2.5q10 -1 10 -6t-1.5 -10.5t-1 -10.5t11.5 -6q7 -1 11.5 2.5t8.5 7.5t9.5 6.5t15.5 0.5q33 1 48.5 -2t20.5 -7t3 -7t-5 -3q7 0 13 -3.5t11.5 -6.5t11.5 -5t14 1 q18 -19 23 -33.5t5 -26.5t-2 -23.5t2 -26t18 -33.5t46 -45q-3 -11 -7 -20q-4 -8 -10.5 -13.5t-15.5 -5.5q-41 0 -63 7t-48 19q-49 6 -89.5 27.5t-70 51.5t-47 65.5t-20.5 70.5z" />
<glyph unicode="&#xc1;" horiz-adv-x="1366" d="M0 141q13 7 15 16.5t2.5 18.5t4.5 16t21 9q2 12 -2.5 19.5t-9 13t-5 11.5t8.5 15q6 -3 10 -1.5t12 1.5q-5 22 -6 37t2 28t11.5 25.5t23.5 30.5q-9 -5 -7 4.5t10 22t20.5 24.5t25.5 14q-18 25 -18.5 45.5t4.5 42t10 45.5t-2 56q4 4 9.5 6.5t10.5 5.5t7.5 8t1.5 15h55 q-8 13 -7 22t6.5 16t13.5 13t14 14q-2 16 -5 27.5t-14 19.5q4 3 8 3.5t7.5 2.5t4.5 8t-1 21q6 -2 8.5 -4.5t4 -6t4 -7t7.5 -6.5q0 7 4 13.5t7 14.5t3 19t-8 26q7 -8 9 -7t3.5 5t4.5 8t12 2q-19 34 -8.5 54t35.5 37q5 4 4.5 16t-0.5 24t5 20.5t21 4.5q-5 32 -4 53.5t21 38.5 q12 -3 15 -8t11 -18q10 4 11.5 10t-1 12.5t-5.5 13.5t-1 15q9 -2 14 -0.5t9.5 4t10.5 4t16 0.5q-1 5 -5 8.5l-8 7t-5.5 9t3.5 14.5q11 -3 17 1.5t14 6.5q-5 14 -8 30t0 38q31 14 51.5 25t36 25.5t27.5 36.5t26 58q9 2 12 -2t11 -6v51q25 9 48 8t46.5 -8.5t49 -22t56.5 -32.5 q-8 -17 -5.5 -28t7 -20.5t7.5 -19t-3 -24.5q39 -53 63.5 -113.5t47 -120t49.5 -114.5t70 -97q12 6 18.5 9t12 4.5t12.5 1.5t20 2q10 -17 29 -23.5t45 -9.5q-2 -14 -1 -25t4.5 -17t10 -6.5t17.5 7.5q7 -29 -4.5 -46t-29 -30.5t-34 -27.5t-20.5 -35q-5 -25 1.5 -50t19 -48 t28.5 -44.5t31 -38.5q1 -35 14 -65.5t29 -60.5t29.5 -62t15.5 -68q1 -28 14.5 -51t23.5 -46t9.5 -48.5t-25.5 -58.5q-11 -3 -17.5 1.5t-4.5 16.5q-9 -4 -8.5 -8.5t2.5 -9t3 -9.5t-6 -10q-7 -2 -17 1t-19 4.5t-14.5 -1t-2.5 -14.5q-37 43 -61.5 88.5t-44.5 94t-38 100 t-42 106.5q-18 15 -31 46.5t-27.5 66t-32 66.5t-44.5 50q-45 -11 -95 -28.5t-102 -35.5t-106.5 -33.5t-108.5 -22.5q-3 -5 -8.5 -7.5t-11 -5.5t-9 -8t-2.5 -14q-38 1 -69 -5.5t-55 -17t-41 -24t-25 -27.5q-1 -1 -5 -2t-8 -3.5t-7.5 -7.5t-2.5 -14q0 -2 6.5 -9.5t8.5 -4.5 q0 1 -5.5 -6t-11.5 -14.5t-11 -12.5t-3 0q-11 -24 -19 -54.5t-16 -63t-16.5 -65t-22 -59.5t-33 -46.5t-47.5 -26.5q-4 17 -16.5 33.5t-28 33.5t-31.5 35t-26 39zM373 692q-3 -38 28 -41q33 10 86.5 29.5t112.5 37t115.5 27t95.5 0.5q4 9 17.5 17t29 12.5t30.5 5t23 -5.5 q-2 42 -25 89.5t-50.5 95.5t-50.5 93t-25 81q-15 1 -21.5 13t-12 26.5t-11.5 29t-19 21.5q-1 -5 -5.5 -12t-10 -13t-11 -10t-8.5 -2q-5 -8 -10.5 -19t-13 -20t-16 -12.5t-17.5 4.5q-30 -39 -53.5 -80.5t-45 -86t-43 -90.5t-48.5 -94q0 -8 -3.5 -21t-7.5 -26t-5.5 -24 t3.5 -17q-8 -2 -13 -7.5t-15 -0.5zM578.5 1592q0.5 9 3 18t2.5 14q32 31 44.5 52t14.5 35.5t-3 25t-7.5 20t1.5 20.5t23 27q9 -2 15.5 1.5t13.5 6.5t16 3t21 -9q-2 3 5.5 13.5t18.5 21.5h25h21q3 -8 6.5 -14t11.5 -6q4 0 7.5 3t5.5 6.5t3.5 6.5t3.5 2q21 -3 21 -8 q25 -3 45 4t31 6q2 -3 2 -9v-12.5t1 -11t5 -4.5q-3 -24 -17 -50t-33 -50.5t-40 -47.5t-39 -42q-3 -3 -8.5 -2.5t-11.5 1t-11.5 -1.5t-9.5 -9q-8 -8 -25 -9t-37 -8q-13 -5 -27.5 -8.5t-29.5 -6t-29 -3t-26 1.5q-9 1 -11.5 7.5t-2 15.5z" />
<glyph unicode="&#xc2;" horiz-adv-x="1366" d="M0 141q13 7 15 16.5t2.5 18.5t4.5 16t21 9q2 12 -2.5 19.5t-9 13t-5 11.5t8.5 15q6 -3 10 -1.5t12 1.5q-5 22 -6 37t2 28t11.5 25.5t23.5 30.5q-9 -5 -7 4.5t10 22t20.5 24.5t25.5 14q-18 25 -18.5 45.5t4.5 42t10 45.5t-2 56q4 4 9.5 6.5t10.5 5.5t7.5 8t1.5 15h55 q-8 13 -7 22t6.5 16t13.5 13t14 14q-2 16 -5 27.5t-14 19.5q4 3 8 3.5t7.5 2.5t4.5 8t-1 21q6 -2 8.5 -4.5t4 -6t4 -7t7.5 -6.5q0 7 4 13.5t7 14.5t3 19t-8 26q7 -8 9 -7t3.5 5t4.5 8t12 2q-19 34 -8.5 54t35.5 37q5 4 4.5 16t-0.5 24t5 20.5t21 4.5q-5 32 -4 53.5t21 38.5 q12 -3 15 -8t11 -18q10 4 11.5 10t-1 12.5t-5.5 13.5t-1 15q9 -2 14 -0.5t9.5 4t10.5 4t16 0.5q-1 5 -5 8.5l-8 7t-5.5 9t3.5 14.5q11 -3 17 1.5t14 6.5q-5 14 -8 30t0 38q31 14 51.5 25t36 25.5t27.5 36.5t26 58q9 2 12 -2t11 -6v51q25 9 48 8t46.5 -8.5t49 -22t56.5 -32.5 q-8 -17 -5.5 -28t7 -20.5t7.5 -19t-3 -24.5q39 -53 63.5 -113.5t47 -120t49.5 -114.5t70 -97q12 6 18.5 9t12 4.5t12.5 1.5t20 2q10 -17 29 -23.5t45 -9.5q-2 -14 -1 -25t4.5 -17t10 -6.5t17.5 7.5q7 -29 -4.5 -46t-29 -30.5t-34 -27.5t-20.5 -35q-5 -25 1.5 -50t19 -48 t28.5 -44.5t31 -38.5q1 -35 14 -65.5t29 -60.5t29.5 -62t15.5 -68q1 -28 14.5 -51t23.5 -46t9.5 -48.5t-25.5 -58.5q-11 -3 -17.5 1.5t-4.5 16.5q-9 -4 -8.5 -8.5t2.5 -9t3 -9.5t-6 -10q-7 -2 -17 1t-19 4.5t-14.5 -1t-2.5 -14.5q-37 43 -61.5 88.5t-44.5 94t-38 100 t-42 106.5q-18 15 -31 46.5t-27.5 66t-32 66.5t-44.5 50q-45 -11 -95 -28.5t-102 -35.5t-106.5 -33.5t-108.5 -22.5q-3 -5 -8.5 -7.5t-11 -5.5t-9 -8t-2.5 -14q-38 1 -69 -5.5t-55 -17t-41 -24t-25 -27.5q-1 -1 -5 -2t-8 -3.5t-7.5 -7.5t-2.5 -14q0 -2 6.5 -9.5t8.5 -4.5 q0 1 -5.5 -6t-11.5 -14.5t-11 -12.5t-3 0q-11 -24 -19 -54.5t-16 -63t-16.5 -65t-22 -59.5t-33 -46.5t-47.5 -26.5q-4 17 -16.5 33.5t-28 33.5t-31.5 35t-26 39zM373 692q-3 -38 28 -41q33 10 86.5 29.5t112.5 37t115.5 27t95.5 0.5q4 9 17.5 17t29 12.5t30.5 5t23 -5.5 q-2 42 -25 89.5t-50.5 95.5t-50.5 93t-25 81q-15 1 -21.5 13t-12 26.5t-11.5 29t-19 21.5q-1 -5 -5.5 -12t-10 -13t-11 -10t-8.5 -2q-5 -8 -10.5 -19t-13 -20t-16 -12.5t-17.5 4.5q-30 -39 -53.5 -80.5t-45 -86t-43 -90.5t-48.5 -94q0 -8 -3.5 -21t-7.5 -26t-5.5 -24 t3.5 -17q-8 -2 -13 -7.5t-15 -0.5zM464.5 1591.5q-3.5 7.5 4 15l14 14t8 12t-13.5 9.5q0 5 5 8.5t10.5 6t10.5 4.5t5 4q4 0 12.5 -1l17 -2t15 -2t8.5 -1q-3 5 -10 20t-10 17q1 5 7 15t13 22t13 24t8 21q4 1 6.5 -1.5t5.5 -6.5t6.5 -7.5t9.5 -3.5q-1 3 2.5 15t8 26t8.5 26 t4 15q20 6 40 1t45.5 -10.5t58.5 -5.5t79 17q9 2 16 -2.5t14 -12.5t13 -16.5t12 -13.5q14 -19 34.5 -35t43.5 -30.5t46 -27.5t42 -26q4 -6 5 -16.5t1.5 -20.5t2.5 -18.5t10 -9.5q-1 -8 -6.5 -12.5t-13 -8t-14.5 -7t-11 -7.5q-27 7 -47 20t-38 26t-35.5 23t-39.5 11 q-6 32 -25 44.5t-43 14.5t-50.5 -2.5t-47.5 -5.5q-16 -19 -25 -33t-13 -24.5t-4.5 -17.5t-0.5 -11q-21 -3 -35 -8.5t-23.5 -12.5t-15.5 -15.5t-12 -16.5q-14 5 -27 2t-16 -12q-46 7 -65.5 15t-23 15.5z" />
<glyph unicode="&#xc3;" horiz-adv-x="1366" d="M0 141q13 7 15 16.5t2.5 18.5t4.5 16t21 9q2 12 -2.5 19.5t-9 13t-5 11.5t8.5 15q6 -3 10 -1.5t12 1.5q-5 22 -6 37t2 28t11.5 25.5t23.5 30.5q-9 -5 -7 4.5t10 22t20.5 24.5t25.5 14q-18 25 -18.5 45.5t4.5 42t10 45.5t-2 56q4 4 9.5 6.5t10.5 5.5t7.5 8t1.5 15h55 q-8 13 -7 22t6.5 16t13.5 13t14 14q-2 16 -5 27.5t-14 19.5q4 3 8 3.5t7.5 2.5t4.5 8t-1 21q6 -2 8.5 -4.5t4 -6t4 -7t7.5 -6.5q0 7 4 13.5t7 14.5t3 19t-8 26q7 -8 9 -7t3.5 5t4.5 8t12 2q-19 34 -8.5 54t35.5 37q5 4 4.5 16t-0.5 24t5 20.5t21 4.5q-5 32 -4 53.5t21 38.5 q12 -3 15 -8t11 -18q10 4 11.5 10t-1 12.5t-5.5 13.5t-1 15q9 -2 14 -0.5t9.5 4t10.5 4t16 0.5q-1 5 -5 8.5l-8 7t-5.5 9t3.5 14.5q11 -3 17 1.5t14 6.5q-5 14 -8 30t0 38q31 14 51.5 25t36 25.5t27.5 36.5t26 58q9 2 12 -2t11 -6v51q25 9 48 8t46.5 -8.5t49 -22t56.5 -32.5 q-8 -17 -5.5 -28t7 -20.5t7.5 -19t-3 -24.5q39 -53 63.5 -113.5t47 -120t49.5 -114.5t70 -97q12 6 18.5 9t12 4.5t12.5 1.5t20 2q10 -17 29 -23.5t45 -9.5q-2 -14 -1 -25t4.5 -17t10 -6.5t17.5 7.5q7 -29 -4.5 -46t-29 -30.5t-34 -27.5t-20.5 -35q-5 -25 1.5 -50t19 -48 t28.5 -44.5t31 -38.5q1 -35 14 -65.5t29 -60.5t29.5 -62t15.5 -68q1 -28 14.5 -51t23.5 -46t9.5 -48.5t-25.5 -58.5q-11 -3 -17.5 1.5t-4.5 16.5q-9 -4 -8.5 -8.5t2.5 -9t3 -9.5t-6 -10q-7 -2 -17 1t-19 4.5t-14.5 -1t-2.5 -14.5q-37 43 -61.5 88.5t-44.5 94t-38 100 t-42 106.5q-18 15 -31 46.5t-27.5 66t-32 66.5t-44.5 50q-45 -11 -95 -28.5t-102 -35.5t-106.5 -33.5t-108.5 -22.5q-3 -5 -8.5 -7.5t-11 -5.5t-9 -8t-2.5 -14q-38 1 -69 -5.5t-55 -17t-41 -24t-25 -27.5q-1 -1 -5 -2t-8 -3.5t-7.5 -7.5t-2.5 -14q0 -2 6.5 -9.5t8.5 -4.5 q0 1 -5.5 -6t-11.5 -14.5t-11 -12.5t-3 0q-11 -24 -19 -54.5t-16 -63t-16.5 -65t-22 -59.5t-33 -46.5t-47.5 -26.5q-4 17 -16.5 33.5t-28 33.5t-31.5 35t-26 39zM373 692q-3 -38 28 -41q33 10 86.5 29.5t112.5 37t115.5 27t95.5 0.5q4 9 17.5 17t29 12.5t30.5 5t23 -5.5 q-2 42 -25 89.5t-50.5 95.5t-50.5 93t-25 81q-15 1 -21.5 13t-12 26.5t-11.5 29t-19 21.5q-1 -5 -5.5 -12t-10 -13t-11 -10t-8.5 -2q-5 -8 -10.5 -19t-13 -20t-16 -12.5t-17.5 4.5q-30 -39 -53.5 -80.5t-45 -86t-43 -90.5t-48.5 -94q0 -8 -3.5 -21t-7.5 -26t-5.5 -24 t3.5 -17q-8 -2 -13 -7.5t-15 -0.5zM373 1625q-7 17 2 46q4 17 9 27.5t10 17.5t9 10t5 5q-3 11 4 21t15 16.5t14 10.5t1 3q10 2 26 10t32 8h-9q7 2 12.5 3t11 2.5t11.5 4.5t15 9q2 -1 12 -0.5t22.5 -0.5t24.5 -5t20 -13q9 -3 12.5 -3.5t6 0.5t5.5 2t11 1q1 0 9.5 -2.5t20 -8 t24 -13.5t22.5 -19q9 -10 17 -11t17 -1t19.5 -2t22.5 -12q7 7 15.5 4.5t18.5 -4.5t19.5 1t18.5 21q1 1 6 4t10 9t8 15.5t0 24.5q29 13 48.5 12t33.5 -8.5t24.5 -16.5t22.5 -11q1 -4 -2.5 -7.5l-6.5 -6.5l-5 -5t2 -2q12 -10 12 -22t-6 -24.5t-14.5 -23.5t-14.5 -18 q7 -5 0.5 -11.5t-17 -13.5t-20.5 -13t-10 -9q-3 -2 -10.5 -2.5t-16 -2t-16.5 -4t-12 -7.5q-7 -5 -13 -7t-13 -3t-15.5 -2.5t-20.5 -4.5q4 10 1 13.5t-3 11.5q-11 -15 -16 -15.5t-9 3.5t-8.5 7t-13.5 -7q-40 -5 -63 6t-45.5 27t-51 30.5t-79.5 16.5q-9 -3 -13.5 -8.5 t-8 -11.5t-8.5 -10.5t-15 -4.5q0 -2 -3 -7.5t-6.5 -14t-7.5 -17.5t-6 -17q-20 -5 -42 -4.5t-38.5 9t-23.5 25.5z" />
<glyph unicode="&#xc4;" horiz-adv-x="1366" d="M0 141q13 7 15 16.5t2.5 18.5t4.5 16t21 9q2 12 -2.5 19.5t-9 13t-5 11.5t8.5 15q6 -3 10 -1.5t12 1.5q-5 22 -6 37t2 28t11.5 25.5t23.5 30.5q-9 -5 -7 4.5t10 22t20.5 24.5t25.5 14q-18 25 -18.5 45.5t4.5 42t10 45.5t-2 56q4 4 9.5 6.5t10.5 5.5t7.5 8t1.5 15h55 q-8 13 -7 22t6.5 16t13.5 13t14 14q-2 16 -5 27.5t-14 19.5q4 3 8 3.5t7.5 2.5t4.5 8t-1 21q6 -2 8.5 -4.5t4 -6t4 -7t7.5 -6.5q0 7 4 13.5t7 14.5t3 19t-8 26q7 -8 9 -7t3.5 5t4.5 8t12 2q-19 34 -8.5 54t35.5 37q5 4 4.5 16t-0.5 24t5 20.5t21 4.5q-5 32 -4 53.5t21 38.5 q12 -3 15 -8t11 -18q10 4 11.5 10t-1 12.5t-5.5 13.5t-1 15q9 -2 14 -0.5t9.5 4t10.5 4t16 0.5q-1 5 -5 8.5l-8 7t-5.5 9t3.5 14.5q11 -3 17 1.5t14 6.5q-5 14 -8 30t0 38q31 14 51.5 25t36 25.5t27.5 36.5t26 58q9 2 12 -2t11 -6v51q25 9 48 8t46.5 -8.5t49 -22t56.5 -32.5 q-8 -17 -5.5 -28t7 -20.5t7.5 -19t-3 -24.5q39 -53 63.5 -113.5t47 -120t49.5 -114.5t70 -97q12 6 18.5 9t12 4.5t12.5 1.5t20 2q10 -17 29 -23.5t45 -9.5q-2 -14 -1 -25t4.5 -17t10 -6.5t17.5 7.5q7 -29 -4.5 -46t-29 -30.5t-34 -27.5t-20.5 -35q-5 -25 1.5 -50t19 -48 t28.5 -44.5t31 -38.5q1 -35 14 -65.5t29 -60.5t29.5 -62t15.5 -68q1 -28 14.5 -51t23.5 -46t9.5 -48.5t-25.5 -58.5q-11 -3 -17.5 1.5t-4.5 16.5q-9 -4 -8.5 -8.5t2.5 -9t3 -9.5t-6 -10q-7 -2 -17 1t-19 4.5t-14.5 -1t-2.5 -14.5q-37 43 -61.5 88.5t-44.5 94t-38 100 t-42 106.5q-18 15 -31 46.5t-27.5 66t-32 66.5t-44.5 50q-45 -11 -95 -28.5t-102 -35.5t-106.5 -33.5t-108.5 -22.5q-3 -5 -8.5 -7.5t-11 -5.5t-9 -8t-2.5 -14q-38 1 -69 -5.5t-55 -17t-41 -24t-25 -27.5q-1 -1 -5 -2t-8 -3.5t-7.5 -7.5t-2.5 -14q0 -2 6.5 -9.5t8.5 -4.5 q0 1 -5.5 -6t-11.5 -14.5t-11 -12.5t-3 0q-11 -24 -19 -54.5t-16 -63t-16.5 -65t-22 -59.5t-33 -46.5t-47.5 -26.5q-4 17 -16.5 33.5t-28 33.5t-31.5 35t-26 39zM373 692q-3 -38 28 -41q33 10 86.5 29.5t112.5 37t115.5 27t95.5 0.5q4 9 17.5 17t29 12.5t30.5 5t23 -5.5 q-2 42 -25 89.5t-50.5 95.5t-50.5 93t-25 81q-15 1 -21.5 13t-12 26.5t-11.5 29t-19 21.5q-1 -5 -5.5 -12t-10 -13t-11 -10t-8.5 -2q-5 -8 -10.5 -19t-13 -20t-16 -12.5t-17.5 4.5q-30 -39 -53.5 -80.5t-45 -86t-43 -90.5t-48.5 -94q0 -8 -3.5 -21t-7.5 -26t-5.5 -24 t3.5 -17q-8 -2 -13 -7.5t-15 -0.5zM408 1796q8 16 13 27.5t11 11.5q16 0 28 1.5t22 3.5t19 3.5t19 1.5q9 0 21 -5t26 -5q-1 0 4 -4.5t11.5 -10.5t12 -13t5.5 -11l3 3q4 4 5 9q4 -1 5.5 -3.5t4 -5.5t6 -4t11.5 1q-13 -24 -21.5 -51.5t-19 -51t-25.5 -38.5t-41 -15 q-22 0 -37 6t-27.5 15t-24.5 19.5t-29 19.5q1 9 3 22.5t2 27.5t-1.5 26.5t-5.5 19.5zM747 1710q12 14 10.5 32.5t-2.5 35t4.5 28.5t30.5 13q1 8 4 13t5 8q3 4 6 5h16q40 0 72 -10.5t51 -30t21.5 -48t-15.5 -64.5q-5 0 -12 -4.5t-12 -4.5q-2 -17 -9 -26t-18 -12.5t-24 -4 t-25 -0.5q-16 0 -26 3.5t-19 3.5q0 4 -1 5.5t-2.5 3t-3.5 4.5t-3 11q-5 0 -12 0.5t-9 -4.5q-7 5 -7.5 10t-0.5 10.5t-3.5 11t-15.5 11.5z" />
<glyph unicode="&#xc5;" horiz-adv-x="1366" d="M0 141q13 7 15 16.5t2.5 18.5t4.5 16t21 9q2 12 -2.5 19.5t-9 13t-5 11.5t8.5 15q6 -3 10 -1.5t12 1.5q-5 22 -6 37t2 28t11.5 25.5t23.5 30.5q-9 -5 -7 4.5t10 22t20.5 24.5t25.5 14q-18 25 -18.5 45.5t4.5 42t10 45.5t-2 56q4 4 9.5 6.5t10.5 5.5t7.5 8t1.5 15h55 q-8 13 -7 22t6.5 16t13.5 13t14 14q-2 16 -5 27.5t-14 19.5q4 3 8 3.5t7.5 2.5t4.5 8t-1 21q6 -2 8.5 -4.5t4 -6t4 -7t7.5 -6.5q0 7 4 13.5t7 14.5t3 19t-8 26q7 -8 9 -7t3.5 5t4.5 8t12 2q-19 34 -8.5 54t35.5 37q5 4 4.5 16t-0.5 24t5 20.5t21 4.5q-5 32 -4 53.5t21 38.5 q12 -3 15 -8t11 -18q10 4 11.5 10t-1 12.5t-5.5 13.5t-1 15q9 -2 14 -0.5t9.5 4t10.5 4t16 0.5q-1 5 -5 8.5l-8 7t-5.5 9t3.5 14.5q11 -3 17 1.5t14 6.5q-5 14 -8 30t0 38q31 14 51.5 25t36 25.5t27.5 36.5t26 58q9 2 12 -2t11 -6v51q25 9 48 8t46.5 -8.5t49 -22t56.5 -32.5 q-8 -17 -5.5 -28t7 -20.5t7.5 -19t-3 -24.5q39 -53 63.5 -113.5t47 -120t49.5 -114.5t70 -97q12 6 18.5 9t12 4.5t12.5 1.5t20 2q10 -17 29 -23.5t45 -9.5q-2 -14 -1 -25t4.5 -17t10 -6.5t17.5 7.5q7 -29 -4.5 -46t-29 -30.5t-34 -27.5t-20.5 -35q-5 -25 1.5 -50t19 -48 t28.5 -44.5t31 -38.5q1 -35 14 -65.5t29 -60.5t29.5 -62t15.5 -68q1 -28 14.5 -51t23.5 -46t9.5 -48.5t-25.5 -58.5q-11 -3 -17.5 1.5t-4.5 16.5q-9 -4 -8.5 -8.5t2.5 -9t3 -9.5t-6 -10q-7 -2 -17 1t-19 4.5t-14.5 -1t-2.5 -14.5q-37 43 -61.5 88.5t-44.5 94t-38 100 t-42 106.5q-18 15 -31 46.5t-27.5 66t-32 66.5t-44.5 50q-45 -11 -95 -28.5t-102 -35.5t-106.5 -33.5t-108.5 -22.5q-3 -5 -8.5 -7.5t-11 -5.5t-9 -8t-2.5 -14q-38 1 -69 -5.5t-55 -17t-41 -24t-25 -27.5q-1 -1 -5 -2t-8 -3.5t-7.5 -7.5t-2.5 -14q0 -2 6.5 -9.5t8.5 -4.5 q0 1 -5.5 -6t-11.5 -14.5t-11 -12.5t-3 0q-11 -24 -19 -54.5t-16 -63t-16.5 -65t-22 -59.5t-33 -46.5t-47.5 -26.5q-4 17 -16.5 33.5t-28 33.5t-31.5 35t-26 39zM373 692q-3 -38 28 -41q33 10 86.5 29.5t112.5 37t115.5 27t95.5 0.5q4 9 17.5 17t29 12.5t30.5 5t23 -5.5 q-2 42 -25 89.5t-50.5 95.5t-50.5 93t-25 81q-15 1 -21.5 13t-12 26.5t-11.5 29t-19 21.5q-1 -5 -5.5 -12t-10 -13t-11 -10t-8.5 -2q-5 -8 -10.5 -19t-13 -20t-16 -12.5t-17.5 4.5q-30 -39 -53.5 -80.5t-45 -86t-43 -90.5t-48.5 -94q0 -8 -3.5 -21t-7.5 -26t-5.5 -24 t3.5 -17q-8 -2 -13 -7.5t-15 -0.5zM524 1661q12 1 13 5t-2 8.5t-7.5 9.5t-3.5 10q6 1 4.5 8.5t-2.5 16t3 15.5t20 9q-4 1 -7 5q-2 2 -3.5 6.5t0.5 10.5q5 11 13 20t11 27q3 3 7 3h8t5.5 3.5t0.5 14.5q22 2 30.5 8t12.5 12t8 10.5t18 4.5q4 -6 11.5 -8t15 0.5t13 9t7.5 16.5 q9 -5 17 -5.5t14.5 -0.5t11 -0.5t7.5 -5.5q4 -6 10 -10q5 -3 13.5 -5t21.5 3q8 -3 10.5 -5t2.5 -5t-2 -6.5t-3 -8.5q8 5 14 5t11 -2t9 -5t9 -4q-3 -20 6 -35t24 -20q0 -6 2.5 -27t4 -44.5t-1 -45t-11.5 -29.5q-7 -5 -14 -16.5t-17 -26t-24.5 -29t-37 -23t-55 -10t-77.5 10.5 q-1 -6 -5 -10q-4 -3 -11 -4t-19 6q1 3 -6 6t-16.5 6.5t-19 9t-13.5 13.5q2 12 -8 23.5t-17 27.5q-3 7 -3 14t0.5 12.5t0.5 10.5t-4 10zM616 1657q19 -2 26 -8.5t7 -8.5q28 -21 45.5 -23.5t28 2t17.5 11t16 2.5q3 9 7.5 15t9 9.5t6.5 6.5t1 8q9 0 10.5 9t0 21t-1.5 23t6 15 q1 3 -7.5 5t-11.5 11q-10 18 -15 23t-11.5 6t-17 0.5t-30.5 5.5q0 -11 -7 -17.5t-13 -9.5q-14 -1 -27.5 -10t-23 -24t-14.5 -33.5t-1 -38.5z" />
<glyph unicode="&#xc6;" horiz-adv-x="2048" d="M0 180q13 6 21 19.5t15 25.5t15 19t21 2q0 11 1 23.5t1 23.5q6 0 9.5 1.5t6.5 2.5t6 0t8 -6q-3 15 0 34t12.5 35t25 25.5t36.5 5.5q11 31 24.5 53t26 43.5t22.5 45.5t15 59q10 3 13.5 -0.5t9.5 -5.5q4 2 -2.5 8.5t-7.5 12.5t10 9t49 -2q-3 51 -19 93q37 16 60 42t37.5 57 t24 64.5t19.5 63.5t23.5 54.5t36.5 37.5q-1 20 5.5 38t17.5 34.5t25.5 30.5t29.5 26q13 -19 24.5 -15.5t18.5 16.5t7 29.5t-9 24.5q18 5 32 19.5t27 33t26 37.5t30 33q-2 6 -9.5 6t-15.5 2q5 9 10.5 15.5t8.5 13t3 13.5t-6 18q16 2 32.5 8t31.5 11t28 7t23 -4q13 28 24.5 36 t26.5 5t36.5 -13.5t53.5 -20.5q9 -9 11.5 -20.5t4 -23t6.5 -22.5t19 -18q1 7 16 10t33.5 4.5t34.5 3t19 6.5q12 -3 21 -12t22 -17q55 12 105.5 14.5t102.5 2.5h108t122 8q-1 -2 -4 -8.5t-3 -13t5.5 -11t20.5 -2.5q26 20 44 26.5t36 6.5t38.5 -3t51.5 -3q-8 -8 -5 -11.5 t5 -11.5q28 4 44.5 0.5t25.5 -12.5t13.5 -21t9 -23.5t11 -22t20.5 -15.5q0 -13 -14 -19t-24.5 -9t-9.5 -5t32 -6q-5 -7 -10 -10.5t-10 -6t-10.5 -5.5t-12.5 -9q-72 -9 -132.5 -7t-116.5 6.5t-112 6t-120 -7.5q-25 18 -50.5 20t-52.5 -0.5t-55 -4.5t-57 8q-5 -5 -6 -10t1 -8 q2 -4 5 -7q-9 0 -24.5 -3t-32 -4t-32 3t-24.5 19q-2 -3 -8 -11t-23 -6q-8 -22 -7 -38t6.5 -31t11.5 -31t8 -39q0 -13 -4 -31.5t-7 -39t-3.5 -41t6.5 -37.5q7 -21 21 -29.5t32 -10t39.5 2t43.5 6t42.5 2t38.5 -9.5q35 7 56.5 10.5t41 3t42 -4.5t60.5 -11q31 10 53.5 11.5 t42.5 0t39 -3.5t42 2q0 -4 3.5 -5.5t8 -2.5t8 -2t2.5 -2q-2 -10 -5 -14t3 -7q5 -5 8.5 -4.5t6.5 2t6 4t6 2.5q23 16 39 12t30 -10q6 -2 4.5 1t1.5 -3h5h-3q-14 -7 -21 -19.5t-5 -21.5t15 -9t38 19q17 -34 4.5 -57t-36.5 -38t-51.5 -23t-39.5 -11q-13 -4 -26.5 -2.5t-28 5.5 t-30.5 8t-34 6q-52 4 -114.5 1t-127 -7.5t-127 -6.5t-114.5 5q-2 -15 3.5 -31.5t10.5 -34t6 -35.5t-10 -35q-4 -5 -6 -4.5t-3.5 1.5t-3.5 1t-5 -6q-11 -51 -5.5 -94t15.5 -81t19 -72.5t6 -67.5q98 -12 197 -16.5t195 -2.5t187 10t172 23q22 -5 30 -20.5t12.5 -33.5t12 -35.5 t29.5 -27.5q-54 -42 -118 -64t-135 -30.5t-147.5 -6.5t-155.5 8.5t-159.5 14.5t-158.5 11q-13 12 -24.5 15.5t-22.5 6t-21.5 7t-21.5 16.5q-15 18 -25 47.5t-17 61.5t-11 62t-7 50q3 11 1.5 26.5t-4.5 32t-5 32t2 24.5q-26 13 -59.5 15.5t-73 1t-83 -5.5t-88 -5t-89.5 4 t-86 21q-5 -3 -9.5 -13.5t-10.5 -20t-14 -12.5t-21 9q-11 -12 -17.5 -18.5t-11 -13.5t-7 -16t-5.5 -26q2 1 7 2t9 -1t5 -7t-5 -15q-2 -4 -9 -15t-15 -23t-16.5 -21t-14.5 -8q-10 -21 -19.5 -33t-19 -20.5t-18 -16t-16.5 -19t-16 -30t-16 -49.5l-36 -16t-23 -25 q-38 22 -67.5 58t-57.5 81zM496 606q37 -3 87 -3t101.5 4t100 12.5t83.5 23.5q7 49 8 107t0.5 117t-1 114.5t3.5 99.5q-7 0 -8.5 12t-1.5 27t-2 28.5t-11 16.5q-36 -20 -62.5 -49t-48 -62t-39.5 -69t-36 -70t-37.5 -64t-44.5 -52q0 -10 -6 -26.5t-15 -36t-20.5 -40 t-21.5 -38.5t-18 -32t-11 -20z" />
<glyph unicode="&#xc7;" horiz-adv-x="1479" d="M104 700q6 31 17 62t21 59.5t14 53.5t-4 45q6 36 18 62t25.5 50t26 50.5t18.5 64.5q28 10 46.5 27t31.5 37t24.5 41t26 40t34.5 34t52 22q0 4 -1.5 6.5t-2 5.5t0.5 7t7 11q18 15 39.5 26t43.5 20t43 18.5t36 23.5q114 26 228 24t216 -31.5t184.5 -86t132.5 -139.5 q-9 -22 -28.5 -36.5t-44 -22t-50.5 -7.5t-47 9.5t-34 27.5t-11 47q-23 25 -60 41.5t-82 26t-94 13t-97 3.5q-9 -21 -21.5 -28t-26 -8t-28 0.5t-29.5 -3.5q-65 -18 -113.5 -51.5t-86 -78t-67 -98t-56.5 -110.5h-23q-8 -40 -16 -73.5t-17 -65t-19 -64.5t-20 -71 q6 -92 29 -172.5t66.5 -142t108 -100t153.5 -46.5q35 10 72.5 16t75 9.5t72.5 7t66 8.5q66 23 121 60q24 16 47.5 36t43.5 45.5t35 55.5t22 65q-5 25 -5 43.5t5 36.5q35 10 56.5 9t37 -7t30 -14.5t35.5 -13.5q0 -11 -0.5 -22.5t0.5 -22t4.5 -18t12.5 -9.5 q-28 -68 -53 -118.5t-53 -88.5t-62 -66.5t-81.5 -52t-111.5 -44.5t-151 -44q1 -2 4.5 -10t3.5 -17t-6.5 -15.5t-24.5 -4.5q18 -16 43.5 -30t53.5 -26.5t55.5 -24t50.5 -21.5q20 -3 38 -11q14 -7 27.5 -19t16.5 -32q25 -4 31.5 -20t2.5 -34t-14.5 -32t-19.5 -12q2 -12 1 -19 t-0.5 -10.5t5 -4.5t17.5 -1q1 -12 -6 -25.5t-16.5 -26.5t-19.5 -22.5t-14 -13.5q-24 -21 -60 -34t-74.5 -22t-75.5 -16.5t-64 -17.5q-23 1 -46.5 4t-47 5.5t-48 2.5t-49.5 -4q5 18 -4.5 27t-23.5 17t-27 18.5t-14 31.5q5 33 24 43.5t45.5 10t59.5 -5.5t67 -3.5t67 15 t60 51.5q15 24 10 41t-22.5 30.5t-44 24.5t-53.5 22t-51 23.5t-37 30.5q4 28 -3 41t-16 21.5t-16.5 18t-5.5 32.5q-45 5 -70.5 6t-43 1.5t-32.5 2.5t-39 8t-63 18.5t-103 34.5q-1 5 2.5 12.5t8 15.5t8.5 15t4 11q-43 15 -77.5 46.5t-60.5 73t-44 90.5t-30 100t-17 101t-5 94 z" />
<glyph unicode="&#xc8;" horiz-adv-x="1366" d="M176.5 1382.5q3.5 17.5 12 24t18 5.5t14.5 -3q56 -22 111.5 -33.5t118.5 -5.5q84 6 172 19t175 27t172 27t163 19q19 -2 31.5 -7.5t23.5 -11t22 -9t27 -0.5q-2 -12 1 -21t8 -15.5t11.5 -12.5t10.5 -13q-9 -15 -23.5 -23t-29 -15.5t-26 -18.5t-13.5 -33q-29 6 -48.5 -1 t-33.5 -13q-5 6 -4.5 13.5t0.5 16.5q-11 -2 -27.5 -10t-18.5 -20q-46 0 -83.5 -9t-79.5 -24q-5 8 -15.5 8t-24 -3.5t-30 -9t-33.5 -7.5q-23 -2 -46.5 -1t-46 3t-44 3t-39.5 -1q-21 -4 -36.5 -11t-30 -14t-31.5 -10.5t-41 0.5q-19 17 -40 17t-46 -25q12 -12 14.5 -26.5 t2 -29.5t-2 -30.5t1.5 -28.5q3 -11 14 -19t11 -16q2 -8 1.5 -18t-2 -22t-3 -25t-0.5 -25q1 -27 3.5 -57.5t5 -62t4.5 -62t3 -57.5q28 -3 55.5 1.5t57.5 12t63 15t72 11.5q32 4 69 5.5t68 9.5q41 7 85.5 16.5t84 10.5t70 -13.5t43.5 -56.5q-20 -9 -28 -30t-13 -58 q-60 -34 -130.5 -50t-144 -24t-147 -13.5t-139.5 -17.5q-22 -4 -37.5 -9.5t-26.5 -14.5t-19.5 -21.5t-15.5 -29.5q15 -1 13 -14t-6 -28t-3 -27t21 -11q-21 -14 -23 -28t1 -29t5.5 -33t-8.5 -39q18 -14 37.5 -18t38 -5.5t34 -4.5t25.5 -15q68 14 133 20.5t128 10.5t124 7.5 t120.5 11t117.5 22t115 40.5q14 -1 21.5 -7.5t14.5 -15t15 -15t22 -7.5q-15 -17 -19 -30.5t1 -34.5q4 -8 0 -16t-10.5 -14t-13 -8.5t-7.5 -0.5q-6 -19 -7.5 -24.5t-3 -8t-5.5 -8.5t-16 -27q-9 -2 -12.5 1.5t-6 7.5t-7 6t-15.5 -1q-8 -8 -11 -12.5t-5 -9t-5 -10.5t-10 -15 q-20 9 -48 5t-57.5 -10t-57.5 -9.5t-48 6.5q-28 -17 -55 -24t-54 -8.5t-54 0t-54 1.5q-23 0 -48.5 -1l-51 -2t-47.5 -1t-37 2t-33 -0.5t-37.5 -6t-40 -6.5t-39.5 -1q-28 4 -54 10.5t-52 13.5t-52.5 13t-54.5 8q-15 77 -10 157.5t16 162.5t21 165t6 164q-3 0 -6 5t-5.5 10.5 t-4 9.5t-1.5 2q6 61 3.5 127.5t-10 141.5t-19.5 158.5t-25 178.5q-7 34 -3.5 51.5zM430 1808q7 0 21 1t28 4.5t24.5 10t10.5 17.5q2 5 2.5 4.5t11.5 -2.5q10 -1 10 -6t-1.5 -10.5t-1 -10.5t11.5 -6q7 -1 11.5 2.5t8.5 7.5t9.5 6.5t15.5 0.5q33 1 48.5 -2t20.5 -7t3 -7t-5 -3 q7 0 13 -3.5t11.5 -6.5t11.5 -5t14 1q18 -19 23 -33.5t5 -26.5t-2 -23.5t2 -26t18 -33.5t46 -45q-3 -11 -7 -20q-4 -8 -10.5 -13.5t-15.5 -5.5q-41 0 -63 7t-48 19q-49 6 -89.5 27.5t-70 51.5t-47 65.5t-20.5 70.5z" />
<glyph unicode="&#xc9;" horiz-adv-x="1366" d="M176.5 1382.5q3.5 17.5 12 24t18 5.5t14.5 -3q56 -22 111.5 -33.5t118.5 -5.5q84 6 172 19t175 27t172 27t163 19q19 -2 31.5 -7.5t23.5 -11t22 -9t27 -0.5q-2 -12 1 -21t8 -15.5t11.5 -12.5t10.5 -13q-9 -15 -23.5 -23t-29 -15.5t-26 -18.5t-13.5 -33q-29 6 -48.5 -1 t-33.5 -13q-5 6 -4.5 13.5t0.5 16.5q-11 -2 -27.5 -10t-18.5 -20q-46 0 -83.5 -9t-79.5 -24q-5 8 -15.5 8t-24 -3.5t-30 -9t-33.5 -7.5q-23 -2 -46.5 -1t-46 3t-44 3t-39.5 -1q-21 -4 -36.5 -11t-30 -14t-31.5 -10.5t-41 0.5q-19 17 -40 17t-46 -25q12 -12 14.5 -26.5 t2 -29.5t-2 -30.5t1.5 -28.5q3 -11 14 -19t11 -16q2 -8 1.5 -18t-2 -22t-3 -25t-0.5 -25q1 -27 3.5 -57.5t5 -62t4.5 -62t3 -57.5q28 -3 55.5 1.5t57.5 12t63 15t72 11.5q32 4 69 5.5t68 9.5q41 7 85.5 16.5t84 10.5t70 -13.5t43.5 -56.5q-20 -9 -28 -30t-13 -58 q-60 -34 -130.5 -50t-144 -24t-147 -13.5t-139.5 -17.5q-22 -4 -37.5 -9.5t-26.5 -14.5t-19.5 -21.5t-15.5 -29.5q15 -1 13 -14t-6 -28t-3 -27t21 -11q-21 -14 -23 -28t1 -29t5.5 -33t-8.5 -39q18 -14 37.5 -18t38 -5.5t34 -4.5t25.5 -15q68 14 133 20.5t128 10.5t124 7.5 t120.5 11t117.5 22t115 40.5q14 -1 21.5 -7.5t14.5 -15t15 -15t22 -7.5q-15 -17 -19 -30.5t1 -34.5q4 -8 0 -16t-10.5 -14t-13 -8.5t-7.5 -0.5q-6 -19 -7.5 -24.5t-3 -8t-5.5 -8.5t-16 -27q-9 -2 -12.5 1.5t-6 7.5t-7 6t-15.5 -1q-8 -8 -11 -12.5t-5 -9t-5 -10.5t-10 -15 q-20 9 -48 5t-57.5 -10t-57.5 -9.5t-48 6.5q-28 -17 -55 -24t-54 -8.5t-54 0t-54 1.5q-23 0 -48.5 -1l-51 -2t-47.5 -1t-37 2t-33 -0.5t-37.5 -6t-40 -6.5t-39.5 -1q-28 4 -54 10.5t-52 13.5t-52.5 13t-54.5 8q-15 77 -10 157.5t16 162.5t21 165t6 164q-3 0 -6 5t-5.5 10.5 t-4 9.5t-1.5 2q6 61 3.5 127.5t-10 141.5t-19.5 158.5t-25 178.5q-7 34 -3.5 51.5zM576.5 1592q0.5 9 3 18t2.5 14q32 31 44.5 52t14.5 35.5t-3 25t-7.5 20t1.5 20.5t23 27q9 -2 15.5 1.5t13.5 6.5t16 3t21 -9q-2 3 5.5 13.5t18.5 21.5h25h21q3 -8 6.5 -14t11.5 -6 q4 0 7.5 3t5.5 6.5t3.5 6.5t3.5 2q21 -3 21 -8q25 -3 45 4t31 6q2 -3 2 -9v-12.5t1 -11t5 -4.5q-3 -24 -17 -50t-33 -50.5t-40 -47.5t-39 -42q-3 -3 -8.5 -2.5t-11.5 1t-11.5 -1.5t-9.5 -9q-8 -8 -25 -9t-37 -8q-13 -5 -27.5 -8.5t-29.5 -6t-29 -3t-26 1.5q-9 1 -11.5 7.5 t-2 15.5z" />
<glyph unicode="&#xca;" horiz-adv-x="1366" d="M176.5 1382.5q3.5 17.5 12 24t18 5.5t14.5 -3q56 -22 111.5 -33.5t118.5 -5.5q84 6 172 19t175 27t172 27t163 19q19 -2 31.5 -7.5t23.5 -11t22 -9t27 -0.5q-2 -12 1 -21t8 -15.5t11.5 -12.5t10.5 -13q-9 -15 -23.5 -23t-29 -15.5t-26 -18.5t-13.5 -33q-29 6 -48.5 -1 t-33.5 -13q-5 6 -4.5 13.5t0.5 16.5q-11 -2 -27.5 -10t-18.5 -20q-46 0 -83.5 -9t-79.5 -24q-5 8 -15.5 8t-24 -3.5t-30 -9t-33.5 -7.5q-23 -2 -46.5 -1t-46 3t-44 3t-39.5 -1q-21 -4 -36.5 -11t-30 -14t-31.5 -10.5t-41 0.5q-19 17 -40 17t-46 -25q12 -12 14.5 -26.5 t2 -29.5t-2 -30.5t1.5 -28.5q3 -11 14 -19t11 -16q2 -8 1.5 -18t-2 -22t-3 -25t-0.5 -25q1 -27 3.5 -57.5t5 -62t4.5 -62t3 -57.5q28 -3 55.5 1.5t57.5 12t63 15t72 11.5q32 4 69 5.5t68 9.5q41 7 85.5 16.5t84 10.5t70 -13.5t43.5 -56.5q-20 -9 -28 -30t-13 -58 q-60 -34 -130.5 -50t-144 -24t-147 -13.5t-139.5 -17.5q-22 -4 -37.5 -9.5t-26.5 -14.5t-19.5 -21.5t-15.5 -29.5q15 -1 13 -14t-6 -28t-3 -27t21 -11q-21 -14 -23 -28t1 -29t5.5 -33t-8.5 -39q18 -14 37.5 -18t38 -5.5t34 -4.5t25.5 -15q68 14 133 20.5t128 10.5t124 7.5 t120.5 11t117.5 22t115 40.5q14 -1 21.5 -7.5t14.5 -15t15 -15t22 -7.5q-15 -17 -19 -30.5t1 -34.5q4 -8 0 -16t-10.5 -14t-13 -8.5t-7.5 -0.5q-6 -19 -7.5 -24.5t-3 -8t-5.5 -8.5t-16 -27q-9 -2 -12.5 1.5t-6 7.5t-7 6t-15.5 -1q-8 -8 -11 -12.5t-5 -9t-5 -10.5t-10 -15 q-20 9 -48 5t-57.5 -10t-57.5 -9.5t-48 6.5q-28 -17 -55 -24t-54 -8.5t-54 0t-54 1.5q-23 0 -48.5 -1l-51 -2t-47.5 -1t-37 2t-33 -0.5t-37.5 -6t-40 -6.5t-39.5 -1q-28 4 -54 10.5t-52 13.5t-52.5 13t-54.5 8q-15 77 -10 157.5t16 162.5t21 165t6 164q-3 0 -6 5t-5.5 10.5 t-4 9.5t-1.5 2q6 61 3.5 127.5t-10 141.5t-19.5 158.5t-25 178.5q-7 34 -3.5 51.5zM462.5 1591.5q-3.5 7.5 4 15l14 14t8 12t-13.5 9.5q0 5 5 8.5t10.5 6t10.5 4.5t5 4q4 0 12.5 -1l17 -2t15 -2t8.5 -1q-3 5 -10 20t-10 17q1 5 7 15t13 22t13 24t8 21q4 1 6.5 -1.5t5.5 -6.5 t6.5 -7.5t9.5 -3.5q-1 3 2.5 15t8 26t8.5 26t4 15q20 6 40 1t45.5 -10.5t58.5 -5.5t79 17q9 2 16 -2.5t14 -12.5t13 -16.5t12 -13.5q14 -19 34.5 -35t43.5 -30.5t46 -27.5t42 -26q4 -6 5 -16.5t1.5 -20.5t2.5 -18.5t10 -9.5q-1 -8 -6.5 -12.5t-13 -8t-14.5 -7t-11 -7.5 q-27 7 -47 20t-38 26t-35.5 23t-39.5 11q-6 32 -25 44.5t-43 14.5t-50.5 -2.5t-47.5 -5.5q-16 -19 -25 -33t-13 -24.5t-4.5 -17.5t-0.5 -11q-21 -3 -35 -8.5t-23.5 -12.5t-15.5 -15.5t-12 -16.5q-14 5 -27 2t-16 -12q-46 7 -65.5 15t-23 15.5z" />
<glyph unicode="&#xcb;" horiz-adv-x="1366" d="M176.5 1382.5q3.5 17.5 12 24t18 5.5t14.5 -3q56 -22 111.5 -33.5t118.5 -5.5q84 6 172 19t175 27t172 27t163 19q19 -2 31.5 -7.5t23.5 -11t22 -9t27 -0.5q-2 -12 1 -21t8 -15.5t11.5 -12.5t10.5 -13q-9 -15 -23.5 -23t-29 -15.5t-26 -18.5t-13.5 -33q-29 6 -48.5 -1 t-33.5 -13q-5 6 -4.5 13.5t0.5 16.5q-11 -2 -27.5 -10t-18.5 -20q-46 0 -83.5 -9t-79.5 -24q-5 8 -15.5 8t-24 -3.5t-30 -9t-33.5 -7.5q-23 -2 -46.5 -1t-46 3t-44 3t-39.5 -1q-21 -4 -36.5 -11t-30 -14t-31.5 -10.5t-41 0.5q-19 17 -40 17t-46 -25q12 -12 14.5 -26.5 t2 -29.5t-2 -30.5t1.5 -28.5q3 -11 14 -19t11 -16q2 -8 1.5 -18t-2 -22t-3 -25t-0.5 -25q1 -27 3.5 -57.5t5 -62t4.5 -62t3 -57.5q28 -3 55.5 1.5t57.5 12t63 15t72 11.5q32 4 69 5.5t68 9.5q41 7 85.5 16.5t84 10.5t70 -13.5t43.5 -56.5q-20 -9 -28 -30t-13 -58 q-60 -34 -130.5 -50t-144 -24t-147 -13.5t-139.5 -17.5q-22 -4 -37.5 -9.5t-26.5 -14.5t-19.5 -21.5t-15.5 -29.5q15 -1 13 -14t-6 -28t-3 -27t21 -11q-21 -14 -23 -28t1 -29t5.5 -33t-8.5 -39q18 -14 37.5 -18t38 -5.5t34 -4.5t25.5 -15q68 14 133 20.5t128 10.5t124 7.5 t120.5 11t117.5 22t115 40.5q14 -1 21.5 -7.5t14.5 -15t15 -15t22 -7.5q-15 -17 -19 -30.5t1 -34.5q4 -8 0 -16t-10.5 -14t-13 -8.5t-7.5 -0.5q-6 -19 -7.5 -24.5t-3 -8t-5.5 -8.5t-16 -27q-9 -2 -12.5 1.5t-6 7.5t-7 6t-15.5 -1q-8 -8 -11 -12.5t-5 -9t-5 -10.5t-10 -15 q-20 9 -48 5t-57.5 -10t-57.5 -9.5t-48 6.5q-28 -17 -55 -24t-54 -8.5t-54 0t-54 1.5q-23 0 -48.5 -1l-51 -2t-47.5 -1t-37 2t-33 -0.5t-37.5 -6t-40 -6.5t-39.5 -1q-28 4 -54 10.5t-52 13.5t-52.5 13t-54.5 8q-15 77 -10 157.5t16 162.5t21 165t6 164q-3 0 -6 5t-5.5 10.5 t-4 9.5t-1.5 2q6 61 3.5 127.5t-10 141.5t-19.5 158.5t-25 178.5q-7 34 -3.5 51.5zM406 1796q8 16 13 27.5t11 11.5q16 0 28 1.5t22 3.5t19 3.5t19 1.5q9 0 21 -5t26 -5q-1 0 4 -4.5t11.5 -10.5t12 -13t5.5 -11l3 3q4 4 5 9q4 -1 5.5 -3.5t4 -5.5t6 -4t11.5 1 q-13 -24 -21.5 -51.5t-19 -51t-25.5 -38.5t-41 -15q-22 0 -37 6t-27.5 15t-24.5 19.5t-29 19.5q1 9 3 22.5t2 27.5t-1.5 26.5t-5.5 19.5zM745 1710q12 14 10.5 32.5t-2.5 35t4.5 28.5t30.5 13q1 8 4 13t5 8q3 4 6 5h16q40 0 72 -10.5t51 -30t21.5 -48t-15.5 -64.5 q-5 0 -12 -4.5t-12 -4.5q-2 -17 -9 -26t-18 -12.5t-24 -4t-25 -0.5q-16 0 -26 3.5t-19 3.5q0 4 -1 5.5t-2.5 3t-3.5 4.5t-3 11q-5 0 -12 0.5t-9 -4.5q-7 5 -7.5 10t-0.5 10.5t-3.5 11t-15.5 11.5z" />
<glyph unicode="&#xcc;" horiz-adv-x="569" d="M20 1808q7 0 21 1t28 4.5t24.5 10t10.5 17.5q2 5 2.5 4.5t11.5 -2.5q10 -1 10 -6t-1.5 -10.5t-1 -10.5t11.5 -6q7 -1 11.5 2.5t8.5 7.5t9.5 6.5t15.5 0.5q33 1 48.5 -2t20.5 -7t2.5 -7t-4.5 -3q7 0 13 -3.5t11.5 -6.5t11 -5t13.5 1q18 -19 23.5 -33.5t5 -26.5t-2.5 -23.5 t2 -26t18 -33.5t46 -45q-3 -11 -7 -20q-4 -8 -10 -13.5t-15 -5.5q-21 0 -36 2t-27.5 5t-23.5 8t-24 11q-49 6 -89.5 27.5t-70 51.5t-47 65.5t-20.5 70.5zM179.5 85q1.5 10 3.5 21.5t4.5 21.5t2.5 15q3 3 4 8.5t6 8.5q4 15 4.5 24.5t-1 18.5t-5.5 19.5t-10 25.5 q13 91 16.5 154.5t2 113.5t-6 94t-8.5 97q-2 15 1 32t5 38t1 47t-11 59q-2 62 0.5 131.5t13.5 163.5q-11 11 -16 35.5t0 50.5q3 13 3.5 28.5t0 31.5t-1 30.5t1.5 25.5q6 45 16 65.5t33 20.5q15 -11 25.5 -12.5t17.5 -3t12 -6.5t10 -23q8 8 16 1t13.5 -22.5t9 -36t3 -39.5 t-6 -34t-16.5 -18q16 -6 21.5 -10.5t5.5 -7.5q0 -4 -5 -7q-15 -13 -12 -25t9.5 -24.5t9 -25t-12.5 -27.5q10 -10 23 -15q-11 -30 -7.5 -58.5t7.5 -55.5t2.5 -53.5t-21.5 -51.5q8 -7 10 -17.5t3 -22t3 -21.5t11 -16q-6 -47 -7 -80t0.5 -58.5t4 -48t4 -50t1 -62.5t-4.5 -86 q16 -2 17.5 -13.5t-3.5 -25t-12 -24.5t-8 -11q10 -26 10.5 -39.5t-2 -21.5t-5.5 -14.5t-1 -18.5q1 -8 -1.5 -15.5t-3.5 -14.5t2 -13t15 -11q6 -40 11 -73q4 -29 7.5 -56.5t2.5 -38.5q-2 -27 -11 -37.5t-18 -19.5q-3 0 -5.5 -1t-4.5 -1q-34 5 -58.5 7t-58.5 7q-20 3 -38 20 t-23 36q-2 5 -0.5 15z" />
<glyph unicode="&#xcd;" horiz-adv-x="569" d="M152 1592q1 9 3 18t2 14q32 31 44.5 52t14.5 35.5t-3 25t-7.5 20t1.5 20.5t24 27q9 -2 15.5 1.5t13.5 6.5t16 3t21 -9q-2 3 5.5 13.5t18.5 21.5h25h20q3 -8 7 -14t12 -6q4 0 7.5 3t5.5 6.5t3.5 6.5t3.5 2q21 -3 21 -8q24 -3 44 4t31 6q3 -3 3 -9v-12.5t1 -11t5 -4.5 q-3 -24 -17 -50t-33 -50.5t-40 -47.5t-39 -42q-3 -3 -8.5 -2.5t-11.5 1t-11.5 -1.5t-9.5 -9q-8 -8 -25 -8.5t-37 -8.5q-26 -9 -57.5 -15t-54.5 -1q-9 1 -12 7.5t-2 15.5zM165.5 85q1.5 10 3.5 21.5t4.5 21.5t2.5 15q3 3 4 8.5t6 8.5q4 15 4.5 24.5t-1 18.5t-5.5 19.5 t-10 25.5q13 91 16.5 154.5t2 113.5t-6 94t-8.5 97q-2 15 1 32t5 38t1 47t-11 59q-2 62 0.5 131.5t13.5 163.5q-11 11 -16 35.5t0 50.5q3 13 3.5 28.5t0 31.5t-1 30.5t1.5 25.5q6 45 16 65.5t33 20.5q15 -11 25.5 -12.5t17.5 -3t12 -6.5t10 -23q8 8 16 1t13.5 -22.5t9 -36 t3 -39.5t-6 -34t-16.5 -18q16 -6 21.5 -10.5t5.5 -7.5q0 -4 -5 -7q-15 -13 -12 -25t9.5 -24.5t9 -25t-12.5 -27.5q10 -10 23 -15q-11 -30 -7.5 -58.5t7.5 -55.5t2.5 -53.5t-21.5 -51.5q8 -7 10 -17.5t3 -22t3 -21.5t11 -16q-6 -47 -7 -80t0.5 -58.5t4 -48t4 -50t1 -62.5 t-4.5 -86q16 -2 17.5 -13.5t-3.5 -25t-12 -24.5t-8 -11q10 -26 10.5 -39.5t-2 -21.5t-5.5 -14.5t-1 -18.5q1 -8 -1.5 -15.5t-3.5 -14.5t2 -13t15 -11q6 -40 11 -73q4 -29 7.5 -56.5t2.5 -38.5q-2 -27 -11 -37.5t-18 -19.5q-3 0 -5.5 -1t-4.5 -1q-34 5 -58.5 7t-58.5 7 q-20 3 -38 20t-23 36q-2 5 -0.5 15z" />
<glyph unicode="&#xce;" horiz-adv-x="569" d="M63.5 1591.5q-3.5 7.5 3.5 15t14 14t8.5 12t-13.5 9.5q0 5 5 8.5t10.5 6t10.5 4.5t5 4q4 0 12.5 -1l17 -2t15 -2t8.5 -1q-2 2 -4.5 8t-6 12t-6.5 11t-4 6q1 5 7.5 15t13 22t12.5 24t8 21q4 1 7 -1.5t6 -6.5t6.5 -7.5t9.5 -3.5q-1 3 2.5 15t8 26t8 26t3.5 15q20 6 40.5 1 t46 -10.5t58.5 -5.5t79 17q8 2 15.5 -2.5t14 -12.5t13 -16.5t12.5 -13.5q14 -19 34.5 -35t43.5 -30.5t46 -27.5t42 -26q4 -6 5 -16.5t1 -20.5t2 -18.5t10 -9.5q-1 -8 -6.5 -12.5t-12.5 -8t-14.5 -7t-11.5 -7.5q-27 7 -46.5 20t-37.5 26t-35.5 23t-39.5 11q-6 32 -25 44.5 t-43 14.5t-50.5 -2.5t-47.5 -5.5q-16 -19 -25 -33t-13 -24.5t-4.5 -17.5t-0.5 -11q-22 -3 -36 -8.5t-23 -12.5t-15 -15.5t-12 -16.5q-14 5 -27 2t-16 -12q-46 7 -65.5 15t-23 15.5zM190.5 85q1.5 10 3.5 21.5t4.5 21.5t2.5 15q3 3 4 8.5t6 8.5q4 15 4.5 24.5t-1 18.5 t-5.5 19.5t-10 25.5q13 91 16.5 154.5t2 113.5t-6 94t-8.5 97q-2 15 1 32t5 38t1 47t-11 59q-2 62 0.5 131.5t13.5 163.5q-11 11 -16 35.5t0 50.5q3 13 3.5 28.5t0 31.5t-1 30.5t1.5 25.5q6 45 16 65.5t33 20.5q15 -11 25.5 -12.5t17.5 -3t12 -6.5t10 -23q8 8 16 1 t13.5 -22.5t9 -36t3 -39.5t-6 -34t-16.5 -18q16 -6 21.5 -10.5t5.5 -7.5q0 -4 -5 -7q-15 -13 -12 -25t9.5 -24.5t9 -25t-12.5 -27.5q10 -10 23 -15q-11 -30 -7.5 -58.5t7.5 -55.5t2.5 -53.5t-21.5 -51.5q8 -7 10 -17.5t3 -22t3 -21.5t11 -16q-6 -47 -7 -80t0.5 -58.5t4 -48 t4 -50t1 -62.5t-4.5 -86q16 -2 17.5 -13.5t-3.5 -25t-12 -24.5t-8 -11q10 -26 10.5 -39.5t-2 -21.5t-5.5 -14.5t-1 -18.5q1 -8 -1.5 -15.5t-3.5 -14.5t2 -13t15 -11q6 -40 11 -73q4 -29 7.5 -56.5t2.5 -38.5q-2 -27 -11 -37.5t-18 -19.5q-3 0 -5.5 -1t-4.5 -1q-34 5 -58.5 7 t-58.5 7q-20 3 -38 20t-23 36q-2 5 -0.5 15z" />
<glyph unicode="&#xcf;" horiz-adv-x="569" d="M4 1796q8 16 13.5 27.5t11.5 11.5q32 0 50 5t38 5q9 0 21 -5t26 -5q-1 0 4 -4.5t11.5 -10.5t12 -13t5.5 -11l3 3q4 4 5 9q4 -1 5.5 -3.5t4 -5.5t6 -4t11.5 1q-13 -24 -21.5 -51.5t-19 -51t-25.5 -38.5t-41 -15q-22 0 -37 6t-27.5 15t-25 19.5t-29.5 19.5q1 9 3 22.5 t2 27.5t-1.5 26.5t-5.5 19.5zM188.5 85q1.5 10 3.5 21.5t4.5 21.5t2.5 15q3 3 4 8.5t6 8.5q4 15 4.5 24.5t-1 18.5t-5.5 19.5t-10 25.5q13 91 16.5 154.5t2 113.5t-6 94t-8.5 97q-2 15 1 32t5 38t1 47t-11 59q-2 62 0.5 131.5t13.5 163.5q-11 11 -16 35.5t0 50.5 q3 13 3.5 28.5t0 31.5t-1 30.5t1.5 25.5q6 45 16 65.5t33 20.5q15 -11 25.5 -12.5t17.5 -3t12 -6.5t10 -23q8 8 16 1t13.5 -22.5t9 -36t3 -39.5t-6 -34t-16.5 -18q16 -6 21.5 -10.5t5.5 -7.5q0 -4 -5 -7q-15 -13 -12 -25t9.5 -24.5t9 -25t-12.5 -27.5q10 -10 23 -15 q-11 -30 -7.5 -58.5t7.5 -55.5t2.5 -53.5t-21.5 -51.5q8 -7 10 -17.5t3 -22t3 -21.5t11 -16q-6 -47 -7 -80t0.5 -58.5t4 -48t4 -50t1 -62.5t-4.5 -86q16 -2 17.5 -13.5t-3.5 -25t-12 -24.5t-8 -11q10 -26 10.5 -39.5t-2 -21.5t-5.5 -14.5t-1 -18.5q1 -8 -1.5 -15.5 t-3.5 -14.5t2 -13t15 -11q6 -40 11 -73q4 -29 7.5 -56.5t2.5 -38.5q-2 -27 -11 -37.5t-18 -19.5q-3 0 -5.5 -1t-4.5 -1q-34 5 -58.5 7t-58.5 7q-20 3 -38 20t-23 36q-2 5 -0.5 15zM344 1710q12 14 10.5 32.5t-2.5 35t4.5 28.5t30.5 13q1 14 8 21q3 4 7 5h16q40 0 72 -10.5 t50.5 -30t21.5 -48t-15 -64.5q-5 0 -12.5 -4.5t-12.5 -4.5q-2 -17 -9 -26t-18 -12.5t-23.5 -4t-24.5 -0.5q-16 0 -26 3.5t-19 3.5q0 4 -1 5.5t-3 3t-4 4.5t-3 11q-5 0 -11.5 0.5t-8.5 -4.5q-7 5 -7.5 10t-0.5 10.5t-3.5 11t-15.5 11.5z" />
</font>
</defs>
</svg>
